<svg width="102" height="52" viewBox="0 0 102 52" fill="none" xmlns="http://www.w3.org/2000/svg">
<g clip-path="url(#clip0_7_85)">
<path d="M62.9288 12.7643H69.4498L74.1479 30.9117H68.9115L67.9327 26.2819H64.4642L63.4854 30.9117H58.249L62.9226 12.7643H62.9288ZM64.9842 22.8575H67.4005L66.5257 18.5276C66.4768 18.2757 66.4217 17.9219 66.3422 17.544C66.2688 16.8903 66.2382 16.5605 66.2138 15.7029C66.1648 16.5605 66.1342 16.9143 66.0608 17.544C65.9874 17.8979 65.9324 18.2457 65.8834 18.5276L64.9842 22.8575Z" fill="white"/>
<path d="M86.1256 16.4885C85.2753 16.2127 84.6635 16.1107 83.9968 16.1107C81.4825 16.1107 80.3753 17.8979 80.3753 21.976C80.3753 26.054 81.507 27.6133 84.0457 27.6133C84.8654 27.6133 85.7157 27.4394 86.6884 26.9836L87.1227 30.456C85.5567 30.9837 84.1986 31.2356 82.81 31.2356C77.855 31.2356 75.0533 27.8652 75.0533 21.922C75.0533 15.9788 77.9039 12.4824 82.7549 12.4824C84.0885 12.4824 85.3976 12.7103 86.7373 13.1841L86.1195 16.4825L86.1256 16.4885Z" fill="white"/>
<path d="M88.8478 12.7643H102V16.2127L97.9932 16.5425V30.9117H92.8057V16.5425L88.8478 16.1887V12.7643Z" fill="white"/>
<path d="M62.1702 33.9583C61.6992 33.6464 61.2893 33.5025 60.8427 33.5025C60.3289 33.5025 59.8701 33.7663 59.6376 34.2161C59.3991 34.6659 59.2951 35.2596 59.2951 36.2372C59.2951 37.1308 59.3868 37.6165 59.6071 38.0783C59.8334 38.5341 60.28 38.78 60.8733 38.78C61.222 38.78 61.5157 38.708 61.8705 38.5341V36.4891H60.4635V35.8294H62.7881V39.0379C61.8888 39.3917 61.3994 39.5056 60.7938 39.5056C59.1115 39.5056 58.2551 38.4142 58.2551 36.2492C58.2551 33.9762 59.1115 32.7948 60.7449 32.7948C61.3688 32.7948 61.8949 32.9747 62.4761 33.3525L62.1641 33.9583H62.1702Z" fill="white"/>
<path d="M65.6204 34.7618C66.9356 34.7618 67.6146 35.5715 67.6146 37.1307C67.6146 38.69 66.9356 39.5116 65.6204 39.5116C64.3051 39.5116 63.6261 38.702 63.6261 37.1307C63.6261 35.5595 64.3051 34.7618 65.6204 34.7618ZM64.5437 37.1307C64.5437 38.2762 64.9108 38.8699 65.6204 38.8699C66.33 38.8699 66.6848 38.2642 66.6848 37.1307C66.6848 35.9973 66.3177 35.4095 65.6204 35.4095C64.923 35.4095 64.5437 36.0033 64.5437 37.1307Z" fill="white"/>
<path d="M68.7708 34.7618L69.7923 38.1383C69.8413 38.2702 69.8719 38.4561 69.9086 38.708C69.9453 38.4561 70.0003 38.2222 70.0248 38.1383L71.0219 34.8638H71.9151L70.4347 39.3917H69.3213L67.847 34.8758L68.7708 34.7618Z" fill="white"/>
<path d="M73.1141 37.4186C73.1875 38.3182 73.7197 38.8159 74.5822 38.8159C74.8942 38.8159 75.2184 38.756 75.6527 38.594L75.8179 39.2417C75.3285 39.4037 74.8514 39.4936 74.3926 39.4936C72.955 39.4936 72.1475 38.6 72.1475 37.0708C72.1475 35.6374 72.8816 34.7618 74.1173 34.7618C75.353 34.7618 75.9708 35.5715 75.9708 37.0228C75.9708 37.1127 75.9708 37.2387 75.9647 37.4186H73.1141ZM73.0406 36.8309H75.1144V36.8129C75.1144 35.8953 74.7535 35.4035 74.1051 35.4035C73.4566 35.4035 73.0529 35.9193 73.0406 36.8309Z" fill="white"/>
<path d="M76.7722 34.8758L77.647 34.8398V35.1997C78.0324 34.8998 78.3199 34.7919 78.797 34.7919L78.6992 35.6135C78.5707 35.5835 78.5034 35.5835 78.4055 35.5835C78.1119 35.5835 77.8917 35.6495 77.6531 35.8174V39.3917H76.7783V34.8758H76.7722Z" fill="white"/>
<path d="M79.3476 34.8758L80.204 34.7619V35.1817C80.6934 34.8759 81.1033 34.7379 81.5437 34.7379C81.9842 34.7379 82.3634 34.8699 82.6203 35.1157C82.8895 35.3676 82.9813 35.6495 82.9813 36.2432V39.3917H82.1187V36.4351C82.1187 36.2612 82.1126 36.1233 82.082 36.0213C82.0147 35.6795 81.6966 35.4516 81.2684 35.4516C80.9381 35.4516 80.5955 35.5775 80.2224 35.8414V39.3917H79.3537V34.8758H79.3476Z" fill="white"/>
<path d="M83.9906 34.8758L84.8532 34.7799V35.1217C85.2753 34.8638 85.6423 34.7439 86.0277 34.7439C86.4131 34.7439 86.774 34.8578 87.0126 35.0857C87.0799 35.1457 87.1227 35.1877 87.1961 35.3016C87.6732 34.9358 88.1321 34.7619 88.6092 34.7619C89.0313 34.7619 89.3983 34.9058 89.6491 35.1577C89.9061 35.4276 89.9917 35.6795 89.9917 36.2852V39.3977H89.1292V36.4771C89.1292 36.2852 89.1231 36.1532 89.1047 36.0453C89.0374 35.7034 88.7193 35.4576 88.3217 35.4576C88.0097 35.4576 87.7344 35.5835 87.4102 35.8654V39.4037H86.5477V36.5011C86.5477 36.2672 86.5477 36.1472 86.5354 36.0573C86.4804 35.7154 86.15 35.4636 85.7279 35.4636C85.416 35.4636 85.159 35.5655 84.8532 35.8054V39.4037H83.9906V34.8878V34.8758Z" fill="white"/>
<path d="M91.7963 37.4186C91.8697 38.3182 92.4019 38.8159 93.2706 38.8159C93.5826 38.8159 93.9068 38.756 94.335 38.594L94.5002 39.2417C94.0108 39.4037 93.5336 39.4936 93.0748 39.4936C91.6434 39.4936 90.8359 38.6 90.8359 37.0708C90.8359 35.6374 91.57 34.7618 92.8057 34.7618C94.0414 34.7618 94.6592 35.5715 94.6592 37.0228C94.6592 37.1127 94.6592 37.2387 94.6531 37.4186H91.8024H91.7963ZM91.7168 36.8309H93.7967V36.8129C93.7967 35.8953 93.4358 35.4035 92.7873 35.4035C92.1389 35.4035 91.7413 35.9193 91.7168 36.8309Z" fill="white"/>
<path d="M95.4545 34.8758L96.3109 34.7619V35.1817C96.8003 34.8759 97.2101 34.7379 97.6506 34.7379C98.091 34.7379 98.4703 34.8699 98.7272 35.1157C98.9964 35.3676 99.0882 35.6495 99.0882 36.2432V39.3917H98.2256V36.4351C98.2256 36.2612 98.2134 36.1233 98.1889 36.0213C98.1216 35.6795 97.8035 35.4516 97.3692 35.4516C97.0389 35.4516 96.7024 35.5775 96.3231 35.8414V39.3917H95.4606V34.8758H95.4545Z" fill="white"/>
<path d="M99.6509 34.8699H100.22V34.1202L101.089 33.9883V34.8699H102V35.4396L101.095 35.5176V38.2223C101.095 38.3962 101.095 38.4742 101.107 38.5401C101.125 38.7261 101.284 38.846 101.523 38.846C101.67 38.846 101.804 38.816 102 38.756V39.3677C101.761 39.4517 101.511 39.4937 101.248 39.4937C100.887 39.4937 100.605 39.3977 100.428 39.2358C100.281 39.0859 100.226 38.864 100.226 38.4802V35.5056L99.6571 35.4516V34.8759L99.6509 34.8699Z" fill="white"/>
<path d="M9.77545 29.1785C9.07808 29.2324 8.43576 29.1065 8.28283 29.0405C8.30118 29.0165 8.31954 28.9926 8.344 28.9746L8.36236 28.9566L8.37459 28.9386C8.47247 28.7887 8.66822 28.5907 9.0475 28.2009L9.46347 27.7811C9.94674 27.2894 10.1547 26.7676 10.2465 26.2399C10.6258 27.0915 11.262 28.8126 11.6535 30.7557C11.2253 30.7617 10.7236 30.7557 10.7114 30.7557H10.5891L10.5768 30.8757C10.5401 31.1336 10.3933 31.8712 10.1547 32.1531C9.95897 32.381 9.70205 32.4589 9.42065 32.369C9.18819 32.297 8.83951 31.7393 8.94962 31.1336C9.04138 30.6178 9.49406 29.8681 9.89168 29.3944L10.0936 29.1485L9.77545 29.1785ZM14.3818 19.0612C14.3818 19.0612 14.0943 18.9353 13.923 18.8513C14.1126 18.4435 14.3757 18.1437 14.6754 18.0357C15.1709 17.8618 15.5318 17.9158 15.8499 18.2096C16.1375 18.4795 16.3516 18.8333 16.1925 19.0193C16.0579 19.1692 15.9295 19.1152 15.905 19.0972L15.7276 19.0013L15.7031 19.1932C15.7031 19.1932 15.697 19.2292 15.697 19.2771C15.697 19.3491 15.7215 19.475 15.7643 19.607L14.8161 19.2232L14.394 19.0552M18.8841 25.3403C18.9392 25.2023 19.0004 25.0404 19.0554 24.8725C19.0676 25.0584 19.0799 25.2683 19.0799 25.2683C19.0799 25.2983 19.0799 25.3283 19.0799 25.3583C19.0799 25.6341 19.0248 25.964 18.9086 26.3598C18.7863 26.7916 18.4253 27.3553 18.3336 27.4573C18.2907 27.5053 18.2602 27.5292 18.2357 27.5472C18.2357 27.5232 18.2235 27.4993 18.2235 27.4933V27.3973V27.3673L18.2907 26.9595C18.2907 26.9595 18.3703 26.5337 18.3764 26.4917C18.4192 26.3898 18.774 25.5982 18.774 25.5982L18.8719 25.3463M7.98308 29.0645C7.98308 29.1245 8.00755 29.1845 8.05649 29.2264C8.19719 29.3524 8.85786 29.4603 9.50018 29.4543C9.13925 29.9401 8.7661 30.5818 8.67434 31.0856C8.65599 31.1815 8.64987 31.2775 8.64987 31.3674C8.64987 31.9672 8.98632 32.5129 9.33501 32.6209C9.72652 32.7408 10.0936 32.6328 10.3627 32.321C10.638 31.9971 10.7848 31.3015 10.8276 31.0256C11.0112 31.0256 11.3843 31.0316 11.7085 31.0256C11.8003 31.5114 11.8431 31.7153 11.9899 31.7752C12.0389 31.7932 12.1123 31.8052 12.1979 31.7453C12.2468 31.7153 12.6873 31.2655 13.244 30.6418C13.2623 30.7437 13.2684 30.8337 13.2684 30.9057C13.2684 30.9476 13.2684 30.9836 13.2684 31.0256V31.1336C13.2684 31.3255 13.3541 31.6133 13.4397 31.8652L13.4764 31.9792C13.4887 32.0031 13.4887 32.0511 13.4887 32.1231C13.4887 32.4589 13.3541 33.2625 13.299 33.4305C13.244 33.5984 13.1277 33.7363 13.0788 33.8083C13.1828 33.7783 13.1155 33.9882 13.244 33.9522C13.244 33.9402 13.5376 33.7363 13.6171 33.4725C13.6661 33.3225 13.7701 32.5789 13.7701 32.1411C13.7701 32.0331 13.7639 31.9432 13.7456 31.8892L13.7211 31.8172L13.7028 31.7752C13.6599 31.6493 13.5437 31.3015 13.5437 31.1276V31.0256C13.5498 30.8817 13.556 30.7078 13.4887 30.4199L13.4764 30.3839C14.3696 29.3524 15.4462 27.991 15.6664 27.1814C15.8194 27.0495 16.7247 26.1799 16.7247 24.7765C16.7247 24.5127 16.6941 24.2248 16.6146 23.9249C16.6146 23.9249 16.5779 23.817 16.4494 23.847C16.321 23.877 16.3516 23.9909 16.3516 23.9909C16.425 24.2788 16.4556 24.5427 16.4556 24.7945C16.4556 26.1679 15.5074 26.9655 15.4584 27.0075L15.4217 27.0375L15.4095 27.0795C15.1281 28.2549 12.4977 31.0976 12.0939 31.4814C12.0572 31.3794 12.0144 31.1755 11.9716 30.9536L11.9532 30.8817C11.4577 28.3149 10.5768 26.2698 10.3077 25.7541L10.1119 25.4062C9.83051 24.9265 9.51241 24.3927 9.51241 23.5231C9.51241 23.4512 9.51241 23.3732 9.51853 23.2892C9.5797 22.3417 10.0997 21.2682 11.1213 19.9968C11.7146 19.2591 12.3019 19.3911 12.7301 19.487C13.1216 19.577 13.6049 19.7809 13.8802 19.9788C14.4491 20.3806 14.2594 21.2742 14.235 21.3701C14.1738 21.64 13.8312 21.772 13.8312 21.772L13.6232 21.8499L13.7884 21.9939C13.7884 21.9939 13.8985 22.0898 13.9964 22.2757C14.082 22.4496 14.0637 22.5996 14.0637 22.5996L14.0086 22.9354L14.2839 22.7195C14.5103 22.5396 15.2443 22.5156 15.7337 22.4976L16.064 22.4856C16.064 22.4856 16.1864 22.4676 16.168 22.3297C16.1497 22.1978 16.0457 22.2157 16.0457 22.2157L15.7215 22.2277C15.2199 22.2457 14.6754 22.2697 14.3267 22.4077C14.3145 22.3297 14.29 22.2457 14.2411 22.1498C14.1922 22.0478 14.1371 21.9819 14.0943 21.9219C14.2411 21.8319 14.4491 21.676 14.5103 21.4181C14.5286 21.3402 14.5653 21.1482 14.5653 20.9084C14.5653 20.5305 14.4674 20.0508 14.0453 19.7509C13.7395 19.535 13.2256 19.3071 12.7974 19.2112C12.5221 19.1452 12.1184 19.0552 11.6902 19.2172L11.5984 19.0133C11.3415 18.4735 10.9989 17.7359 11.3476 16.7883C11.7942 15.6009 12.8586 15.349 13.452 15.307C14.131 15.259 14.9018 15.5169 15.2994 15.6728C15.5808 15.7868 16.009 16.0327 16.3149 16.2126L16.6941 16.4285L16.9021 16.5244C17.2019 16.6504 17.6545 16.8423 17.9482 17.2141C18.2969 17.6639 18.3519 18.0237 18.3519 18.2036C18.3519 18.2876 18.3397 18.3356 18.3397 18.3416V18.3895L18.462 18.8213L18.5232 18.9893C18.6211 19.2591 18.7006 19.469 18.7557 19.559C18.8168 19.649 18.8474 19.7809 18.8474 19.9128C18.8474 19.9428 18.8413 19.9668 18.8352 19.9908C18.823 19.9788 18.8107 19.9608 18.8107 19.9608L18.5354 19.6909C18.4192 19.613 17.9176 19.2232 17.6729 18.8094L17.6423 18.7554L17.5873 18.7434C17.5873 18.7434 17 18.6174 16.7492 18.3116L16.376 17.7658L15.9906 17.2021C15.7154 16.8783 14.9385 16.1226 13.7395 16.1766C13.0421 16.2066 12.6689 16.5004 12.4793 16.7463C12.2468 17.0402 12.2101 17.358 12.2468 17.532C12.3325 17.9278 12.5711 18.4555 13.6416 19.0013L14.2594 19.2831L14.6877 19.451L15.9784 19.9728C16.5657 20.2187 16.8776 20.3746 17.0551 20.5125L17.1162 20.5545C17.5506 20.8844 18.7006 21.748 18.8841 22.9954C19.0554 24.1228 18.8046 24.7226 18.6088 25.2083L18.5049 25.4722L18.1072 26.3538V26.3778L18.0094 26.8636L17.9359 27.3074V27.2594L17.9421 27.2654V27.4873L18.0277 27.7272L18.1929 27.7931C18.2969 27.7931 18.4009 27.7272 18.5232 27.5892C18.6456 27.4513 19.0187 26.8396 19.1533 26.3898C19.2756 25.976 19.3368 25.6161 19.3368 25.3163C19.3368 25.2803 19.3368 25.2443 19.3368 25.2143C19.3368 25.2143 19.3001 24.7705 19.294 24.6446C19.3368 24.6146 19.3919 24.5666 19.453 24.4827L19.4775 24.4467V24.4047C19.4775 24.2968 19.5448 24.0929 19.6733 23.9069C19.6977 23.871 19.7711 23.871 19.8445 23.889C19.8384 23.907 19.8201 23.9249 19.814 23.9489L19.7528 24.0809C19.6916 24.1948 19.6794 24.3687 19.6794 24.5127C19.6794 24.6326 19.6855 24.7286 19.6916 24.7645L19.7222 24.9924L19.918 24.8545C19.9547 24.8365 20.1015 24.8545 20.1871 24.8605H20.2789C20.2789 24.8605 20.2911 24.8785 20.2972 24.8785C20.2972 24.8785 20.2972 24.8785 20.2911 24.8785C20.1321 24.9205 20.0036 25.1664 19.7711 25.7361L19.7528 25.7781C19.7161 25.874 19.6977 26.0359 19.6977 26.2459C19.6977 26.6297 19.7467 27.1574 19.8017 27.6672L19.8201 27.8231C19.8262 27.8831 19.8445 27.9431 19.8629 27.991C19.7589 27.973 19.6733 27.949 19.6182 27.8951C19.5387 27.8171 19.5203 27.6972 19.5203 27.5832C19.5203 27.5173 19.5203 27.4573 19.5326 27.4153V27.3733L19.5387 27.3433C19.5387 27.2174 19.4592 27.1394 19.3735 27.1214C19.2512 27.0915 19.0615 27.1574 18.9269 27.4633C18.7924 27.7751 18.3458 28.4288 18.3397 28.4348L18.2479 28.5728L18.4009 28.6327C18.4865 28.6687 18.5049 28.7947 18.5049 28.8966C18.2051 28.9146 17.7891 29.1605 17.2569 29.4963C16.9144 29.7122 16.4494 29.8142 15.8316 29.8022H15.7398L15.7031 29.8861C15.3911 30.6538 14.8467 31.2835 14.7488 31.3734C14.6571 31.4634 14.5898 31.6133 14.547 31.7333C14.5225 31.7333 14.498 31.7153 14.4674 31.7213L14.2289 31.8232C14.027 31.9971 14.1126 33.1486 14.2044 33.5024C14.3023 33.4784 14.4124 33.4365 14.4919 33.4185C14.4001 33.1486 14.3145 32.1471 14.4063 32.0271C14.4063 32.0271 14.4735 31.9911 14.5041 31.9971C14.5347 32.0451 14.6571 32.261 14.6571 32.261L14.7427 31.9612C14.7733 31.8472 14.8589 31.6433 14.9262 31.5653C15.0241 31.4694 15.5624 30.8397 15.8989 30.0721C16.529 30.0721 17.0183 29.9581 17.3915 29.7182C17.783 29.4723 18.3703 29.1005 18.5721 29.1605L18.719 29.2085L18.7495 29.0585C18.7557 29.0105 18.7618 28.9566 18.7618 28.8906C18.7618 28.7467 18.7312 28.5848 18.6211 28.4708C18.7495 28.2729 19.0493 27.8231 19.1594 27.5652C19.1839 27.5053 19.2145 27.4693 19.2389 27.4393C19.2389 27.4813 19.2267 27.5232 19.2267 27.5832C19.2267 27.7391 19.2573 27.9311 19.4041 28.081C19.557 28.2309 19.7956 28.2969 20.1259 28.2729L20.4318 28.2429L20.2055 28.039C20.2055 28.039 20.0892 27.9311 20.077 27.8051L20.0587 27.6432C19.9485 26.6237 19.9241 26.0359 19.9914 25.88L20.0097 25.838C20.0892 25.6461 20.2728 25.1963 20.3645 25.1364C20.4685 25.1124 20.5847 25.0644 20.6092 25.0464L20.701 25.0104C20.6887 24.9685 20.5542 24.6206 20.285 24.5966H20.1993C20.1076 24.5786 20.0219 24.5726 19.9424 24.5786C19.9424 24.5546 19.9424 24.5367 19.9424 24.5127C19.9424 24.3867 19.9547 24.2668 19.9852 24.2068L20.0587 24.0449C20.0587 24.0449 20.0892 23.9729 20.0892 23.9669L20.2972 23.853L20.1504 23.715C20.1015 23.6911 19.6427 23.4692 19.4347 23.757C19.3062 23.9429 19.2267 24.1648 19.2022 24.3387C19.19 24.3567 19.1472 24.3927 19.1227 24.4227C19.1655 24.2128 19.1961 23.9849 19.1961 23.709C19.1961 23.4871 19.1778 23.2353 19.1349 22.9594C18.9331 21.604 17.7157 20.6865 17.263 20.3446L17.208 20.3026C17.0061 20.1527 16.688 19.9908 16.0702 19.7329C15.9845 19.589 15.9539 19.457 15.9417 19.3671C16.0702 19.3671 16.2231 19.3311 16.3577 19.1752C16.6146 18.8933 16.4739 18.4435 16.0029 17.9997C15.6175 17.6339 15.1403 17.5559 14.547 17.7658C14.0759 17.9338 13.7945 18.3776 13.6355 18.7134C12.6506 18.1796 12.5405 17.6939 12.4915 17.484C12.4915 17.46 12.4854 17.43 12.4854 17.406C12.4854 17.2741 12.5405 17.0882 12.6689 16.9202C12.8219 16.7223 13.1339 16.4824 13.7211 16.4585C14.8284 16.4105 15.5502 17.1541 15.7459 17.388L16.113 17.9218L16.5045 18.4975C16.7798 18.8333 17.312 18.9773 17.4466 19.0073C17.7218 19.4391 18.199 19.8229 18.3519 19.9248L18.5721 20.1467L18.6333 20.2247C18.6639 20.2547 18.7495 20.3386 18.7495 20.3386C18.8046 20.3746 18.8658 20.3746 18.9208 20.3446C19.0493 20.2787 19.086 20.0508 19.086 19.9308C19.086 19.7449 19.0371 19.565 18.9453 19.4331C18.9025 19.3671 18.7985 19.0732 18.7434 18.9173L18.6761 18.7434C18.6761 18.7434 18.5783 18.4075 18.5783 18.3895C18.5783 18.3596 18.5905 18.3116 18.5905 18.2276C18.5905 17.9937 18.5232 17.5739 18.1317 17.0702C17.7952 16.6324 17.3059 16.4285 16.9755 16.2905L16.7859 16.2066L16.425 16.0027C16.0885 15.8048 15.6664 15.5589 15.3667 15.4449C14.9446 15.277 14.1249 15.0011 13.3908 15.0611C12.7301 15.1091 11.5434 15.391 11.054 16.7163C10.9316 17.0342 10.8888 17.334 10.8888 17.6159C10.8888 18.2456 11.1335 18.7614 11.3109 19.1452C11.3109 19.1452 11.3598 19.2651 11.4027 19.3611C11.2253 19.469 11.0479 19.619 10.8705 19.8409C9.81216 21.1542 9.27384 22.2817 9.20655 23.2832C9.13925 24.3747 9.52465 25.0224 9.83663 25.5502L9.98344 25.8081C9.94062 26.4737 9.76322 27.0555 9.2249 27.6072L8.80892 28.033C8.42353 28.4228 8.22778 28.6267 8.11155 28.7947C8.05649 28.8366 7.94026 28.9386 7.94026 29.0645V29.0765" fill="white"/>
<path d="M10.9683 34.8218C11.2925 34.6899 11.6045 34.5579 12.0633 34.336C12.1979 34.27 12.4487 33.9762 12.883 33.8442C12.8953 33.8442 13.1461 33.7543 13.1461 33.7543C13.2562 33.7123 13.1889 33.8622 13.4214 33.7963C13.1094 34.0961 12.8219 34.396 12.565 34.5759C12.3875 34.7018 12.4365 34.8218 12.4732 34.8878C12.4732 34.8878 12.6934 34.6899 12.9626 34.7018C13.2317 34.7138 13.5009 34.6239 13.8802 34.8398C14.2594 35.0557 14.4674 35.1636 14.547 35.4275C14.5959 35.6014 14.6265 35.7214 14.6265 35.7214C14.6265 35.7214 14.8956 35.4095 14.914 35.2116C14.914 35.2116 15.4829 34.8518 15.801 34.8218C16.1191 34.7918 16.4984 34.8998 16.529 35.0677C16.529 35.0677 16.5657 34.7378 16.3516 34.5279C16.2598 34.432 16.1008 34.312 16.1008 34.312C16.1008 34.312 16.272 34.1741 16.3883 34.282C16.3883 34.282 16.3516 33.9582 16.1986 33.9402C16.0396 33.9282 15.3422 33.9282 15.0914 33.9282C14.8406 33.9282 14.3451 33.8323 14.235 33.5384C14.2289 33.5204 14.2227 33.5024 14.2166 33.4724C14.339 33.4424 14.443 33.4184 14.5164 33.3945C14.6693 33.3525 14.7978 33.3105 14.8712 33.2685C15.3667 33.0406 16.217 33.1126 16.7125 33.0826H16.8899L16.896 31.9012L17.0306 31.8892C17.3365 31.8592 17.6974 31.8652 18.0522 31.9192V32.0991C17.7708 32.0511 17.471 31.9731 17.1958 32.0091C17.1958 32.1291 17.1958 32.6028 17.1958 32.8487V34.1261C17.8687 34.0661 18.4682 34.378 18.4682 34.378C18.303 35.2116 16.4189 35.8413 14.6877 36.1831H11.525L11.5005 36.6689C11.4149 36.6209 11.1702 36.591 10.8705 36.393C10.5768 36.1951 10.2343 35.6674 10.1731 35.4215C10.1241 35.2356 10.6441 34.9417 10.9683 34.8098V34.8218Z" fill="white"/>
<path d="M29.8035 18.3176C29.8035 18.3176 29.8035 18.2937 29.8035 18.2877C29.7913 18.0897 29.6384 17.9038 29.4977 17.8379C29.3814 17.7779 29.1429 17.8079 28.9104 17.8679C28.9655 17.9338 29.0144 17.9998 29.045 18.0538L29.0756 18.1077L29.1245 18.2097C29.1551 18.2877 29.204 18.4016 29.2958 18.4856H29.7607C29.7852 18.4316 29.8035 18.3776 29.8035 18.3176Z" fill="white"/>
<path d="M28.9838 18.2636L28.9532 18.1976L28.9165 18.1317C28.8737 18.0597 28.8125 17.9517 28.7085 17.8678L28.6657 17.8378C28.5311 17.7718 27.8949 17.6939 27.4789 17.8258C27.5524 17.9038 27.6135 17.9877 27.6563 18.0537L27.6869 18.1137L27.7359 18.2096C27.7665 18.2936 27.8154 18.4015 27.9072 18.4855H29.1061C29.0511 18.4015 29.0144 18.3236 28.9899 18.2636" fill="white"/>
<path d="M27.5829 18.2636L27.5523 18.1916L27.5095 18.1257C27.4606 18.0417 27.3933 17.9218 27.2526 17.8378C27.118 17.7718 26.4818 17.6939 26.0658 17.8258C26.1454 17.9038 26.2065 17.9877 26.2432 18.0537L26.2738 18.1077L26.3228 18.2096C26.3534 18.2876 26.4023 18.4015 26.4941 18.4855H27.693C27.6319 18.4015 27.6013 18.3176 27.5768 18.2636" fill="white"/>
<path d="M26.1882 18.2636L26.1576 18.1976L26.1148 18.1316C26.0658 18.0417 25.9986 17.9277 25.864 17.8438C25.7294 17.7778 25.0932 17.6998 24.6772 17.8318C24.7567 17.9097 24.8179 17.9937 24.8546 18.0597L24.8913 18.1137L24.9403 18.2156C24.9708 18.2936 25.0198 18.4075 25.1115 18.4915H26.3167C26.2555 18.4075 26.2188 18.3296 26.2004 18.2696" fill="white"/>
<path d="M24.7873 18.2636L24.7568 18.1976L24.7139 18.1317C24.665 18.0417 24.5977 17.9278 24.4631 17.8438C24.3224 17.7718 23.6801 17.6999 23.258 17.8318C23.3314 17.9038 23.3865 17.9757 23.4232 18.0297L23.4599 18.0777L23.5088 18.1737C23.5455 18.2636 23.6128 18.3955 23.7596 18.4855H24.9036C24.8424 18.4015 24.8057 18.3236 24.7873 18.2636Z" fill="white"/>
<path d="M23.3742 18.2337L23.3437 18.1677L23.3008 18.1077C23.2519 18.0298 23.1846 17.9218 23.0745 17.8558L23.0317 17.8258C22.8665 17.7539 22.5973 17.8019 22.4322 17.9398C22.3771 17.9818 22.3649 18.0537 22.3649 18.1077V18.1257C22.3649 18.2456 22.4138 18.3776 22.4933 18.4795H23.5333C23.4476 18.3896 23.3987 18.2936 23.3742 18.2277" fill="white"/>
<path d="M27.7848 10.7611C27.5524 10.8451 27.2465 10.7371 27.2465 10.6412C27.2404 10.4613 27.5218 10.3713 27.6502 10.5272C27.6502 10.5272 27.8154 10.1974 27.3933 10.1974C27.3933 10.1974 27.5768 9.9575 27.4055 9.75959C27.1547 9.81357 27.1486 10.1194 27.1486 10.1194C26.8061 9.89153 26.7449 10.2334 26.7449 10.2334C26.9467 10.1914 27.0997 10.4313 27.0202 10.5632C26.9957 10.6052 26.9406 10.6892 26.6348 10.6592C26.5491 10.6532 26.4145 10.6232 26.3044 10.5692L26.1637 10.2993L26.5981 10.4793V9.90952L26.1637 10.0774L26.3595 9.69962H26.2066C26.2983 9.49572 26.4268 9.29181 26.4512 9.23784C26.4757 9.17786 26.5552 9.12989 26.6837 9.17786C26.8122 9.22584 27.7359 9.50771 28.1457 10.1434C28.2008 10.2274 28.0112 10.6832 27.7787 10.7731M25.7845 10.5692C25.6682 10.6232 25.5398 10.6472 25.448 10.6592C25.1421 10.6892 25.0871 10.6052 25.0626 10.5632C24.9831 10.4313 25.136 10.1914 25.3379 10.2334C25.3379 10.2334 25.2767 9.89153 24.9342 10.1194C24.9342 10.1194 24.928 9.81956 24.6772 9.75959C24.5121 9.9515 24.6956 10.1974 24.6956 10.1974C24.2735 10.1974 24.4448 10.5272 24.4448 10.5272C24.5793 10.3713 24.8607 10.4613 24.8485 10.6412C24.8485 10.7431 24.5426 10.8511 24.3102 10.7611C24.0777 10.6712 23.8881 10.2154 23.9431 10.1314C24.353 9.49571 25.2828 9.21385 25.4052 9.16587C25.5336 9.11789 25.6132 9.16587 25.6376 9.22584C25.6621 9.27982 25.7845 9.48372 25.8823 9.68762H25.7294L25.9374 10.0774L25.4847 9.89753V10.4673L25.9374 10.2813L25.7906 10.5632L25.7845 10.5692ZM28.7819 9.92751C27.95 8.94997 26.9162 8.62612 26.231 8.55416L26.127 8.33226L26.3901 8.45221V8.06239L26.127 8.17634L26.2433 7.91846H25.8456L25.9741 8.18233L25.6988 8.06239V8.45221L25.9741 8.32627L25.8701 8.54216C25.185 8.57215 24.145 8.94397 23.3131 9.92751C23.2702 9.97549 23.2335 10.1014 23.2947 10.1674C23.362 10.2394 23.3987 10.2514 23.4599 10.3173C23.5272 10.3773 23.7168 10.7791 23.7596 10.8871C23.7963 10.995 23.8086 11.1569 23.8086 11.1569C23.8086 11.1569 23.7841 11.3608 23.8636 11.4388C23.9248 11.4988 24.0533 11.4928 24.0777 11.5348C24.1022 11.5767 24.0961 11.6307 24.2735 11.5887C24.4509 11.5467 25.1666 11.2769 26.0475 11.2829C26.9284 11.2829 27.6441 11.5467 27.8215 11.5887C27.9989 11.6307 27.9928 11.5767 28.0112 11.5348C28.0356 11.4928 28.1641 11.4988 28.2253 11.4388C28.3048 11.3608 28.2803 11.1569 28.2803 11.1569C28.2803 11.1569 28.2864 11.001 28.3293 10.8871C28.3721 10.7791 28.5617 10.3773 28.629 10.3173C28.6902 10.2514 28.733 10.2394 28.7942 10.1674C28.8553 10.0954 28.8186 9.97549 28.7819 9.92751Z" fill="white"/>
<path d="M27.1241 14.3774H28.3231V16.1166H27.1241V14.3774ZM25.4664 14.3774H26.6653V16.1166H25.4664V14.3774ZM23.8147 14.3774H25.0137V16.1166H23.8147V14.3774ZM23.8147 12.1165H25.0137V13.8677H23.8147V12.1165ZM26.0597 12.1165H26.6715V13.8677H25.4725V12.1165H26.0597ZM28.3231 13.8677H27.1241V12.1165H28.3231V13.8677ZM26.0903 11.6007H22.2119V11.9785C22.2119 11.9785 22.5912 11.9785 22.9277 12.1525C23.1968 12.2964 23.3131 12.5903 23.3498 12.6922V16.9982H23.1173L23.5761 17.7778L24.0349 16.9982H23.8086V16.6204H25.0076V16.9982H24.7751L25.2339 17.7778L25.6927 16.9982H25.4664V16.6204H26.6653V16.9982H26.4329L26.8917 17.7778L27.3505 16.9982H27.1241V16.6204H28.3231V16.9982H28.0968L28.5556 17.7778L29.0144 16.9982H28.7881V12.6802C28.8248 12.5663 28.941 12.2844 29.204 12.1465C29.5405 11.9666 29.9198 11.9725 29.9198 11.9725V11.5947H26.0964L26.0903 11.6007Z" fill="white"/>
<path d="M22.5056 12.1105C22.5056 11.9786 22.6157 11.8706 22.7503 11.8706C22.8848 11.8706 22.995 11.9786 22.995 12.1105C22.995 12.2424 22.8848 12.3504 22.7503 12.3504C22.6157 12.3504 22.5056 12.2424 22.5056 12.1105ZM22.3098 12.1105C22.3098 12.3504 22.5056 12.5423 22.7503 12.5423C22.995 12.5423 23.1907 12.3504 23.1907 12.1105C23.1907 11.8706 22.995 11.6787 22.7503 11.6787C22.5056 11.6787 22.3098 11.8706 22.3098 12.1105Z" fill="white"/>
<path d="M22.5178 12.7282C22.5973 12.7402 22.6646 12.7462 22.7503 12.7582C22.738 12.8662 22.7075 13.0641 22.6952 13.172C22.6157 13.16 22.5484 13.154 22.4689 13.142C22.4811 13.0341 22.5117 12.8422 22.5239 12.7282M22.3343 12.6083L22.2364 13.31L22.8543 13.3939L22.9644 12.5963L22.3404 12.5123L22.3282 12.6083H22.3343Z" fill="white"/>
<path d="M22.4199 13.6219C22.4995 13.6219 22.5667 13.6219 22.6524 13.6279C22.6524 13.7358 22.6463 13.9157 22.6402 14.0237C22.5606 14.0237 22.4872 14.0237 22.4077 14.0177C22.4077 13.9097 22.4199 13.7298 22.4199 13.6219ZM22.2242 13.5259L22.1997 14.2096L22.8237 14.2276L22.8481 13.4419L22.2242 13.424V13.5199V13.5259Z" fill="white"/>
<path d="M22.6096 14.4794C22.6096 14.5934 22.6096 14.7853 22.6096 14.8992H22.3771C22.3771 14.7853 22.3771 14.5934 22.3771 14.4854C22.4628 14.4854 22.5301 14.4854 22.6096 14.4854M22.7075 14.2815H22.1814V15.0851H22.8053V14.2755H22.7075V14.2815Z" fill="white"/>
<path d="M22.3526 15.331C22.4383 15.337 22.4995 15.343 22.5851 15.355C22.5729 15.4629 22.5484 15.6609 22.5423 15.7688C22.4628 15.7628 22.3955 15.7568 22.3098 15.7448C22.3221 15.6369 22.3404 15.439 22.3526 15.331ZM22.1691 15.2111L22.0957 15.9127L22.7197 15.9787L22.8053 15.1811L22.1814 15.1151L22.1691 15.2111Z" fill="white"/>
<path d="M22.2242 16.1946C22.3037 16.2126 22.371 16.2306 22.4505 16.2486C22.4261 16.3565 22.3771 16.5484 22.3526 16.6564C22.2731 16.6384 22.2058 16.6204 22.1263 16.6024C22.1508 16.4944 22.1997 16.3085 22.2242 16.1946ZM22.0529 16.0566L21.8877 16.7463L22.4995 16.8843L22.6891 16.1046L22.0835 15.9607L22.059 16.0566H22.0529Z" fill="white"/>
<path d="M21.9672 17.0283C22.0407 17.0642 22.1018 17.0942 22.1691 17.1362C22.1141 17.2382 22.0223 17.4061 21.9734 17.502C21.9 17.4661 21.8388 17.4361 21.7715 17.3941C21.8204 17.2921 21.9183 17.1242 21.9672 17.0223M21.8388 16.8543L21.5023 17.4781L22.059 17.7659L22.4383 17.0583L21.8877 16.7704L21.8388 16.8543Z" fill="white"/>
<path d="M21.2944 17.9998C21.2944 17.8679 21.4045 17.7599 21.539 17.7599C21.6736 17.7599 21.7837 17.8679 21.7837 17.9998C21.7837 18.1317 21.6736 18.2397 21.539 18.2397C21.4045 18.2397 21.2944 18.1317 21.2944 17.9998ZM21.0925 17.9998C21.0925 18.2397 21.2882 18.4316 21.5329 18.4316C21.7776 18.4316 21.9734 18.2337 21.9734 17.9998C21.9734 17.7659 21.7776 17.568 21.5329 17.568C21.2882 17.568 21.0925 17.7659 21.0925 17.9998Z" fill="white"/>
<path d="M29.412 12.3564C29.2774 12.3564 29.1673 12.2484 29.1673 12.1165C29.1673 11.9846 29.2774 11.8766 29.412 11.8766C29.5466 11.8766 29.6567 11.9846 29.6567 12.1165C29.6567 12.2484 29.5466 12.3564 29.412 12.3564ZM29.412 11.6847C29.1673 11.6847 28.9716 11.8766 28.9716 12.1165C28.9716 12.3564 29.1673 12.5483 29.412 12.5483C29.6567 12.5483 29.8525 12.3564 29.8525 12.1165C29.8525 11.8766 29.6567 11.6847 29.412 11.6847Z" fill="white"/>
<path d="M29.6995 13.142C29.62 13.154 29.5527 13.16 29.4732 13.172C29.461 13.0641 29.4304 12.8722 29.4181 12.7582C29.4977 12.7462 29.565 12.7402 29.6506 12.7282C29.6628 12.8422 29.6934 13.0341 29.7057 13.142M29.8158 12.5123L29.1918 12.5963L29.3019 13.3939L29.9198 13.31L29.828 12.6083L29.8158 12.5123Z" fill="white"/>
<path d="M29.7607 14.0177C29.6751 14.0177 29.6078 14.0177 29.5283 14.0237C29.5283 13.9157 29.5221 13.7358 29.516 13.6279C29.5955 13.6279 29.6628 13.6279 29.7485 13.6219C29.7485 13.7298 29.7607 13.9097 29.7607 14.0177ZM29.9381 13.424L29.3141 13.4419L29.3386 14.2276L29.9626 14.2096L29.9381 13.5259V13.4299V13.424Z" fill="white"/>
<path d="M29.7913 14.4794C29.7913 14.5933 29.7913 14.7853 29.7913 14.8932H29.5588C29.5588 14.7793 29.5588 14.5874 29.5588 14.4734C29.6384 14.4734 29.7057 14.4734 29.7913 14.4734M29.357 14.2815V15.0851H29.9809V14.2815H29.461H29.3631H29.357Z" fill="white"/>
<path d="M29.8586 15.7448C29.7729 15.7568 29.7118 15.7628 29.6261 15.7688C29.6139 15.6609 29.5955 15.4629 29.5772 15.355C29.6628 15.343 29.724 15.337 29.8096 15.331C29.8158 15.439 29.8402 15.6369 29.8525 15.7448M29.9871 15.1151L29.3692 15.1811L29.4548 15.9787L30.0788 15.9127L30.0054 15.2111L29.9932 15.1151H29.9871Z" fill="white"/>
<path d="M30.0421 16.5964C29.9626 16.6144 29.8953 16.6324 29.8158 16.6504C29.7913 16.5424 29.7424 16.3505 29.7118 16.2426C29.7913 16.2246 29.8586 16.2126 29.9381 16.1886C29.9626 16.2965 30.0115 16.4884 30.036 16.5964M30.0849 15.9607L29.4732 16.1046L29.6628 16.8843L30.2684 16.7463L30.1033 16.0566L30.0788 15.9607H30.0849Z" fill="white"/>
<path d="M30.3969 17.4001C30.3235 17.4361 30.2623 17.4661 30.195 17.508C30.14 17.4061 30.0482 17.2382 29.9993 17.1422C30.0727 17.1062 30.1277 17.0762 30.2011 17.0343C30.2562 17.1302 30.348 17.3041 30.3969 17.4061M30.2807 16.7704L29.724 17.0583L30.1094 17.7659L30.6661 17.4781L30.3296 16.8543L30.2868 16.7704H30.2807Z" fill="white"/>
<path d="M30.6294 18.2457C30.4948 18.2457 30.3847 18.1377 30.3847 18.0058C30.3847 17.8739 30.4948 17.7659 30.6294 17.7659C30.7639 17.7659 30.8741 17.8739 30.8741 18.0058C30.8741 18.1377 30.7639 18.2457 30.6294 18.2457ZM30.6294 17.568C30.3847 17.568 30.1889 17.7659 30.1889 17.9998C30.1889 18.2337 30.3847 18.4316 30.6294 18.4316C30.8741 18.4316 31.0698 18.2337 31.0698 17.9998C31.0698 17.7659 30.8741 17.568 30.6294 17.568Z" fill="white"/>
<path d="M24.6466 12.9682C24.6099 12.9981 24.5671 13.0281 24.5365 13.0581C24.4998 13.0881 24.4448 13.1061 24.4142 13.1361C24.3836 13.1661 24.3652 13.22 24.3347 13.256C24.3041 13.292 24.3041 13.346 24.2735 13.382C24.249 13.4239 24.2184 13.4659 24.194 13.5079C24.1695 13.5559 24.1756 13.6039 24.1573 13.6518C24.1573 13.6698 24.145 13.6818 24.145 13.6938H24.8363V12.8542C24.8363 12.8542 24.8057 12.8962 24.7873 12.9082C24.7445 12.9322 24.6895 12.9382 24.6466 12.9622M24.249 14.5694C24.2735 14.6054 24.3347 14.6174 24.3652 14.6534C24.3958 14.6893 24.4264 14.7133 24.4631 14.7493C24.4937 14.7793 24.5182 14.8213 24.5549 14.8513C24.5916 14.8813 24.6283 14.9052 24.6711 14.9352C24.7078 14.9652 24.7262 15.0252 24.7629 15.0492C24.7812 15.0612 24.8118 15.0612 24.8424 15.0672V14.5454H24.249C24.249 14.5454 24.249 14.5634 24.249 14.5694ZM25.6376 15.355H25.6438C25.7049 15.6429 25.711 15.7868 25.656 15.9488H26.2188C26.2188 15.7808 26.28 15.5769 26.4818 15.337H26.4941V14.5454H25.6315V15.355H25.6376ZM26.2433 12.5663C26.1882 12.5663 26.1393 12.5484 26.0903 12.5484C26.0536 12.5484 26.0169 12.5663 25.9741 12.5663C25.9313 12.5663 25.8885 12.5304 25.8456 12.5364C25.8028 12.5364 25.76 12.5783 25.7233 12.5783C25.6988 12.5783 25.6682 12.5783 25.6376 12.5783V13.6998H26.5002V12.5603C26.5002 12.5603 26.4451 12.5184 26.4084 12.5184C26.3595 12.5124 26.2983 12.5723 26.2433 12.5723M27.2954 15.0672C27.3321 15.0492 27.3688 15.0312 27.4055 15.0072C27.4484 14.9832 27.4973 14.9592 27.534 14.9352C27.5707 14.9052 27.6319 14.8992 27.6686 14.8693C27.7053 14.8393 27.7114 14.7733 27.742 14.7433C27.7726 14.7073 27.8093 14.6773 27.8338 14.6414C27.8643 14.6054 27.9255 14.5934 27.95 14.5514H27.2954V15.0732V15.0672ZM28.0356 13.5739C28.0234 13.5379 27.9867 13.5019 27.9683 13.4599C27.95 13.4179 27.8949 13.4059 27.8705 13.37C27.846 13.334 27.8643 13.268 27.8338 13.232C27.8093 13.196 27.7603 13.1721 27.7298 13.1421C27.6992 13.1121 27.6441 13.1001 27.6074 13.0701C27.5707 13.0401 27.534 13.0161 27.4973 12.9921C27.4606 12.9622 27.4239 12.9322 27.3872 12.9082C27.3566 12.8902 27.3321 12.8722 27.3016 12.8542V13.7058H28.0479C28.0417 13.6638 28.0601 13.6158 28.0479 13.5799" fill="white"/>
<path d="M40.4048 38.4861H11.7085V36.459H40.4048V38.4861ZM40.5516 36.1652H11.4027V38.7919H40.7107V36.1652H40.5578H40.5516Z" fill="white"/>
<path d="M25.9374 21.2502L25.6621 21.1422V21.4901L25.9374 21.3761L25.8456 21.55C25.7783 21.586 25.6927 21.598 25.6376 21.604C25.448 21.622 25.4174 21.568 25.3991 21.5441C25.3501 21.4661 25.4419 21.3162 25.5642 21.3461C25.5642 21.3461 25.5275 21.1362 25.3195 21.2742C25.3195 21.2742 25.3195 21.0343 25.1605 20.9983C25.0565 21.1183 25.1727 21.3222 25.1727 21.3222C24.9158 21.3222 25.0198 21.5261 25.0198 21.5261C25.0993 21.4301 25.2767 21.4841 25.2706 21.592C25.2706 21.652 25.081 21.724 24.9403 21.67C24.7935 21.616 24.6772 21.2802 24.7139 21.2262C24.9647 20.8364 25.5336 20.6625 25.6132 20.6325C25.6927 20.6025 25.7416 20.6325 25.76 20.6685C25.7722 20.6985 25.8517 20.8844 25.9068 21.0103H25.815L25.9435 21.2502H25.9374ZM26.0842 21.2442L26.2066 21.0103H26.1148C26.1698 20.8844 26.2494 20.7044 26.2616 20.6685C26.2738 20.6325 26.3228 20.6025 26.4084 20.6325C26.4879 20.6625 27.0569 20.8364 27.3077 21.2262C27.3444 21.2802 27.222 21.616 27.0813 21.67C26.9406 21.724 26.7571 21.658 26.751 21.592C26.751 21.4841 26.9223 21.4301 27.0018 21.5261C27.0018 21.5261 27.1058 21.3222 26.8489 21.3222C26.8489 21.3222 26.959 21.1722 26.8611 21.0523C26.7082 21.0883 26.7021 21.2742 26.7021 21.2742C26.4941 21.1362 26.4574 21.3461 26.4574 21.3461C26.5797 21.3162 26.6776 21.4661 26.6286 21.5441C26.6103 21.568 26.5797 21.622 26.3901 21.604C26.335 21.604 26.2555 21.58 26.1882 21.55L26.1026 21.3821L26.3717 21.4901V21.1422L26.1026 21.2442H26.0842ZM24.3285 21.1003C24.3285 21.1003 24.2796 21.2082 24.3163 21.2502C24.353 21.2922 24.3775 21.3042 24.4203 21.3401C24.457 21.3761 24.5732 22.0418 24.5977 22.1138C24.6222 22.1798 24.6283 22.2757 24.6283 22.2757C24.6283 22.2757 24.6161 22.4016 24.665 22.4496C24.7078 22.4856 24.7812 22.4796 24.7996 22.5036C24.8118 22.5276 24.8118 22.5636 24.9158 22.5396C25.0259 22.5156 25.4664 22.3477 26.0047 22.3477C26.543 22.3477 26.9834 22.5096 27.0874 22.5396C27.1976 22.5636 27.1914 22.5276 27.2037 22.5036C27.2159 22.4796 27.2954 22.4856 27.3383 22.4496C27.3872 22.4016 27.3688 22.2757 27.3688 22.2757C27.3688 22.2757 27.3688 22.1798 27.3994 22.1138C27.4239 22.0478 27.5401 21.3821 27.5829 21.3401C27.6258 21.3042 27.6502 21.2922 27.6869 21.2502C27.7298 21.2082 27.7053 21.1302 27.6747 21.1003C27.1609 20.5005 26.5308 20.3026 26.1087 20.2547L26.0414 20.1167L26.2066 20.1887V19.9488L26.0414 20.0208L26.1148 19.8588H25.8701L25.9496 20.0208L25.7845 19.9488V20.1887L25.9496 20.1107L25.8885 20.2427C25.4664 20.2607 24.8302 20.4945 24.3163 21.0943M27.6319 32.4169C27.9377 32.1351 27.9439 31.9552 27.9439 31.9552C27.8338 31.8472 27.4361 31.7872 27.4361 31.7872C27.5462 31.9911 27.2893 32.1531 27.2893 32.1531C27.6197 32.1711 27.638 32.4169 27.638 32.4169M24.2674 31.9312C24.2918 32.0811 24.5793 32.363 24.5793 32.363C24.6099 32.1291 24.9158 32.1531 24.9158 32.1531C24.6589 31.9492 24.7935 31.7393 24.7935 31.7393C24.3775 31.7872 24.2674 31.9312 24.2674 31.9312ZM26.1026 31.3075C26.2188 31.0016 26.4696 31.0616 26.4696 31.0616C26.2922 30.6897 26.1148 30.6298 26.1148 30.6298C25.9741 30.6957 25.7906 31.0556 25.7906 31.0556C26.0292 31.0136 26.0964 31.3075 26.0964 31.3075M24.928 33.5024C24.8485 33.9042 24.9525 34.0542 24.9525 34.0542C25.1054 34.0782 25.4664 33.8982 25.4664 33.8982C25.2523 33.7963 25.3624 33.5144 25.3624 33.5144C25.0871 33.6943 24.9219 33.5024 24.9219 33.5024M31.3206 24.1048C31.394 24.0809 31.4797 24.0029 31.4919 23.9669C31.5041 23.9309 31.5103 23.823 31.4797 23.751C31.29 23.2952 30.6722 23.2892 30.6722 23.2892C30.5927 23.1633 30.4275 23.2293 30.4275 23.2293C29.9381 22.7495 29.3386 22.6415 29.3386 22.6415C29.1857 22.4436 28.9838 22.5516 28.9838 22.5516C28.5556 22.3657 28.1213 22.1738 27.6869 21.9878C27.6686 22.0658 27.6441 22.1738 27.6441 22.1738C27.638 22.2037 27.6319 22.2277 27.6258 22.2517C27.6258 22.2697 27.6258 22.3117 27.6258 22.3117C27.6258 22.3897 27.6135 22.4856 27.5524 22.5756C27.95 22.7435 28.3476 22.9174 28.733 23.0913C28.733 23.0913 28.7819 23.3072 29.0389 23.2892C29.0389 23.2892 29.5221 23.6491 30.2073 23.685C30.2073 23.685 30.2684 23.853 30.4153 23.823C30.4153 23.823 30.8312 24.2668 31.3023 24.0989M35.2173 34.1621V31.9132L35.0705 31.9012C34.4282 31.8352 33.5596 31.9192 32.9906 32.315L32.9601 32.303C32.5319 32.183 32.0547 32.1051 31.3512 31.9252C31.3329 31.9192 31.1555 31.8652 31.0392 31.8292C31.7366 30.9416 32.2688 29.8501 32.4401 28.5188H32.1709C31.6204 32.6568 27.3933 34.414 26.1576 34.6839C24.9036 34.408 20.597 32.6268 20.1015 28.4168L19.8323 28.3988C19.9914 29.8382 20.5786 31.0076 21.3433 31.9372C20.7254 32.0271 19.8996 32.207 19.5999 32.273C19.4836 32.303 19.3858 32.333 19.294 32.369C19.2818 32.369 19.2634 32.381 19.2512 32.381C18.7496 31.8652 17.7586 31.7033 17.0245 31.8112L16.896 31.8292V33.0886C16.3577 33.1066 15.8499 33.0946 15.6297 33.1126C15.4217 33.1306 15.0731 33.2745 14.7488 33.4185C14.8834 33.4904 15.0853 33.5384 15.2627 33.5384L16.3944 33.5564C16.6391 33.5804 16.7553 33.8443 16.7737 34.0842C16.7737 34.0842 16.792 34.2521 16.8042 34.414C16.8838 34.5699 16.9205 34.7318 16.9205 34.8278C16.9205 34.8758 16.9205 34.9058 16.9205 34.9178L16.792 35.2776L16.5045 34.9537C16.4678 34.9058 16.2353 34.8278 15.9968 34.8518C15.8194 34.8698 15.4829 35.0437 15.2688 35.1696C15.1954 35.3975 15.0119 35.6254 14.9691 35.6794L14.6999 35.9853L14.5164 35.3076C14.4736 35.1457 14.3512 35.0737 14.0148 34.8818L13.9536 34.8458C13.7272 34.7139 13.556 34.7199 13.3602 34.7318H13.1277C12.987 34.7199 12.8402 34.8218 12.7974 34.8638L12.5894 35.0497L12.461 34.8038C12.3509 34.5939 12.3876 34.33 12.62 34.2281C12.8035 34.1441 13.0176 33.7903 13.1583 33.7543C12.6751 33.8743 12.3203 34.1501 12.3019 34.1681C12.0756 34.336 11.7636 34.5339 11.3048 34.6959C10.846 34.8578 10.1547 35.2116 10.1853 35.4335C10.2159 35.6554 10.7175 36.477 11.3109 36.633C11.3843 36.6509 11.4516 36.6689 11.5128 36.6809V36.1952H14.6999C16.4311 35.8533 18.3152 35.2236 18.4804 34.39C18.4804 34.39 17.887 34.0782 17.208 34.1381V33.0526C17.208 33.0526 17.208 33.0526 17.2019 33.0526C17.2019 33.0526 17.2019 32.1051 17.208 32.1051C17.783 32.1051 18.5049 32.1651 18.9208 32.4949C18.927 32.5009 18.9392 32.5069 18.9453 32.5189C18.9942 32.5789 19.1961 32.8187 19.1961 32.9747V36.0152C19.1961 36.0152 19.1594 36.0932 19.086 36.2012H21.2087H32.8989V36.1892L32.9478 36.2072H33.0396C32.9662 36.0992 32.9295 36.0212 32.9295 36.0212V32.9807C32.9295 32.8907 33.0029 32.7648 33.0702 32.6628C33.4862 32.285 34.2569 32.1591 34.9176 32.201C34.9176 32.321 34.9176 32.6208 34.9176 32.8667V34.1441L35.2296 34.1681L35.2173 34.1621ZM27.8827 20.9323L27.901 20.9863C29.461 20.2247 30.8251 19.559 30.9475 19.499C31.2472 19.3611 31.4246 19.0372 31.4246 19.0372C31.4246 19.0372 31.0576 18.9713 30.7578 19.1092C30.6294 19.1692 29.1429 19.8229 27.4851 20.5605C27.6258 20.6745 27.7604 20.7884 27.8827 20.9323ZM22.0957 19.7809C21.9917 19.7689 21.9367 19.589 22.0468 19.511C22.0468 19.511 21.8388 19.3851 21.8082 19.6549C21.8082 19.6549 21.6553 19.523 21.5207 19.619C21.539 19.7809 21.7409 19.8049 21.7409 19.8049C21.5574 20.0028 21.7899 20.0747 21.7899 20.0747C21.7715 19.9428 21.9428 19.8708 22.0223 19.9308C22.1018 19.9908 22.0468 20.1707 21.9489 20.2607C21.8388 20.3686 21.6675 20.3866 21.5452 20.3326C21.3188 20.2367 21.2577 19.8948 21.4045 19.577C21.5513 19.2531 21.851 19.0732 22.0713 19.1752C22.1875 19.2291 22.2792 19.3731 22.2854 19.511C22.2915 19.6429 22.1875 19.7989 22.0896 19.7809M23.5883 20.0747C23.5516 19.9188 23.4048 20.0088 23.4048 20.0088C23.2091 19.7449 22.8543 19.6549 22.8543 19.6549C22.8176 19.595 22.7258 19.535 22.6463 19.493C22.6096 19.2231 22.4566 18.9893 22.2181 18.8873C21.8571 18.7314 21.4167 18.9053 21.172 19.2831C21.1475 19.2531 21.117 19.2291 21.0741 19.2052C20.9579 19.1512 20.8233 19.1932 20.7744 19.2951C20.7316 19.3971 20.7866 19.523 20.9028 19.571C20.9457 19.589 20.9885 19.595 21.0252 19.589C20.9028 20.0208 21.0619 20.4586 21.4289 20.6145C21.6736 20.7224 21.9489 20.6745 22.1752 20.5185C22.2609 20.5485 22.371 20.5785 22.4383 20.5605C22.4383 20.5605 22.7442 20.7584 23.0745 20.7224C23.0745 20.7224 23.099 20.8904 23.2458 20.8124C23.2458 20.8124 23.4599 21.0883 23.7902 20.9983C23.7902 20.9983 23.8942 21.0403 24.0655 21.1123C24.0961 21.0343 24.1328 20.9263 24.1328 20.9263C24.2612 20.7764 24.3958 20.6445 24.5304 20.5365C24.2551 20.4106 24.09 20.3266 24.09 20.3266C23.937 20.0328 23.5883 20.0568 23.5883 20.0568M21.1659 24.0689C21.2515 24.0329 21.3127 23.9729 21.3433 23.9069C21.4167 23.9189 21.5146 23.9189 21.6186 23.8949C21.7409 23.871 22.6035 23.4991 23.0133 23.3252C23.0133 23.3252 23.0133 23.3252 23.0133 23.3312C23.1907 23.5891 23.466 23.9249 23.6985 24.0509C24.041 24.2428 24.1878 24.1828 24.2551 24.0689C24.3224 23.9549 24.2184 23.757 23.9493 23.6251C23.7841 23.5411 23.5761 23.3612 23.4232 23.1813C23.6434 23.0733 24.0594 22.8754 24.5243 22.6475C24.5059 22.6355 24.4937 22.6295 24.4876 22.6235C24.4692 22.6116 24.4631 22.5936 24.457 22.5696C24.4019 22.4796 24.3775 22.3837 24.3775 22.3237C24.3775 22.3237 24.3775 22.3057 24.3775 22.2877C24.3775 22.2637 24.3591 22.1798 24.3591 22.1798C24.3591 22.1798 24.3408 22.0898 24.3102 21.9699C23.8025 22.1977 23.3437 22.4016 23.1051 22.5036C23.0623 22.2697 23.05 22.0058 23.0867 21.8259C23.154 21.5381 23.0623 21.3342 22.9277 21.3102C22.7992 21.2922 22.6524 21.3641 22.5851 21.742C22.5423 21.9998 22.634 22.4136 22.7258 22.7195C22.3282 22.9174 21.484 23.3492 21.3861 23.4272C21.3066 23.4931 21.2393 23.5651 21.2026 23.6311C21.1292 23.6131 21.0497 23.6191 20.964 23.6611C20.805 23.733 20.7254 23.883 20.7805 23.9909C20.8356 24.1048 21.0068 24.1348 21.1598 24.0629M26.3717 32.8967C26.1637 33.0466 25.8701 32.9987 25.7233 32.7888C25.5704 32.5849 25.6254 32.297 25.8334 32.1471C26.0414 32.0031 26.335 32.0511 26.4879 32.255C26.6348 32.4589 26.5858 32.7468 26.3778 32.8907M27.4361 32.3869C27.3566 32.273 27.0385 32.387 26.9529 32.4349L26.7693 32.4589L26.6592 32.357C26.6409 32.309 26.6409 32.261 26.6715 32.219C26.7021 32.1651 26.7693 32.1291 26.8428 32.1231C26.9406 32.1171 27.2648 32.0271 27.2648 31.8892C27.2648 31.7692 27.1425 31.5533 26.9345 31.4094C26.7265 31.2655 26.4818 31.2055 26.3717 31.2415C26.2371 31.2835 26.2494 31.6073 26.2677 31.7093C26.2861 31.7812 26.2677 31.8532 26.2249 31.9012C26.1882 31.9372 26.1454 31.9552 26.0903 31.9552L25.9557 31.8832L25.9313 31.7153C25.9557 31.6193 25.968 31.2895 25.8334 31.2475C25.7233 31.2115 25.4725 31.2595 25.2706 31.4034C25.0626 31.5533 24.9342 31.7632 24.9342 31.8772C24.9342 32.0151 25.2584 32.1111 25.3562 32.1171L25.5153 32.201L25.5398 32.345C25.5275 32.3929 25.4969 32.4349 25.448 32.4529C25.3868 32.4769 25.3134 32.4709 25.2523 32.4289C25.1666 32.375 24.8546 32.261 24.769 32.375C24.6956 32.4709 24.6711 32.7168 24.7506 32.9507C24.8302 33.1906 24.9953 33.3765 25.1054 33.4125C25.24 33.4544 25.4297 33.1846 25.4664 33.0946C25.4969 33.0227 25.552 32.9747 25.6193 32.9627C25.6682 32.9507 25.7172 32.9627 25.7539 32.9987L25.8212 33.1366L25.7416 33.2865C25.6805 33.3405 25.5214 33.5324 25.5214 33.6584C25.5214 33.6823 25.5214 33.7063 25.5398 33.7243C25.6071 33.8203 25.8395 33.9222 26.0903 33.9222C26.3473 33.9222 26.5797 33.8263 26.647 33.7363C26.6592 33.7183 26.6654 33.6943 26.6654 33.6703C26.6654 33.5444 26.5124 33.3525 26.4512 33.2985L26.3717 33.1366L26.439 33.0047C26.4818 32.9687 26.5308 32.9567 26.5797 32.9687C26.6409 32.9807 26.6959 33.0286 26.7265 33.1006C26.7632 33.1906 26.9529 33.4664 27.0874 33.4245C27.2037 33.3885 27.375 33.2026 27.4484 32.9687C27.5279 32.7288 27.5034 32.4829 27.4361 32.3929M27.3138 29.4903V28.8906H27.6992C27.8643 29.1065 27.9806 29.3224 28.0479 29.4903H27.3138ZM27.3138 28.5008C27.375 28.5488 27.4361 28.6027 27.4912 28.6567H27.3138V28.5008ZM27.0691 28.6567H26.2983V28.075C26.5981 28.117 26.8489 28.2129 27.0691 28.3389V28.6567ZM27.0691 29.4903H26.2983V28.8906H27.0691V29.4903ZM26.0597 28.6567H25.2951V28.3868C25.5031 28.2489 25.76 28.1469 26.0597 28.093V28.6567ZM26.0597 29.4903H25.2951V28.8906H26.0597V29.4903ZM25.0504 28.6567H24.9464C24.977 28.6267 25.0137 28.5967 25.0504 28.5667V28.6567ZM25.0504 29.4903H24.3836C24.4509 29.3284 24.5671 29.1125 24.7384 28.8906H25.0504V29.4903ZM30.9475 30.8457V29.7902C30.9475 29.7902 30.9597 29.7122 31.0576 29.7002C31.0576 29.7002 31.0576 29.6942 31.0576 29.6882C31.0576 29.6642 31.0515 29.6342 31.0331 29.6043C30.8924 29.3404 30.7762 28.9506 30.7701 28.9206L30.6477 26.6177C30.6477 26.4078 30.8496 26.1319 30.8863 26.0779V25.4182C30.8863 25.4182 30.8496 25.3822 30.8374 25.3762H30.6355C30.5988 25.3762 30.5865 25.4002 30.5865 25.3882V25.4422L30.556 25.4602L30.4642 25.4422L30.4336 25.4302C30.4336 25.4302 30.4336 25.3643 30.4091 25.3583L30.1767 25.3703V25.6521H29.8464V25.3523H29.5894V25.4182L29.5588 25.4302L29.4671 25.4482L29.4304 25.4302V25.3942C29.4304 25.3942 29.4181 25.3643 29.3814 25.3643H29.204C29.1734 25.3703 29.1367 25.3942 29.1367 25.4062V26.0659C29.1612 26.0959 29.3264 26.3658 29.3264 26.3658H29.045C29.045 26.3658 28.9532 26.3658 28.941 26.3838V26.6716H28.4455V26.3778H28.0295H27.9867V26.6716H27.4912V26.6117V25.5502C27.4912 25.3703 27.6564 24.9864 27.6564 24.9924V24.2908C27.6564 24.2008 27.5585 24.1708 27.5646 24.1708H27.1303C27.063 24.1708 27.0507 24.2128 27.0507 24.2368V24.4647H26.8978V24.1648C26.8978 24.1228 26.8611 24.1168 26.8428 24.1108L26.4635 24.1348V24.4647H25.9619V24.3987L25.9374 24.1048H25.5826C25.5826 24.1048 25.5275 24.1168 25.5275 24.1588V24.4587H25.3746V24.2308C25.3746 24.2308 25.3624 24.1648 25.289 24.1648H24.8669C24.8669 24.1648 24.7629 24.1948 24.7629 24.2848V24.9624C24.7629 24.9624 24.9219 25.3643 24.928 25.5442V26.6656H24.4325V26.3778L24.3897 26.3718L23.9799 26.3838V26.6656H23.4782V26.3658H23.2091H23.0928C23.0928 26.3658 23.2641 26.1019 23.2825 26.0659V25.4062C23.2825 25.4062 23.2458 25.3703 23.2335 25.3643H23.0317C22.995 25.3643 22.9827 25.3882 22.9827 25.3762V25.4302L22.9521 25.4482L22.8604 25.4302L22.8298 25.4182C22.8298 25.4182 22.8298 25.3523 22.8053 25.3463L22.5729 25.3583V25.6401H22.2425V25.3403H21.9856V25.4062L21.955 25.4182L21.8633 25.4362L21.8327 25.4182V25.3822C21.8327 25.3822 21.8204 25.3523 21.7837 25.3523H21.6002C21.6002 25.3523 21.5329 25.3822 21.5329 25.3942V26.0539C21.5696 26.1079 21.7715 26.3838 21.7715 26.5937C21.7715 26.5937 21.6492 28.8966 21.643 28.9086C21.6369 28.9206 21.5268 29.3164 21.38 29.5743C21.3616 29.6163 21.3555 29.6642 21.3555 29.6762C21.4595 29.6942 21.4718 29.7422 21.4718 29.7662V30.8217H23.3375V30.5098H24.2674C24.2674 30.4019 24.2796 29.7242 24.2796 29.7242C24.2796 29.7242 24.2796 29.7182 24.2796 29.7122H25.032V29.9221H24.9097L25.1544 30.3299L25.3991 29.9221H25.2767V29.7122H26.0414V29.9221H25.919L26.1637 30.3299L26.4023 29.9221H26.2861V29.7122H27.0569V29.9221H26.9345L27.1792 30.3299L27.4239 29.9221H27.3016V29.7122H28.1213L28.1274 29.7422C28.1274 29.7422 28.1335 30.4079 28.1396 30.5158H29.0695V30.8277H30.9352L30.9475 30.8457ZM19.8078 23.4392H20.077V22.9474C20.077 20.6325 20.0648 18.9653 20.0648 18.5095H32.2382C32.2382 18.9653 32.226 20.6325 32.226 22.9474V23.4751H32.489C32.489 20.4526 32.5013 18.4075 32.5013 18.3775V18.2456H32.3667H19.7956V18.3775C19.7956 18.3775 19.8078 20.4226 19.8078 23.4392ZM26.6837 33.9222C27.0507 34.1201 27.2281 34.0662 27.2281 34.0662C27.2954 33.9342 27.2343 33.5384 27.2343 33.5384C27.063 33.7063 26.8305 33.5144 26.8305 33.5144C26.9162 33.8263 26.6837 33.9222 26.6837 33.9222Z" fill="white"/>
<path d="M26.0108 46.5283C14.4491 46.5283 5.07125 37.3347 5.07125 26C5.07125 14.6653 14.443 5.47166 26.0108 5.47166C37.5786 5.47166 46.9503 14.6593 46.9503 26C46.9503 37.3407 37.5725 46.5283 26.0108 46.5283ZM26.0108 0.5C11.6474 0.5 0 11.9186 0 26C0 40.0814 11.6474 51.5 26.0108 51.5C40.3742 51.5 52.0216 40.0814 52.0216 26C52.0216 11.9186 40.3742 0.5 26.0108 0.5Z" fill="white"/>
<path d="M38.0313 18.8933L37.4379 19.1632L37.0036 19.3371L36.2389 19.649C36.3001 19.4391 36.2818 19.2892 36.2818 19.2892C36.2818 19.2892 36.0432 19.4271 35.823 19.1812C35.6027 18.9293 35.8046 18.5275 36.1716 18.1857C36.5326 17.8438 36.9608 17.8019 37.4869 17.9818C37.8355 18.1077 38.0925 18.4136 38.276 18.7614C38.2026 18.8034 38.1231 18.8454 38.0435 18.8933" fill="white"/>
<path d="M31.7978 24.8305C31.6081 24.8485 31.498 25.1543 31.498 25.1543C31.5592 25.0944 31.6387 25.0764 31.7672 25.1064C31.8956 25.1364 32.0853 25.6161 32.2076 25.928C32.3361 26.2398 32.1465 27.7271 32.1281 27.913C32.1159 28.099 31.9568 28.2369 31.9568 28.2369C32.8438 28.3149 32.7031 27.6312 32.6848 27.4573C32.6664 27.2893 32.8928 27.2893 33.0335 27.6132C33.1742 27.937 33.6391 28.6087 33.6391 28.6087C33.3821 28.7167 33.4617 29.1365 33.4617 29.1365C33.7186 29.0585 34.2202 29.3704 34.7585 29.7122C35.15 29.9581 35.6639 30.054 36.2634 30.042C36.5876 30.8337 37.1565 31.4814 37.2483 31.5773C37.3767 31.7033 37.4685 32.0271 37.4685 32.0271C37.4807 31.9971 37.5419 31.9551 37.6214 31.9611C37.6643 31.9611 37.7193 31.9791 37.7744 32.0271C37.9151 32.1531 37.9946 33.2685 37.8845 33.5624C37.7744 33.8563 37.285 33.9462 37.0281 33.9462C36.7711 33.9462 36.0738 33.9462 35.9208 33.9642C35.7618 33.9822 35.7312 34.306 35.7312 34.306C35.8413 34.1981 36.0187 34.336 36.0187 34.336C36.0187 34.336 35.8597 34.462 35.7618 34.5519C35.5477 34.7618 35.5905 35.0977 35.5905 35.0977C35.6211 34.9297 36.0004 34.8218 36.3185 34.8518C36.6366 34.8818 37.2055 35.2356 37.2055 35.2356C37.2177 35.4395 37.4869 35.7454 37.4869 35.7454C37.4869 35.7454 37.5174 35.6194 37.5664 35.4515C37.6398 35.1876 37.8539 35.0797 38.2332 34.8638C38.6124 34.6479 38.8816 34.7378 39.1508 34.7258C39.4199 34.7138 39.6402 34.9118 39.6402 34.9118C39.6707 34.8518 39.7197 34.7258 39.5484 34.5999C39.2731 34.402 38.692 33.9342 38.6308 33.6224C38.5696 33.3105 38.4412 32.195 38.5023 32.0091C38.5146 31.9731 38.5268 31.9372 38.5452 31.8892C38.6124 31.6793 38.7103 31.3794 38.7103 31.1995C38.7103 31.0376 38.6859 30.8817 38.747 30.5998C37.8294 29.5623 36.6733 28.111 36.4347 27.2654C36.2695 27.1154 35.3703 26.2518 35.3703 24.8545C35.3703 24.5846 35.407 24.3027 35.4804 23.9969C35.5049 23.9189 35.5844 23.8709 35.6639 23.8889C35.7312 23.9069 35.7801 23.9669 35.7801 24.0329C35.7801 24.0449 35.7801 24.0569 35.7801 24.0689C35.7067 24.3507 35.6761 24.6206 35.6761 24.8665C35.6761 26.2338 36.6182 27.0255 36.6671 27.0674L36.7038 27.0974L36.7161 27.1454C36.9975 28.3089 39.53 31.0556 40.0072 31.5233C40.0439 31.4154 40.0806 31.2175 40.1173 31.0196L40.1295 30.9476C40.625 28.3748 41.5059 26.3298 41.7751 25.814L41.977 25.4662C42.2584 24.9924 42.5765 24.4587 42.5765 23.5891C42.5765 23.5171 42.5765 23.4392 42.5703 23.3612C42.5153 22.4136 41.9892 21.3461 40.9737 20.0747C40.3865 19.3431 39.8053 19.475 39.3832 19.571C38.9917 19.6609 38.5084 19.8648 38.2393 20.0627C37.6826 20.4586 37.8661 21.3401 37.8906 21.4361C37.9518 21.694 38.2821 21.8259 38.2882 21.8259L38.5207 21.9159L38.3372 22.0778C38.3372 22.0778 38.2271 22.1737 38.1353 22.3597C38.0497 22.5276 38.068 22.6715 38.068 22.6715L38.1231 23.0493L37.8172 22.8154C37.597 22.6415 36.8629 22.6175 36.3796 22.5995L36.0493 22.5876C35.9637 22.5876 35.9025 22.5156 35.9025 22.4316C35.9025 22.3477 35.982 22.2877 36.0676 22.2877L36.3919 22.2997C36.973 22.3177 37.4502 22.3477 37.7744 22.4676C37.7866 22.3956 37.8111 22.3177 37.8539 22.2337C37.9028 22.1378 37.9518 22.0778 37.9946 22.0178C37.8417 21.9279 37.6459 21.7659 37.5909 21.5081C37.5725 21.4301 37.5358 21.2382 37.5358 20.9983C37.5358 20.6205 37.6337 20.1287 38.0619 19.8229C38.3678 19.601 38.8877 19.3791 39.3159 19.2831C39.6218 19.2111 40.0745 19.1092 40.5577 19.3431C40.7902 18.8153 41.3163 17.9517 40.9003 16.8303C40.4415 15.6068 39.371 15.313 38.6797 15.265C37.9824 15.217 37.2055 15.4689 36.7711 15.6428C36.3368 15.8167 35.615 16.2725 35.358 16.4045C35.1011 16.5304 34.4527 16.7163 34.0612 17.2261C33.5045 17.9457 33.6452 18.4675 33.6452 18.4675C33.6452 18.4675 33.6452 18.4735 33.6452 18.4855C33.633 18.5455 33.5779 18.7494 33.5351 18.8633C33.48 18.9952 33.3271 19.463 33.2537 19.577C33.1803 19.6909 33.1375 19.8408 33.1375 20.0028C33.1375 20.1647 33.2047 20.3386 33.2659 20.2966C33.2843 20.2786 33.3271 20.2367 33.376 20.1827C33.3699 20.1947 33.3638 20.2007 33.3577 20.2127L33.4189 20.1347C33.4984 20.0448 33.5901 19.9368 33.6635 19.8888C33.7981 19.7989 34.3059 19.4031 34.5689 18.9593C34.5689 18.9593 35.199 18.8273 35.4804 18.4795C35.7618 18.1317 35.9759 17.6759 36.2389 17.37C36.502 17.0642 37.2483 16.3385 38.38 16.3925C39.5117 16.4404 39.8176 17.2441 39.738 17.5859C39.6707 17.8858 39.4933 18.4075 38.4106 18.9653C38.2332 19.0552 38.0313 19.1512 37.7988 19.2411C37.077 19.529 36.5142 19.7509 36.0799 19.9308C35.5232 20.1647 35.1745 20.3326 34.9726 20.4885C34.6056 20.7644 33.2965 21.7 33.0946 23.0613C32.8928 24.4287 33.2782 25.0404 33.48 25.5981C33.584 25.88 33.7369 26.2039 33.8838 26.4917C33.9388 26.8875 34.0306 27.1574 34.0428 27.3973C34.0551 27.4273 34.0551 27.4753 34.0428 27.5592C34.0306 27.6252 34.0122 27.6732 33.9878 27.7211C33.9082 27.7991 33.7798 27.6852 33.6941 27.5892C33.584 27.4633 33.217 26.8755 33.0946 26.4377C32.9662 26.0059 32.905 25.6161 32.9233 25.3043C32.9356 24.9924 32.9723 24.6506 32.9723 24.6506C32.9111 24.6506 32.7826 24.4827 32.7826 24.4827C32.7826 24.3447 32.7031 24.1108 32.5624 23.9069C32.4217 23.709 32.0241 23.9069 32.0241 23.9069C32.1709 23.9249 32.1526 24.0509 32.2443 24.2188C32.3422 24.3927 32.2933 24.8245 32.2933 24.8245C32.226 24.7645 32.0241 24.7945 31.8345 24.8065M42.7355 27.7631C42.2278 27.2414 42.032 26.6896 41.9647 26.1259C41.5977 26.8995 40.8575 28.8126 40.4415 30.9656C40.882 30.9776 41.3958 30.9656 41.3958 30.9656C41.3958 30.9656 41.5304 31.9372 41.8485 32.309C42.0871 32.5908 42.4052 32.6688 42.7294 32.5669C43.0536 32.4649 43.4145 31.8352 43.2983 31.1815C43.1943 30.6118 42.7049 29.8381 42.3318 29.3824C43.0781 29.4423 43.855 29.2984 43.9651 29.2024C44.0752 29.1065 43.855 28.9386 43.855 28.9386C43.7143 28.7287 43.4206 28.4528 42.7477 27.7631" fill="white"/>
<path d="M33.6024 26.5458C33.48 26.3239 33.321 25.988 33.2109 25.7002C33.1925 25.6462 33.1681 25.5862 33.1436 25.5262C33.1558 25.7721 33.2109 26.066 33.3088 26.3898C33.3944 26.6777 33.6024 27.0555 33.7431 27.2774C33.7308 27.2055 33.7125 27.1275 33.6941 27.0375C33.6636 26.8936 33.633 26.7317 33.6024 26.5458Z" fill="white"/>
<path d="M39.6891 34.402C39.9154 34.564 39.9766 34.7979 39.8604 35.0257L39.7074 35.3256L39.4566 35.0977C39.4199 35.0677 39.2915 34.9778 39.1691 34.9778H39.0712L38.7776 34.9718C38.6553 34.9718 38.5207 34.9838 38.3494 35.0857C37.9579 35.3076 37.8417 35.3796 37.7988 35.5235L37.7193 35.8114L37.6214 36.1952H40.57V36.9209C40.6556 36.8729 40.729 36.8249 40.7841 36.7769C41.1878 36.573 41.5182 36.0333 41.5977 35.7934C41.6956 35.4875 41.3652 35.1817 41.1022 34.9538C40.8391 34.7259 40.3804 34.504 40.1173 34.2161C40.0194 34.1082 39.6585 33.9822 39.2181 33.8503C39.2058 33.8503 39.1936 33.8383 39.1875 33.8383C39.1385 33.8203 39.0651 33.7963 38.9856 33.7723C39.1324 33.9523 39.3893 34.1921 39.683 34.402H39.6891Z" fill="white"/>
<path d="M36.973 35.3975C36.7528 35.2716 36.4408 35.1157 36.2879 35.1037H36.2573C35.9942 35.1037 35.8474 35.1576 35.8168 35.1876L35.3336 35.1276C35.3336 35.0917 35.303 34.8398 35.4253 34.5939L35.4743 34.288C35.4987 34.0302 35.6211 33.7423 35.8902 33.7183C36.0493 33.7003 36.765 33.7003 37.0219 33.7003C37.2666 33.7003 37.5908 33.6044 37.6337 33.4784C37.6337 33.4664 37.6337 33.4364 37.6459 33.4184C37.6337 33.4184 37.6031 33.4065 37.5908 33.4065C37.4379 33.3645 37.3095 33.3225 37.236 33.2805C36.7405 33.0526 35.8535 33.0226 35.3641 32.9927L35.2235 32.9507V31.9132L35.0766 31.9012C34.7096 31.8652 34.2692 31.8832 33.8532 31.9731V32.249C34.1896 32.165 34.5628 32.171 34.9115 32.195C34.9115 32.315 34.9115 32.6148 34.9115 32.8607V34.1381C34.2386 34.0781 33.6391 34.39 33.6391 34.39C33.8042 35.2236 35.6884 35.8533 37.4196 36.1951H37.5419L37.2972 35.9133C37.236 35.8413 37.0525 35.6194 36.9791 35.3975H36.973Z" fill="white"/>
<path d="M12.3753 37.2628V37.5026H12.7668V37.6706H12.3753V38.0004H12.1796V37.1008H12.8158V37.2688H12.3753V37.2628Z" fill="white"/>
<path d="M13.1155 37.9464C13.0482 37.9044 12.9932 37.8504 12.9503 37.7785C12.9075 37.7065 12.8892 37.6285 12.8892 37.5386C12.8892 37.4486 12.9075 37.3707 12.9503 37.2987C12.987 37.2267 13.0482 37.1728 13.1155 37.1308C13.1828 37.0888 13.2623 37.0708 13.3541 37.0708C13.4458 37.0708 13.5192 37.0888 13.5927 37.1308C13.6599 37.1728 13.715 37.2267 13.7578 37.2987C13.8006 37.3707 13.819 37.4486 13.819 37.5386C13.819 37.6285 13.8006 37.7065 13.7578 37.7785C13.715 37.8504 13.6599 37.9044 13.5927 37.9464C13.5254 37.9884 13.4458 38.0064 13.3541 38.0064C13.2623 38.0064 13.1889 37.9884 13.1155 37.9464ZM13.4887 37.7965C13.5315 37.7725 13.5621 37.7365 13.5804 37.6945C13.6049 37.6525 13.6171 37.5986 13.6171 37.5446C13.6171 37.4906 13.6049 37.4366 13.5804 37.3946C13.5559 37.3527 13.5254 37.3167 13.4887 37.2927C13.4458 37.2687 13.403 37.2567 13.3541 37.2567C13.3051 37.2567 13.2562 37.2687 13.2195 37.2927C13.1767 37.3167 13.1461 37.3527 13.1277 37.3946C13.1033 37.4366 13.091 37.4906 13.091 37.5446C13.091 37.5986 13.1033 37.6525 13.1277 37.6945C13.1522 37.7365 13.1828 37.7725 13.2195 37.7965C13.2623 37.8204 13.3051 37.8324 13.3541 37.8324C13.403 37.8324 13.452 37.8204 13.4887 37.7965Z" fill="white"/>
<path d="M14.498 37.9943L14.3329 37.7424H14.1555V37.9943H13.9597V37.0947H14.3267C14.4001 37.0947 14.4674 37.1067 14.5225 37.1367C14.5775 37.1607 14.6204 37.2027 14.651 37.2507C14.6815 37.2986 14.6938 37.3586 14.6938 37.4246C14.6938 37.4905 14.6815 37.5505 14.651 37.5985C14.6204 37.6465 14.5775 37.6824 14.5225 37.7124L14.7121 38.0003H14.5041L14.498 37.9943ZM14.4491 37.3046C14.4491 37.3046 14.3757 37.2626 14.3145 37.2626H14.1555V37.5745H14.3145C14.3757 37.5745 14.4185 37.5625 14.4491 37.5325C14.4797 37.5025 14.4919 37.4666 14.4919 37.4186C14.4919 37.3706 14.4736 37.3286 14.4491 37.3046Z" fill="white"/>
<path d="M15.4829 37.2626H15.2137V37.0947H15.9478V37.2626H15.6787V37.9943H15.4829V37.2626Z" fill="white"/>
<path d="M16.8287 37.0947V37.9943H16.633V37.6285H16.2476V37.9943H16.0518V37.0947H16.2476V37.4486H16.633V37.0947H16.8287Z" fill="white"/>
<path d="M17.6851 37.8264V37.9943H17.0306V37.0947H17.6668V37.2626H17.2202V37.4606H17.6117V37.6225H17.2202V37.8324H17.679L17.6851 37.8264Z" fill="white"/>
<path d="M18.5477 37.6405L18.4315 37.7664V37.9943H18.2357V37.0947H18.4315V37.5145L18.8046 37.0947H19.0187L18.67 37.4965L19.0432 37.9943H18.8168L18.5477 37.6405Z" fill="white"/>
<path d="M19.1349 37.0947H19.3307V37.9943H19.1349V37.0947Z" fill="white"/>
<path d="M20.3033 37.0947V37.9943H20.1443L19.7222 37.4486V37.9943H19.5264V37.0947H19.6855L20.1076 37.6405V37.0947H20.3033Z" fill="white"/>
<path d="M21.0741 37.5266H21.2515V37.8924C21.2087 37.9284 21.1537 37.9584 21.0925 37.9764C21.0313 37.9944 20.9701 38.0064 20.909 38.0064C20.8233 38.0064 20.7438 37.9884 20.6704 37.9464C20.597 37.9044 20.548 37.8504 20.5052 37.7785C20.4624 37.7065 20.444 37.6285 20.444 37.5386C20.444 37.4486 20.4624 37.3707 20.5052 37.2987C20.5419 37.2267 20.6031 37.1728 20.6704 37.1308C20.7438 37.0888 20.8233 37.0708 20.909 37.0708C20.9824 37.0708 21.0497 37.0828 21.1108 37.1128C21.172 37.1368 21.2209 37.1788 21.2638 37.2267L21.1353 37.3527C21.0741 37.2867 21.0007 37.2507 20.9151 37.2507C20.86 37.2507 20.8111 37.2627 20.7744 37.2867C20.7316 37.3107 20.701 37.3467 20.6765 37.3887C20.652 37.4306 20.6398 37.4846 20.6398 37.5386C20.6398 37.5926 20.652 37.6465 20.6765 37.6885C20.701 37.7305 20.7316 37.7665 20.7744 37.7905C20.8172 37.8145 20.86 37.8264 20.9151 37.8264C20.9701 37.8264 21.0191 37.8145 21.068 37.7905V37.5266H21.0741Z" fill="white"/>
<path d="M21.588 37.7905C21.588 37.7905 21.6186 37.8445 21.6186 37.8804C21.6186 37.8984 21.6186 37.9164 21.6186 37.9344C21.6186 37.9524 21.6063 37.9764 21.5941 38.0124L21.5268 38.1983H21.4045L21.4595 37.9944C21.4595 37.9944 21.4228 37.9704 21.4106 37.9524C21.3983 37.9344 21.3922 37.9104 21.3922 37.8864C21.3922 37.8505 21.4045 37.8205 21.4228 37.7965C21.4473 37.7725 21.4718 37.7605 21.5085 37.7605C21.5452 37.7605 21.5696 37.7725 21.5941 37.7965L21.588 37.7905Z" fill="white"/>
<path d="M22.3955 37.2626H22.1263V37.0947H22.8604V37.2626H22.5912V37.9943H22.3955V37.2626Z" fill="white"/>
<path d="M23.7413 37.0947V37.9943H23.5455V37.6285H23.1601V37.9943H22.9644V37.0947H23.1601V37.4486H23.5455V37.0947H23.7413Z" fill="white"/>
<path d="M24.5916 37.8264V37.9943H23.937V37.0947H24.5732V37.2626H24.1267V37.4606H24.5182V37.6225H24.1267V37.8324H24.5855L24.5916 37.8264Z" fill="white"/>
<path d="M25.1483 37.0947H25.344V37.8264H25.7661V37.9943H25.1483V37.0947Z" fill="white"/>
<path d="M26.4451 37.8024H26.0536L25.9802 37.9943H25.7783L26.1515 37.0947H26.3472L26.7265 37.9943H26.5185L26.4451 37.8024ZM26.384 37.6405L26.2494 37.2986L26.1148 37.6405H26.384Z" fill="white"/>
<path d="M28.0417 37.0947L27.7665 37.9943H27.5585L27.375 37.3826L27.1853 37.9943H26.9773L26.7021 37.0947H26.9039L27.0936 37.7244L27.2954 37.0947H27.479L27.6747 37.7304L27.8705 37.0947H28.0601H28.0417Z" fill="white"/>
<path d="M28.262 37.7905C28.262 37.7905 28.2926 37.8445 28.2926 37.8804C28.2926 37.8984 28.2926 37.9164 28.2926 37.9344C28.2926 37.9524 28.2803 37.9764 28.2681 38.0124L28.2008 38.1983H28.0846L28.1396 37.9944C28.1396 37.9944 28.1029 37.9704 28.0907 37.9524C28.0784 37.9344 28.0723 37.9104 28.0723 37.8864C28.0723 37.8505 28.0846 37.8205 28.1029 37.7965C28.1274 37.7725 28.1519 37.7605 28.1886 37.7605C28.2253 37.7605 28.2497 37.7725 28.2742 37.7965L28.262 37.7905Z" fill="white"/>
<path d="M29.3937 37.8024H29.0022L28.9288 37.9943H28.7269L29.1 37.0947H29.2958L29.6751 37.9943H29.4732L29.3998 37.8024H29.3937ZM29.3325 37.6405L29.1979 37.2986L29.0633 37.6405H29.3325Z" fill="white"/>
<path d="M30.5376 37.0947V37.9943H30.3785L29.9565 37.4486V37.9943H29.7607V37.0947H29.9197L30.3418 37.6405V37.0947H30.5376Z" fill="white"/>
<path d="M30.7334 37.0948H31.1187C31.2105 37.0948 31.29 37.1127 31.3634 37.1487C31.4368 37.1847 31.4858 37.2387 31.5286 37.3047C31.5653 37.3706 31.5898 37.4486 31.5898 37.5385C31.5898 37.6285 31.5714 37.7065 31.5286 37.7724C31.4919 37.8384 31.4368 37.8924 31.3634 37.9284C31.2961 37.9643 31.2105 37.9823 31.1187 37.9823H30.7334V37.0828V37.0948ZM31.1126 37.8204C31.1983 37.8204 31.2656 37.7964 31.3145 37.7485C31.3634 37.7005 31.3879 37.6285 31.3879 37.5445C31.3879 37.4606 31.3634 37.3886 31.3145 37.3406C31.2656 37.2927 31.1983 37.2627 31.1126 37.2627H30.9352V37.8204H31.1126Z" fill="white"/>
<path d="M32.3116 37.2626H32.0425V37.0947H32.7765V37.2626H32.5074V37.9943H32.3116V37.2626Z" fill="white"/>
<path d="M33.6513 37.0947V37.9943H33.4556V37.6285H33.0702V37.9943H32.8744V37.0947H33.0702V37.4486H33.4556V37.0947H33.6513Z" fill="white"/>
<path d="M34.5077 37.8264V37.9943H33.8532V37.0947H34.4894V37.2626H34.0428V37.4606H34.4343V37.6225H34.0428V37.8324H34.5016L34.5077 37.8264Z" fill="white"/>
<path d="M35.6211 37.1307C35.6761 37.1547 35.719 37.1967 35.7495 37.2447C35.7801 37.2926 35.7924 37.3526 35.7924 37.4186C35.7924 37.4845 35.7801 37.5445 35.7495 37.5925C35.719 37.6405 35.6761 37.6825 35.6211 37.7064C35.566 37.7304 35.4987 37.7484 35.4253 37.7484H35.254V37.9943H35.0583V37.0947H35.4253C35.4987 37.0947 35.566 37.1067 35.6211 37.1367V37.1307ZM35.5538 37.5325C35.5538 37.5325 35.5966 37.4666 35.5966 37.4186C35.5966 37.3706 35.5783 37.3286 35.5538 37.3046C35.5232 37.2746 35.4804 37.2626 35.4192 37.2626H35.2602V37.5745H35.4192C35.4804 37.5745 35.5232 37.5625 35.5538 37.5325Z" fill="white"/>
<path d="M36.5876 37.8264V37.9943H35.9331V37.0947H36.5693V37.2626H36.1227V37.4606H36.5142V37.6225H36.1227V37.8324H36.5815L36.5876 37.8264Z" fill="white"/>
<path d="M36.9118 37.9464C36.8446 37.9044 36.7895 37.8504 36.7467 37.7785C36.71 37.7065 36.6855 37.6285 36.6855 37.5386C36.6855 37.4486 36.7039 37.3707 36.7467 37.2987C36.7895 37.2267 36.8446 37.1728 36.9118 37.1308C36.9791 37.0888 37.0587 37.0708 37.1504 37.0708C37.2422 37.0708 37.3156 37.0888 37.389 37.1308C37.4563 37.1728 37.5113 37.2267 37.5542 37.2987C37.597 37.3707 37.6153 37.4486 37.6153 37.5386C37.6153 37.6285 37.597 37.7065 37.5542 37.7785C37.5113 37.8504 37.4563 37.9044 37.389 37.9464C37.3217 37.9884 37.2422 38.0064 37.1504 38.0064C37.0587 38.0064 36.9852 37.9884 36.9118 37.9464ZM37.285 37.7965C37.3278 37.7725 37.3584 37.7365 37.3768 37.6945C37.4012 37.6525 37.4135 37.5986 37.4135 37.5446C37.4135 37.4906 37.4012 37.4366 37.3768 37.3946C37.3523 37.3527 37.3217 37.3167 37.285 37.2927C37.2422 37.2687 37.1994 37.2567 37.1504 37.2567C37.1015 37.2567 37.0525 37.2687 37.0158 37.2927C36.973 37.3167 36.9424 37.3527 36.9241 37.3946C36.8996 37.4366 36.8874 37.4906 36.8874 37.5446C36.8874 37.5986 36.8996 37.6525 36.9241 37.6945C36.9485 37.7365 36.9791 37.7725 37.0158 37.7965C37.0587 37.8204 37.1015 37.8324 37.1504 37.8324C37.1994 37.8324 37.2483 37.8204 37.285 37.7965Z" fill="white"/>
<path d="M38.3188 37.1307C38.3739 37.1547 38.4167 37.1967 38.4473 37.2447C38.4779 37.2926 38.4901 37.3526 38.4901 37.4186C38.4901 37.4845 38.4779 37.5445 38.4473 37.5925C38.4167 37.6405 38.3739 37.6825 38.3188 37.7064C38.2638 37.7304 38.1965 37.7484 38.1231 37.7484H37.9518V37.9943H37.756V37.0947H38.1231C38.1965 37.0947 38.2638 37.1067 38.3188 37.1367V37.1307ZM38.2454 37.5325C38.2454 37.5325 38.2882 37.4666 38.2882 37.4186C38.2882 37.3706 38.2699 37.3286 38.2454 37.3046C38.2148 37.2746 38.172 37.2626 38.1108 37.2626H37.9518V37.5745H38.1108C38.172 37.5745 38.2148 37.5625 38.2454 37.5325Z" fill="white"/>
<path d="M38.6308 37.0947H38.8266V37.8264H39.2486V37.9943H38.6308V37.0947Z" fill="white"/>
<path d="M40.0133 37.8264V37.9943H39.3588V37.0947H39.995V37.2626H39.5484V37.4606H39.9399V37.6225H39.5484V37.8324H40.0072L40.0133 37.8264Z" fill="white"/>
</g>
<defs>
<clipPath id="clip0_7_85">
<rect width="102" height="51" fill="white" transform="translate(0 0.5)"/>
</clipPath>
</defs>
</svg>
