<?xml version="1.0" encoding="UTF-8"?><svg id="Layer_1" xmlns="http://www.w3.org/2000/svg" viewBox="0 0 234.21 441.63"><defs><style>.cls-1{fill:#c9c9c9;}.cls-2{fill:#d8d8d8;}.cls-3{fill:#474747;}.cls-4{fill:#7f7f7f;}.cls-5{fill:#4a4a4a;}.cls-6{fill:#5d5d5d;}.cls-7{fill:#b6b6b6;}.cls-8{fill:#6f6f6f;}.cls-9{fill:#c3c3c3;}.cls-10{fill:#b4b4b4;}.cls-11{fill:#dadada;}.cls-12{fill:#777;}.cls-13{fill:#a1a1a1;}.cls-14{fill:#333;}.cls-15{fill:#7b7b7b;}.cls-16{fill:gray;}.cls-17{fill:#989898;}.cls-18{fill:#d9d9d9;}.cls-19{fill:#9c9c9c;}.cls-20{fill:#eee;}.cls-21{fill:#545454;}.cls-22{fill:#838383;}.cls-23{fill:#8b8b8b;}.cls-24{fill:#a3a3a3;}.cls-25{fill:#434343;}.cls-26{fill:#676767;}.cls-27{fill:#414141;}.cls-28{fill:#686868;}.cls-29{fill:#a9a9a9;}.cls-30{fill:#121212;}.cls-31{fill:#cbcbcb;}.cls-32{fill:#b1b1b1;}.cls-33{fill:#232323;}.cls-34{fill:#b9b9b9;}.cls-35{fill:#3d3d3d;}.cls-36{fill:#9d9d9d;}.cls-37{fill:#717171;}.cls-38{fill:#1f1f1f;}.cls-39{fill:#646464;}.cls-40{fill:#0d0d0d;}.cls-41{fill:#dedede;}.cls-42{fill:#4b4b4b;}.cls-43{fill:#dfdfdf;}.cls-44{fill:#505050;}.cls-45{fill:#d5d5d5;}.cls-46{fill:#c4c4c4;}.cls-47{fill:#ddd;}.cls-48{fill:#101010;}.cls-49{fill:#3c3c3c;}.cls-50{fill:#cdcdcd;}.cls-51{fill:#707070;}.cls-52{fill:#a0a0a0;}.cls-53{fill:#afafaf;}.cls-54{fill:silver;}.cls-55{fill:#ababab;}.cls-56{fill:#4d4d4d;}.cls-57{fill:#888;}.cls-58{fill:#4c4c4c;}.cls-59{fill:#8f8f8f;}.cls-60{fill:#c7c7c7;}.cls-61{fill:#aeaeae;}.cls-62{fill:#9e9e9e;}.cls-63{fill:#5e5e5e;}.cls-64{fill:#565656;}.cls-65{fill:#242424;}.cls-66{fill:#767676;}.cls-67{fill:#929292;}.cls-68{fill:#b3b3b3;}.cls-69{fill:#969696;}.cls-70{fill:#6b6b6b;}.cls-71{fill:#909090;}.cls-72{fill:#8a8a8a;}.cls-73{fill:#9b9b9b;}.cls-74{fill:#343434;}.cls-75{fill:#373737;}.cls-76{fill:#464646;}.cls-77{fill:#151515;}.cls-78{fill:#a8a8a8;}.cls-79{fill:#bebebe;}.cls-80{fill:#8c8c8c;}.cls-81{fill:#999;}.cls-82{fill:#525252;}.cls-83{fill:#7d7d7d;}.cls-84{fill:#dbdbdb;}.cls-85{fill:#727272;}.cls-86{fill:#9a9a9a;}.cls-87{fill:#353535;}.cls-88{fill:#c8c8c8;}.cls-89{fill:#585858;}.cls-90{fill:#595959;}.cls-91{fill:#3f3f3f;}.cls-92{fill:#5f5f5f;}.cls-93{fill:#b0b0b0;}.cls-94{fill:#d6d6d6;}.cls-95{fill:#7a7a7a;}.cls-96{fill:#797979;}.cls-97{fill:#6d6d6d;}.cls-98{fill:#b2b2b2;}.cls-99{fill:#cacaca;}.cls-100{fill:#5c5c5c;}.cls-101{fill:#696969;}.cls-102{fill:#bbb;}.cls-103{fill:#9f9f9f;}.cls-104{fill:#393939;}.cls-105{fill:#c1c1c1;}.cls-106{fill:#d7d7d7;}.cls-107{fill:#d0d0d0;}.cls-108{fill:#2d2d2d;}.cls-109{fill:#868686;}.cls-110{fill:#bfbfbf;}.cls-111{fill:#b7b7b7;}.cls-112{fill:#898989;}.cls-113{fill:#6a6a6a;}.cls-114{fill:#d4d4d4;}.cls-115{fill:#878787;}</style></defs><path class="cls-79" d="M108.43,330.51c-.34-5.26-6.71-6.64-7.49-11.57-1.3-8.25-6.53-14.91-9.02-22.62-1.85-5.72-2.64-11.78-3.91-17.69.77,2.4,1.61,4.77,2.28,7.19.62,2.24,1.34,4.51,1.44,6.79.05,1.26,4.78-.19,1.3,2.52-.2.15.14,1.08.32,1.61.71,2.02,4.35,2.83,2.46,5.93-1.14,1.86-.16,2.45,1.53,2.54,2.77.16,5.55.27,8.32.4.22.21.43.42.65.64-1.68,0-3.36-.09-5.03.02-.97.06-2.56-.83-2.77.78-.16,1.2.56,2.52.88,3.79.83-.59,1.63-1.22,2.49-1.75,1.22-.75,2.49-1.42,3.73-2.12-.44.63-.87,1.26-1.31,1.88.41.17.94.59,1.2.46,4.34-2.21,9.99-.32,13.74-4.34-2.17-1.62,2.17-5.18-1.86-6.25,0-.39,0-.78,0-1.17-.2-1.37.06-3.48-.7-3.94-1.27-.77-2.36.66-3.07,1.94-.11.19-.82.27-1.11.12-4.97-2.58-9.64-.89-14.31.94-.2.11-.39.22-.59.33-.44,0-.89.02-1.33.03.2-1.28,1-1.8,2.23-1.82,1.68-.4,3.36-.81,5.05-1.21,1.82-.44,3.65-.87,5.47-1.31l-2.45-1.66c.97-2.87-1.17-4.88-1.99-7.26-.78-3.6-2.59-6.28-6.34-7.35-.48-.14-.84-.67-1.25-1.02.24-.63.32-1.4.75-1.86,1.63-1.73,1.06.62,1.49.97.52.43.66,1.33.96,2.02.57-.54,1.06-1.35,1.73-1.55,1.06-.31-1.13-6.69,2.86-1.56.26.33,2.16.11,2.54-1.43.52-2.11,1.3-4.16,1.8-6.27.26-1.07.17-2.22.19-3.34,0-.08-.64-.27-.66-.23-.45.84-.9,1.7-1.27,2.58-.65,1.55-.91,3.41-1.94,4.62-1.27,1.49-1.41-.37-1.83-1.12.65-2.25.54-4.83,2.77-6.4.1-.07,0-.41,0-.63-.26.1-.51.24-.77.28-3.15.48-2.6,3.98-4.47,5.5-.96.62-1.9,1.14-2.63-.3.21-1.39,2.24-3.19-.86-3.83,2.14-1.24,5.71-.49,6.01-4.31,2.51-1.16,1.24-3.01.82-4.67-.08-.29-.59-.47-.9-.71-.19,1.51-.38,3.02-.58,4.53-.73-.15-1.46-.36-2.2-.43-.9-.09-1.82-.07-2.73-.1.54-.32,1.09-.65,1.63-.97,1.65-1.63.23-3.61.61-5.39,4.45-1.3,3.29-4.07,1.83-6.93.51-.42,1.18-1.3,1.51-1.19,2.02.69.73,2.79,1.52,4.06.27.43.5.89.78,1.3.02.03.48-.14.58-.31.18-.33.25-.73.37-1.09-2.21-.64-.75-2.13-.61-3.17.19-1.43-.2-1.83-1.58-1.62-.51.08-1.07-.18-1.6-.29l.81-1.87.93-.3c2.39,1.46,5.85,2.38,3.55,6.23,1.31-.16.12,5.81,3.25,1.32.34-.49,1.18-.65,1.78-.96-.73,0-1.46-.08-2.17.02-1.28.2-1.44-.46-1.3-1.47.27-1.99,1.93-4.3-1.24-5.51l5.68.63c3.54,1.53,1.74,3.86.91,6.05-2.34,1.64.87,4.11-.88,5.87-.22.23-.16.73-.24,1.11.42-.22,1.02-.32,1.23-.67.39-.63.55-1.4.8-2.12.11,1.05.2,2.1.35,3.15.08.54.2,1.52.39,1.54,1.05.13,1.91.32,1.67,1.62-.06.35-.71.93-.77.9-.8-.49-1.6-1-2.27-1.64-1.79-1.71-3.5-3.49-5.27-5.21-.22-.21-.63-.22-.96-.32.09.36.06.85.29,1.07,3.17,3.15,6.37,6.26,9.56,9.38-.22.69-.82,1.79-.58,2.02,2.43,2.41,4.99,4.67,7.51,6.98.22,3.65,3.31,5.02,5.64,6.92,1.01.83,2.48,1.1,3.74,1.63-.24.36-.48.73-.72,1.09-1.52-1.17-3.65-.15-5.21-1.9-4.28-4.82-8.87-9.38-13.33-14.04.77-1.69.26-2.91-1.17-4.07-2.19-1.78-4.22-3.74-6.29-5.65-.32-.3-.5-.74-.8-1.07-.63-.68-2.12-1.44-2.11-.68.02,1.23,1.02,3.02,2.11,3.57,3.55,1.78,6.08,4.34,7.65,7.92,2.56,3.22,4.63,7.07,7.8,9.48,3.49,2.64,5.15,8.73,11.36,6.99.45.17.9.33,1.35.5.05-.46.07-.92.17-1.37.72-3.32-3.58-3.23-4-6.5-.93-7.32-7.88-12.24-9-19.73-.24-1.59-.72-3.14-1.08-4.71-1.9,1.58-3.03-.3-4.43-.98-.08,3.04,2.76,1.21,3.85,2.29l.08.2c.15,5.88,2.66,10.99,5.34,16,.89,1.66,2.42,2.98,3.31,4.64.76,1.4,1.02,3.07,1.5,4.63-.39-.08-.98-.02-1.13-.25-3.42-5.19-7.37-10.09-9.05-16.26-.07-.24-.28-.44-.42-.66-.2.27-.59.56-.56.79.22,1.55.54,3.09.82,4.63-.78-.8-1.57-1.59-2.35-2.39,2.14-5.82-2.48-9.84-3.92-14.71.6-.51,1.53-.91,1.74-1.55.73-2.29,2.21-5.01-1.98-5.61,1.06-.13,2.13-.26,3.19-.39,1.32,1.92,1.49,4.56,3.88,5.86.49.27.43,1.57.62,2.4.19-.22.58-.46.55-.64-.21-1.3,1.34-3.04-.92-3.86-.39-.14-.73-.4-1.09-.61.11-.15.21-.42.33-.43,4.46-.34-.54-2.35.58-3.27.99-.41,1.99-.83,2.98-1.24.4.25,1.1.19.34,1.06-.54.62-.43,1.81-.57,2.75-.02.14.17.31.27.47.38-.53.75-1.07,1.15-1.58.65-.81,1.33-1.6,2-2.4-.09,1.01-.15,2.02-.27,3.02-.13,1.03-.33,2.06-.5,3.09l-1.53,1.48c-1.55.09-.27,2.03-.56,2.95-1.27.05-.93.91-.76,1.61,1.95,8.02,6.08,14.99,10.56,21.78.84,2.42.51,5.54,4.44,5.91.79.07,1.38,2.3,2.07,3.53-.31.16-.62.33-.94.46-.38.16-.77.28-1.16.42.4.18.79.36,1.19.54,1.1.5,2.2,1,3.3,1.5-.72.04-1.44.11-2.17.1-1.21-.02-2.42-.09-3.64-.14-.69-2.36-3.06-.19-4.39-1.64-.65-.71-1.01.6-.61,1.41.67,1.37,1.35,2.73,2.02,4.1-1.01-.49-2.01-.99-3.02-1.49-.27-3.21-4.76-.48-5.08-3.61.72-.04,1.44-.15,2.15-.1.59.04,1.16.29,1.74.4.06.01.28-.38.26-.39-.51-.45-1.06-1.26-1.56-1.23-1.97.12-2.85-1.14-3.92-2.43-4.49-5.43-11.08-9.12-13.43-16.33-.16-.5-.77-.85-1.18-1.27-.08.61-.15,1.22-.23,1.82.78,3.05-.73,5.67-1.46,8.46-.38,1.44-.06,3.06.03,4.6,0,.12.68.2,1.04.29.21-1.3.33-2.63.65-3.9.39-1.55.94-3.05,1.42-4.57l1.62,1.73c-.55,2.31-1.14,4.62-1.64,6.94-.21.98-.27,2-.33,3,0,.11.48.24.74.36.36-.96.52-2.07,1.12-2.83,1.48-1.88-.94-5.42,3.64-5.88,3.86,4.06,5.61,5.91,9.47,9.98-.81,5.72,2.18,9.94,4.96,14.24.42.65.93,1.26,1.25,1.96,1.17,2.57-1.84,5.75,1.21,8.12.36.28.31,1.21.27,1.83-.37,5.11-.98,10.28,3.85,13.96-1.3,1.29-4.35-1.67-4.87,2.15-.11.83-4.83.22-1.41,3.25-1.39,1.22-3.02.97-4.57.56-.18-.05.21-1.49-.07-2.1-.75-1.61-1.07.19-1.63.31-.31-.3-.62-.6-.93-.91,1.2-.38,2.41-.76,3.61-1.14-.68-1.23-1.37-2.6-3-2.5-1.18.08-2.31.62-2.41,2.12-.67-3.04-1.88-4.65-4.77-1.79,1.29-1.45,2.63-2.85,3.86-4.35,1.53-1.88,9.78,3.29,5.15-4.89-.29-.52-1.75-.72-2.51-.5-.51.14-.74,1.28-1.09,1.97.73-.03,1.46-.06,2.19-.08.46-.01.92,0,1.37-.01-.25.19-.48.44-.76.57-2.81,1.38-5.68,2.35-8.84,1.28h.02c.65-.39,1.39-.69,1.91-1.22.43-.43.61-1.13.9-1.7-4.1,5.45-12.4,1.19-16.34,7.12-1.18,1.78-2.15,3.47.14,4.87,2.76,1.68,3.45,4.2,3.49,7.12ZM108.98,291.28c-.29-.11.86.78,1.83.61,3.36-.59,0-3.72,1.71-5.07-.24-.21-.53-.64-.71-.59-1.66.39-2.78,1.31-2.83,5.06ZM114.68,291.49c2.65-.8,1.79-3.28,2.69-4.81.12-.2-1.24-1.73-1.52-1.62-2.74,1.07-.68,3.7-1.58,5.44-.1.2.26.65.41.98ZM107.79,275.16c-.66-.48-1.12-1.09-1.54-1.07-1.88.08-1.98,1.73-2.18,3.02-.16,1.03.23,2.48,1.51,2.29,2.46-.36.64-2.93,2.22-4.24ZM115.39,280.23c.58.85,1.08,1.59,1.59,2.33.48-2.13,1.07-4.24,1.37-6.39.1-.75-.52-1.6-.81-2.41-.7,2.1-1.39,4.2-2.14,6.47ZM128.26,297.03c-.99-1.53-1.94-3.01-2.89-4.48-.34.23-1.01.61-.99.67.86,1.88,1.78,3.74,2.7,5.59.31-.46.61-.92,1.18-1.78Z"/><path class="cls-40" d="M105.69,239.66c-.49,0-.98,0-1.47-.01-1.21-.1-2.41-.2-3.62-.3-4.19-.91-8.38-1.82-12.58-2.74-3.56-1.06-6.72-3.74-10.8-2.63-.22-.1-.43-.19-.65-.29-.45-3.09-3.77-.46-4.8-2.41-10.15-9.23-22.95-6.47-34.87-7.62-7.62-.74-15.28-1.13-22.92-1.67-2.31.68-2-1.63-2.91-2.55.94-.36,1.88-.72,2.82-1.08l13.2-.89c.46.32.92.63,1.38.95-.9.36-1.79.76-2.7,1.09-1.03.37-2.09.69-3.14,1.03.96,0,1.94.15,2.86,0,3.75-.65,7.48-1.4,11.22-2.11l3.53.82c-.79.45-1.58.9-2.37,1.35.79.42,1.56,1.16,2.37,1.2,3.79.17,7.33,1.95,11.37.95,5.74-1.41,11.62,2.13,17.48.08.27.35.48.77.82,1.03,4.22,3.19,10.1-.29,14.19,3.51.05.05.36-.03.38-.11,1.42-4.29,5.85-2.38,8.64-3.61,3.65-1.61,8.42-.82,11.86-4,.39-.36,1.08-.41,1.65-.54,1.09-.26,2.2-.47,3.3-.7,1.38-.11,2.75-.22,4.13-.33,2.22,1,5.12.33,5.72-1.22.2-.52.76-1.07,1.29-1.28,5.18-2.09,8.35-6.78,12.82-9.79,1.49-2.3,3.9-1.42,5.97-1.71.96-.13,1.94-.06,2.91-.07-3.76-1.95,3.32-3.01.4-4.88,1.5.01,3,.02,4.5.04,1.49-.34,2.98-.67,4.47-1.01-.14-.18-.27-.37-.41-.54-.31-.37-.62-.74-.93-1.1.45.09.91.18,1.36.26.91.08,1.82.17,2.73.25,3.79,1.4,8.16-1.64,11.73,1.52.08,0,.16.02.25.03-.49.18-.96.47-1.47.52-1.16.12-2.34.13-3.51.19,1.17.26,2.34.48,3.49.79.75.21,1.45.56,2.18.84-.83.2-1.66.4-2.49.6-11.39,1.24-27.97,14.96-29.4,24.33-.38,2.2,0,5.35-1.3,6.4-2.46,1.99-5.9,2.78-8.93,4.06-.99.41-1.99.83-2.98,1.24-1.32.18-2.64.36-3.96.54-1.06.13-2.13.26-3.19.39-.22.38-.43.75-.65,1.13l-5.68-.63c-1.11.23-2.22.46-3.33.69Z"/><path class="cls-47" d="M94.46,125.88c-.95-1.62-.85-3.21.18-4.75,3.88-5.8,3.14-13.43,8.09-19.08,1.91-2.17-.63-7.11,2.47-10.16,1.22-1.2,2.16-2.6,4.01-2.83-1.08,1.16-2.9,2.08-1.29,4.1,1.1,1.38.58,1.93-1.02,2.04-.99.07-1.97.37-2.96.56.84.08,1.68.13,2.51.25.2.03.36.27.54.42-.44.51-.83,1.09-1.33,1.53-1.22,1.07-2.21,2.18-1.59,3.99.53,1.52,1.62,2.22,3.16,2.25,4.98.1,9.66,2.86,15.03-.46,4.94-3.06,6.29,4.22,10.05,5.49.34.12.45.94.66,1.43.04-.64-.06-1.32.13-1.9.72-2.2-4.41-1.64-2.08-4.29.7-.8,2.36-.77,3.57-1.12.26,1.47.53,2.94.76,4.41.23,1.51-.03,3.09.85,4.49l-4.26,7.52c-4.23-.43-.44-3.15-2.06-4.36-.16-.12-.15-.82-.04-.87,2.41-1.12-.91-3.38.93-4.59-1.24-.83-2.5-1.63-3.71-2.51-.69-.5-.71,2.35-1.75.27-.35-.69-1.49-.99-2.27-1.46-.33,1.05-1.24,2.39-.88,3.08.91,1.77,2.07,3.62,4.71,3.24.76-.11,1.62.49,2.43.77-.08.14-.14.3-.25.41-2.19,2.14,1.42,4.24.04,6.38l1.97,1.04c-2.28,3.3-4.56,6.59-6.84,9.89-.53.31-1.37.5-1.53.94-1.71,4.56-5.67,6.89-9.29,9.55-.1-2.3-.17-4.59-.34-6.88-.01-.14-.8-.23-1.22-.34-.56,2.64-1.54,5.38,1.58,7.21l-1.74,3.21c-.83-1.33-1.68-2.65-2.47-4.01-.19-.32-.13-.78-.23-1.16-.26-.99-.92-.84-1.15-.15-.31.89-.7,2.28-.27,2.8,2.05,2.48,2.76,4.9.71,7.68-2.66-2.75-1.88-6.65-3.31-9.79-.33-.73-1.33-1.19-2.08-1.69-.21-.14-.61,0-.93.01.19.54.24,1.21.6,1.59,1.38,1.45-2.41,3.38,1.27,5.61,2.08,1.26,3.19,6.92,5.38,10.3l.61,4.97c-1.34.13-.86.86-.51,1.55,1.08,2.14,1.13,3.84-1.74,4.48-.36.08-.9.74-.86,1.07.45,3.45-3.42,4.77-3.77,7.78-1.6-.2-1.49-1.52-1.63-2.61-.04-.29.29-.81.58-.94,3.26-1.42,1.71-6.72,5.93-7.35.04,0,.05-.37.02-.56-.34-2.52-3.12-4.57-1.32-7.6.25-.42-1.1-1.83-1.81-2.71-.11-.14-.72.11-1.1.18,2.83,2.11-1.22,5.39,1.33,7.68.67.6.72,1.96.86,3,.03.25-.71.78-1.15.84-.25.04-.66-.56-.9-.93-.32-.49-.55-1.49-.81-1.49-.74.01-1.46.42-2.19.68-2.12-.02-4.76,1.36-5.64-2.12-.07-.26-.91-.6-1.2-.47-.33.15-.53.76-.63,1.2-1.1,4.8,4.65,1.32,5.13,4.23v.07c-.36.59-.71,1.19-1.08,1.77-.61.95-1.87.7-1.67-.02.93-3.48-1.68-1.84-2.89-2.21l-1.86-1.52c1.04-5.5,1.93-11.01.12-16.52-.21-.65-.77-1.19-1.17-1.79,1.14.34,3.28.82,3.26.99-.8,5.38,4.03,7.16,6.49,10.42-.09,1.48-.18,2.96-.27,4.44.25,0,.65.13.74.01,1.55-1.99,1.68-4.3,1.29-6.66-.03-.16-1.14-.15-1.75-.22-.69-.94-.22-2.82-2.26-2.73-.25.01-1.86.95-.94-.98,1.14-2.38-1.78-4.94-.17-7.52-3.74-2.09-1.49-4.13.05-6.18.33.59.84,1.16.93,1.79.08.52-.61,1.19-.48,1.66.24.88.71,1.78,1.33,2.44.27.28,1.36.2,1.73-.12,1.28-1.1-1.38-7.32-2.91-6.93-.4.19-.79.39-1.19.58-.1-.27-.36-.72-.27-.79,2.33-2.1,4.7-4.17,7.05-6.25.4-.36.76-.77,1.14-1.15-.45-.17-.89-.43-1.35-.49-2.85-.4-6.28.72-7.81-3.05ZM119.78,107.89c-.08-.04-.3-.22-.54-.24-4.06-.36-8.11-.76-12.18-.85-.14,0-4.29-.37-2.58,2.47,1.82,3.02,4.88.47,7.34.69,2.63.24,5.84.63,7.97-2.07ZM100.3,123.68c-.95.77-2.22,1.8-3.49,2.84.42.29.89.9,1.24.83,2.64-.5,5.31-1.02,6.81-3.67h-4.56ZM124.53,118.94c-1.27,2.42-2.47,4.73-3.67,7.03,2.05.14,1.08,2.52,2.38,3.22-.09-1.12-.47-2.32-.18-3.33.34-1.2-1.11-3.33,1.65-3.6.39-.04.64-1.67.9-2.57.02-.07-.34-.24-1.08-.75ZM117.86,131.44c-.47-.49-.8-.84-1.13-1.19-.52.77-1.52,1.6-1.45,2.31.15,1.43.88,2.8,1.37,4.2,3.13-1.28-.93-3.77,1.21-5.32Z"/><path class="cls-20" d="M48.39,197.28c5.01-2.68,10.02-5.36,15.03-8.04.41.06.81.2,1.22.18,3.65-.14,5.85-3.02,8.72-4.65.6,0,1.25.14,1.78-.05,1.59-.59,3.84-.01,4.58-2.07.32-.9-.05-.96,1.52-.97.77,0,1.54-.32,2.31-.5,4.98-.49,9.96-.98,14.94-1.47.91-.15,1.82-.29,2.73-.44.58,0,1.16,0,1.75,0,1.51.43,3.03.85,4.54,1.28,1.68,2.2,1.06,5.71,4.13,7.13.5.23,1.27,1.06,1.19,1.2-.46.81-1.04,2.01-1.76,2.16-6.95,1.41-12.38,7.38-19.94,6.77-4.75-.38-6.74,4.78-11.25,5.11-5.46.41-11.16-.18-16.31,2.27-4.19,1.99-8.32-.57-12.45.25-2.82,0-3.85-4.54-7.33-2.88-.02-.34-.17-.9-.02-1,1.53-1.04,3.11-2.02,4.69-2.99.44-.27.91-.49,1.37-.73-.48-.18-.95-.36-1.43-.54Z"/><path class="cls-19" d="M133.01,325.79c-3.43-3.03,1.3-2.42,1.41-3.25.52-3.82,3.57-.86,4.87-2.15.41-.12.81-.24,1.22-.36-1.29,2.13-.22,2.85,1.8,3,1.05,1,2.03,2.09,3.17,2.98.75.59,1.7.93,2.6,1.3.36.15,1.06.23,1.18.06,1.07-1.61-1.6-.74-1.3-1.9.98-.24.81-3.01,2.71-1.24-.1,2.29-.2,4.58-.29,6.87-1.61,2.33,2.21,7.5-3.91,7.46.12.32.24.64.36.96.4,3.61.79,7.21,1.19,10.82-.24-.49-.46-.99-.71-1.47-.55-1.05-1.52-.77-1.67-.03-.43,2.13-.55,4.32-.75,6.49-.15,1.63-.25,3.26-.37,4.89-.13-1.15-.05-2.37-.43-3.43-.66-1.84-.7-3.57-.07-5.41.17-.49-.15-1.14-.25-1.72-.22.25-.59.48-.62.75-.59,4.45-1.09,8.92-1.71,13.37-.14,1.03-.65,2.01-.99,3.02-.04-.16-.12-.32-.12-.48,0-4.98.02-9.97,0-14.95,0-.61-.17-1.24-.35-1.83-.14-.42-.39-1.81-.63-1.04-1.2,3.89-1.73,7.97-2.79,11.91-.59,2.2,1.19,4.56-.77,6.65-.6.64-.3,2.06-.82,2.86-.74,1.16-1.15.17-1.06-.51.48-3.53,1.09-7.03,1.58-10.56.07-.52-.25-1.11-.4-1.66-.22.41-.45.82-.65,1.24-1.36,2.81-2.13,6.24-4.24,8.29-2.34,2.27-1.97,4.8-2.58,7.28-.18,1.82-.36,3.64-.54,5.45-.02.29-.04.59-.06.88-.52.47-1.05.94-1.57,1.41.23-2.13.4-4.27.69-6.4.26-1.9.65-3.78.95-5.68,0-.04-.47-.27-.62-.2-1.52.75-1.27,2.58-1.98,3.53-.93,1.23.02,6.68-4.34,2.84,0-.2,0-.39-.01-.59.6-2.98,1.3-5.94,1.75-8.94.23-1.49.01-3.04,0-4.57-1.95,1.01-2.1,3.04-2.7,4.81-.17.52-.34,1.04-.51,1.55-.4,1.28-.81,2.57-1.21,3.85-1.35-11.91,7.67-20.49,10.06-31.2.05-.23.83-.29,1.28-.43-.04.33-.02.68-.13.99-.88,2.33-1.44,4.88-2.77,6.93-3.38,5.26-1.85,10.81-1.52,16.32.04.71-.02,1.43-.03,2.15.73-.51,1.86-.88,2.11-1.57,1.52-4.24,2.34-8.8,4.36-12.75,1.95-3.8-1.58-10.95,6.48-11.21.28,0,.54-.63.81-.97.14-3.48,5.66,6.56,3.94-1.57,2.02.91.99-1.59,2.02-1.8.89-1.64.72-1.21-1.16-1.89-.81-.29-.81-2.85-1.18-4.38-.15.13-.3.25-.45.38-2.39,2.15-4.96-.99-7.38.24-.12-.46-.48-1.08-.31-1.36.96-1.55.26-2.79-.55-4.06Z"/><path class="cls-54" d="M135.93,109.77c-.05-.67-.06-1.35-.16-2.01-.23-1.47-.5-2.94-.76-4.41-1.22.35-2.87.32-3.57,1.12-2.33,2.66,2.8,2.09,2.08,4.29-.19.59-.09,1.27-.13,1.9-.21-.49-.32-1.31-.66-1.43-3.76-1.28-5.11-8.55-10.05-5.49-5.37,3.32-10.05.56-15.03.46-1.54-.03-2.63-.74-3.16-2.25-.63-1.81.37-2.91,1.59-3.99.5-.44.89-1.02,1.33-1.53-.18-.15-.34-.39-.54-.42-.83-.12-1.67-.18-2.51-.25.99-.19,1.96-.49,2.96-.56,1.6-.11,2.12-.66,1.02-2.04-1.6-2.02.21-2.94,1.29-4.1.2-.39.4-.79.59-1.18,1.33,1.08,2.62,2.21,4,3.22.9.66,1.94,1.15,2.91,1.72-1.23,1.08-2.21-.09-3.29-.36-1.37-.35-2.75-.65-4.13-.97.9.99,1.92,1.9,2.69,2.98,2.6,3.61,7.15,3.36,10.53,5.4,1.66,1,3.97,1.46,4.86.05.83-1.32-1.52-1.84-2.65-2.56-.32-.2-.13-1.22-.45-1.4-3.38-1.94,5.24-6.37-1.58-7.52.56-.82-2.52-2.43.59-2.69,1.29-.2,2.58-.4,3.87-.59.41.61.83,1.22,1.24,1.83.36.33.81,1.01,1.05.95,2.74-.78,3.4-3.37,4.6-5.49.51.31,1.02.62,1.53.94-1.6,2.43,2.62,1.54,1.96,3.43.29-.14.8-.23.85-.43.4-1.57.93-3.17.95-4.76,0-.72-1.57-1.27-.76-2.48h0c1.57.5,1.22,4.37,4.2,2.4,3.07-1.12,3.61-6.1,7.99-5.27.06.01.2-.36.3-.56-.37-.13-.74-.37-1.11-.38-3.6-.07-4.67,3.5-7.17,5.03-.56-1.27-1.13-2.55-1.69-3.82.3-.05.61-.06.9-.14,3.09-.9,6.17-1.81,9.26-2.72.18,2.12.35,4.25.53,6.37-.42-.85-1.14-1.88-1.96-.86-1.34,1.67-2.29,3.65-3.4,5.5.74-.4,1.46-.81,2.21-1.18.44-.22.91-.36,1.37-.54.03.16.11.33.08.48-.53,2.17-1.07,4.34-1.61,6.51-1.42.91-2.83,1.82-4.25,2.73-.39.96-.81,1.91-1.16,2.89-.3.83-.5,1.7-.8,2.53-.02.06-.52-.06-.79-.09.12-.82.2-1.65.37-2.46.43-1.99.68-4.05,1.41-5.92,1.57-4.07,2.29-8.69,6.53-11.22.4-.24.85-.42,1.28-.62-.15-.23-.3-.67-.44-.66-.5.03-1.14.04-1.45.34-7.26,6.87-8.28,15.98-8.9,25.19-.45,6.78-2.16,13.06-6.76,18.26-.36.4-1.12.44-1.69.65.05-.37,0-.79.16-1.11,1.32-2.54,3.06-4.92,3.94-7.6,1.53-4.66,4.47-10.07,3.28-14.12-1.59-5.41,2.76-8.52,2.33-12.95-.02-.23.89-.46,1.15-.83.45-.64.57-1.66-.58-1.18-.93.39-2.04,1.47-2.2,2.39-.72,4.15-4.04,7.48-2.17,12.64,1.09,2.99-1.37,7.28-2.24,10.98Z"/><path class="cls-60" d="M48.39,197.28c.48.18.95.36,1.43.54-.46.24-.93.46-1.37.73-1.58.98-3.16,1.95-4.69,2.99-.15.1,0,.66.02,1,3.47-1.65,4.5,2.89,7.33,2.88,3.01,1.4,3.11,3.29,1.14,5.75-.89,1.12-1.77,2.75-.63,3.94,1.37,1.44,1.65-1.24,2.57-1.17,4.23.34,1.1-4.14,3.55-5.14,7.71-3.13,15.96,1.62,24.06-2.66,5.01-2.65,12.01-1.48,18.11-2.14,1.04-.11,2.02-.83,3.02-1.26-1.18-.22-2.35-.52-3.53-.63-1.2-.11-2.43-.04-3.64-.04,1.08-.95,2.01-2.36,3.27-2.77,3.5-1.14,7.55-1.17,10.6-2.97,2.83-1.67,5.75-4.18,6.54-7.97,2.55.65,1.36,1.85,1.05,3.62-.63,3.64-6.06,2.22-5.82,6.21-.25.38-.41.88-.75,1.11-2.47,1.61,2.29,4.82-.41,5.04-4.31.35-8.2,3.44-12.74,1.94-.12-.04-2.24-1.13-1.46.99-1.94.25-3.87.66-5.82.7-2.2.04-6.31-.79-5.94,1.26,1.15,6.38-3.2.93-4.39,2.31-.52.6-2.88-.7-4.37-.58-4.66.38-9.32.96-13.95,1.63-.75.11-1.39,1.06-2.04,1.67-.09.09-.02.56.09.61.34.15.75.27,1.11.25,6.92-.52,13.88-2.3,20.7.5,1.25.51,2.31,1.49,3.45,2.25-.99.62-1.92,1.41-2.99,1.81-1.06.39-2.27.49-3.42.54-1.78.08-3.57,0-5.35-.01.27-.18.51-.44.81-.52.84-.23,1.7-.39,2.55-.58-1.36-.04-2.82-.43-4.04-.04-2.04.65-3.9,1.22-6.08.47-1.34-.46-2.92-.47-4.35-.29-.53.07-.7,1.94-1.84,1.02-.55-.44-.79-1.59-.74-2.4.12-2-.86-2.75-2.64-2.59-.83.07-1.61.56-2.42.86.83.55,1.71,1.04,2.48,1.67.27.22.28.77.4,1.16-3.4-1.87-5.08,1.92-7.84,2.51-3.7.79-4.54-3.47-7.55-3.11-.6-.11-1.2-.23-1.81-.33-1.35-.22-2.7-.43-4.05-.64.58-.28,1.15-.57,1.73-.85,2.16.19,4.32.38,6.48.57,4.61.98,5.64-3.11,6.78-5.71.68-1.54-3.06-.12-3.34-.93-.74-2.08-7.36,3.54-3.99-3.16.93-1.85-.47-1.19-1.31-.98-2.97.76-5.65,2.78-8.96,2.07,1.23-.38,2.45-.77,3.68-1.15-.92,0-1.84.01-2.76.02-1.95-.41-.62-4.95-4.19-3.32,0,0-.07-.12-.07-.12,1.33-.56,2.67-1.13,4-1.69,2.46-.45.07,3.46,2.04,2.6,2.91-1.28,5.48-3.31,8.19-5.04.02-.01-.09-.24-.13-.36,1.41-.7,2.82-1.39,4.23-2.09Z"/><path class="cls-68" d="M111.4,198.2c-.24-3.99,5.19-2.57,5.82-6.21.31-1.77,1.5-2.97-1.05-3.62,1.99-1.76,5.57-2.18,4.85-6.2-.21-1.18.93-1.61,1.98-1.14.56.25.96.87,1.44,1.33-.12-.71,0-1.78-.41-2.05-1.02-.67-3.09-1.59-3.31-1.31-1.41,1.82-2.71-.39-3.96.15.77-.43,1.74-.7,2.26-1.34.76-.94,1.19-2.14,1.77-3.22.35-.77.6-1.61,1.06-2.3,3.23-4.82,3.25-4.82.71-5.23-.62-.21-1.24-.41-1.86-.62,2.54-1.59-.78-3.22.03-4.82,1.05-.26.37,2.46,1.13,1.12,1.1-1.94,1.08-4.51,1.54-6.81.1-2.82,1.68-4.83,3.65-6.62.38.02.77.04,1.15.07-2.89,6.76-2.03,13.64-.53,20.51.09.43.79,1.06,1.13,1.02.43-.06.77-.72,1.15-1.11.09-.45.26-.89.27-1.34.14-5.46-1.91-10.88-.13-16.43.29-.9,2.76-3-.41-3.89,1.48-2.27,5-3.52,3.62-7.22.5-.99,1.01-1.98,1.51-2.98-.1.91-.2,1.81-.3,2.72.87.92,2.1-.12,3.16-2.7.26-.64.4-1.34.71-1.95.08-.16.63-.07.96-.1-.32.96-.51,1.99-.99,2.87-3.02,5.6-7.2,10.76-7.56,17.39-.11,2.03,1.43,4.15,2.21,6.23,1.15-1.22,3.14-2.4,3.22-3.68.09-1.51-.08-2.79.72-4.29,1.13-2.13,1.69-4.55,2.53-6.84.09-.24.38-.4.58-.6.15.29.31.57.46.86-2.67,8.26-3.7,16.8-4.15,25.41-.06,1.21.74,2.47,1.15,3.7-.1,0-.21,0-.31,0-2.07-1.2-4.26-.9-6.45-.5-.95.17-1.9.4-2.87.48-.12.01-.31-.71-.46-1.09.95-.04,1.9-.03,2.83-.13.76-.09,1.51-.31,2.26-.48-.14-.03-.29-.11-.42-.1-2.96.27-5.92.53-8.87.84-.48.05-.94.33-1.4.5.58.27,1.37.93,1.71.74,3.85-2.08,5.53,1.47,8,2.96,1.48.11,2.97.21,4.45.32,1.14.21,2.27.42,3.41.62,2.18.71,4.35,1.41,6.53,2.12.72.39,1.45.79,2.17,1.18-2.78-.27-5.56-.53-8.34-.81-.2-.02-.38-.23-.57-.36.16-.07.32-.19.49-.2,1.35-.07,2.71-.11,4.06-.16-1.28-.16-2.57-.38-3.86-.46-1.87-.12-3.54-1.88-5.56-.64,1.45.7,2.9,1.4,4.36,2.1-1.8,1.69-3.88,1.74-6.15,1.24-.76-.17-1.64.2-2.46.33.43.37,1.06,1.14,1.25,1.04,2.53-1.27,5.18,2,7.64-.22,2,.62,4.01,1.25,6.01,1.87-2.15.51-4.27,1.2-6.48.03-.58-.31-1.52.05-2.28.15-.04,0-.09.77,0,.81.71.27,1.45.45,2.18.65.72.27,2.25-.1,1.22,1.55-.4.09-.79.17-1.19.26-2.61-1.95-8.58-3.43-9.3-2.25-1.08,1.78-2.06,3.95-2.16-.33-3.44.48-5.44,3.22-7.68,5.34-.79.75.73,3.42-1.88,3.87-1.99-2.5-3.99,1.2-5.98-.02Z"/><path class="cls-10" d="M96.7,138.2c-1.54,2.05-3.79,4.09-.05,6.18-1.61,2.58,1.31,5.14.17,7.52-.92,1.93.69.99.94.98,2.03-.09,1.56,1.79,2.26,2.73,0,.81,0,1.61,0,2.42-2.46-3.25-7.29-5.04-6.49-10.42.02-.16-2.12-.65-3.26-.99.4.59.96,1.13,1.17,1.79,1.81,5.51.92,11.02-.12,16.52-.21,1.41-.42,2.81-.62,4.22-.59.39-1.18.78-1.77,1.17-.33-.87-.46-1.89-1.01-2.6-1.61-2.08-1.34.71-1.34.76.08,2.54-2.77,2.56-3.49,3.91-1.27,2.39-6.44,1.04-5.1,5.59.17.57-.34,1.34-.54,2.01-1.4-1.06-3.56.73-4.72-1.25,8.42-11.82,8.66-26.95,15.93-39.23.4-.68.92-1.29,1.39-1.93,2.03.01,4.05.03,6.08.04.4-.19.79-.39,1.19-.58-.2.39-.41.77-.61,1.16Z"/><path class="cls-52" d="M103.97,258.48c-.29,3.82-3.87,3.07-6.01,4.31-2.17,1.44-1.59,3.73-1.73,5.78-.01.16.97.58,1.01.52.58-.79,1.07-1.64,1.58-2.47.73,1.44,1.67.92,2.63.3.13,1.8,1.24,1.64,2.47,1.25.42.75.56,2.61,1.83,1.12,1.03-1.21,1.29-3.07,1.94-4.62.37-.88.82-1.74,1.27-2.58.02-.04.66.15.66.23-.02,1.11.07,2.27-.19,3.34-.51,2.11-1.28,4.16-1.8,6.27-.38,1.54-2.28,1.76-2.54,1.43-3.98-5.13-1.8,1.24-2.86,1.56-.67.2-1.16,1.01-1.73,1.55-.3-.7-.44-1.59-.96-2.02-.43-.35.13-2.7-1.49-.97-.43.45-.51,1.23-.75,1.86-3.37-1.24-6.14.76-7.33,3.03-1.76,3.36,2.07,4.51,4.09,6.21,3.37-.19,6.74-.38,10.11-.57.24-.1.48-.2.71-.3.82,2.38,2.96,4.39,1.99,7.26-2.41-1.27-4.75-2.73-7.26-3.75-1.59-.64-3.44-.73-5.18-.79-.21,0-.85,1.87-.64,2.7.7,2.73,5.9,1.83,5,6.02-1.22.02-2.03.55-2.23,1.82.44,0,.89-.02,1.33-.03-1.46,3.61,1.42,4.37,3.63,4.6,3.34.34,6.76-.18,9.83,1.67-1.8.8-3.61,1.61-5.41,2.41-2.77-.13-5.55-.24-8.32-.4-1.7-.1-2.67-.68-1.53-2.54,1.9-3.1-1.75-3.91-2.46-5.93-.19-.53-.52-1.46-.32-1.61,3.47-2.71-1.25-1.27-1.3-2.52-.1-2.28-.82-4.56-1.44-6.79-.67-2.42-1.51-4.8-2.28-7.19-3.17-5.02-3.36-10.87-4.56-16.44,2.06,1.66,3.69,4.25,6.99,3.2-7.31,2.88-5.59,6.04-.29,9.31,2.13-.95,5.8,1.65,6.51-2.1.69-3.68-3.63-4.32-5.33-6.64-.21-.36-.43-.73-.64-1.09-1.8-1.68-.11-10.73,2.13-11.43.27-.08.54-.16.82-.24-.06.43-.03,1.18-.21,1.24-1.7.54-.46,1.99-.97,2.87,1.57-.57,2.6-2.85,4.77-1.47.17-.51.57-1.06.48-1.53-.36-2.09-.85-4.16-1.3-6.24.21.44.41.89.62,1.33.5.36,1,.71,1.5,1.07-.36.11-.73.23-1.09.34,1.71,1.37-.16,4.27,2.28,5.32-.54.32-1.09.65-1.63.97.91.03,1.83.01,2.73.1.74.08,1.47.28,2.2.43.22.28.44.57.66.85ZM93.04,264.11c-.25-.39-.04-.06.18.28.94-1.8,1.89-3.6,2.78-5.43.02-.04-.73-.68-1.03-.62-2.93.63-2.57,2.83-1.93,5.77Z"/><path class="cls-60" d="M134.82,137.94c-.5.99-1.01,1.98-1.51,2.98-1.7,2.82-3.4,5.64-5.1,8.47-.38-.02-.77-.04-1.15-.07,2.47-5.18,4.99-10.34,7.39-15.56.54-1.18.66-2.56.98-3.85-1.82.51-1.36,2.31-1.99,3.5-1.95,3.67-3.93,7.34-5.97,10.96-.32.56-1.04.89-1.58,1.33-1.63-3.89,2.55-5.28,3.45-8.08.2-.62.04-1.35.04-2.03-.27.09-.69.1-.79.29-2.41,4.26-5.36,8.41-3.37,13.75-1.33.69-2.4.53-3.05-.95.02-.37.03-.75.05-1.12-.8-.31-1.6-.62-2.4-.93.21-.81.42-1.61.63-2.42.13.15.26.3.39.45.09-.12.28-.27.25-.35-.74-2.62,1.19-3.85,2.76-5.23,2.85-2.5,2.87-2.48,1.67-3.56,0-.08,0-.15,0-.23,2.11-1.82,4.22-3.64,6.32-5.48.12-.11.04-.41.13-.59.34-.69.72-1.37,1.08-2.06-.61.09-1.21.18-1.82.27.3-.39.6-.79.9-1.18,3.65-2.76,7.91-3.96,12.17-5.45,2.78-.97-2.84.25-.88-1.57-.16-.08-.43-.26-.47-.23-3.19,3.24-8.67,2.55-11.35,6.63-.42.2-.84.4-1.26.61.61-2.09,2.1-3.11,3.81-4.45,2.02-1.59,6.16-.77,6.2-4.91,0-.88.81-1.75,1.25-2.62l1.35,1.78c-.2.14-.46.25-.6.44-.53.75-1.02,1.52-1.53,2.29.61-.52,1.18-1.12,1.85-1.55,2.99-1.96,5.78-4.59,9.86-3.27-.48,1.81-.97,3.62-1.45,5.44-1.69-2.63-4.05-.08-5.99-.75-.12-.04-.32.17-.49.26,1.04.25,2.14.37,3.11.77,1.25.52.26,1.25-.16,1.53-1,.66-2.13,1.13-3.21,1.67,1.33.02,2.66.04,3.99.07.22.17.43.34.65.5-.36.05-.73.1-1.09.15-1.56.19-3.12.37-4.67.6-.33.05-.63.31-.94.48,1.69-.03,3.38-.06,5.06-.11.36-.01.72-.16,1.08-.25.02.23.13.6.04.66-.32.2-.69.37-1.07.42-2.25.33-4.5.63-6.76.94,2.14,0,4.28-.02,6.42,0,.27,0,.53.16.8.24-.52.31-1,.8-1.55.91-1.34.27-2.71.36-4.07.52.53.2,1.06.6,1.58.57,1.39-.07,3.53-1.23,2.15,1.85-.55.27-1.24.42-1.63.84-1.9,2.06-5.29-1.41-6.81,1.88-.9,1.6-1.8,3.2-2.7,4.81ZM147.72,117.91c1.05-.1,2.4.03,3.53-.39,1.5-.56-4.55-.53-.23-1.75-1.97-1.53-3.86.03-5.77.22-.32.03-.56.8-.84,1.23,1.03.21,2.07.43,3.31.68ZM145.1,121.68c-3.18.99-4.42,1.41-5.68,1.76-2.23.63-3.66,2.14-4.58,4.17-.14.31.17.83.28,1.25.73-.98,1.42-1.99,2.2-2.94.23-.27.71-.32,1.05-.51,1.65-.91,3.29-1.82,6.72-3.74Z"/><path class="cls-111" d="M138.08,340.21c-.27.34-.53.96-.81.97-8.05.26-4.53,7.41-6.48,11.21-2.03,3.95-2.84,8.52-4.36,12.75-.25.69-1.38,1.05-2.11,1.57.01-.72.07-1.44.03-2.15-.32-5.51-1.86-11.06,1.52-16.32,1.32-2.05,1.88-4.6,2.77-6.93.11-.3.09-.66.13-.99-.44.14-1.23.21-1.28.43-2.39,10.71-11.41,19.29-10.06,31.2.29,1.62-2.7,3.2-.06,4.84.12.17.23.35.35.52-5.22-2.19-5.77-7.01-6.58-11.68,3.8.03,4.74-2.42,5.88-5.6,1.9-5.28,5.01-10.03,6.54-15.62,1.27-4.65,2.86-9.48,6.2-13.32,2.77,3.04,5.55,6.08,8.32,9.12Z"/><path class="cls-24" d="M129.76,331.09c-3.34,3.84-4.93,8.67-6.2,13.32-1.52,5.58-4.63,10.33-6.54,15.62-1.15,3.18-2.08,5.63-5.88,5.6-.61-.49-1.23-.99-1.84-1.48,2.88-2.42.59-6.27,2.48-8.97,0,0-.17-.14-.26-.21-1.07,1.94-2.14,3.88-3.23,5.81-.24.43-.52.83-.78,1.25,1.69-2.58-2.83-1.32-1.97-3.03,1.59-3.17,3.36-6.25,5.25-9.25,1.41-2.25,3.13-4.31,4.71-6.45-.77,2.15-1.55,4.29-2.31,6.44-.07.21-.09.43-.13.65.26-.08.62-.07.75-.25,5.01-6.7,9.99-13.42,14.98-20.13.32.36.65.72.97,1.08Z"/><path class="cls-111" d="M128.79,330.01c-4.99,6.72-9.97,13.43-14.98,20.13-.13.17-.5.17-.75.25.04-.22.06-.45.13-.65.77-2.15,1.54-4.3,2.31-6.44-1.58,2.14-3.29,4.2-4.71,6.45-1.89,3-3.67,6.09-5.25,9.25-.86,1.71,3.66.45,1.97,3.03-.1.4-.2.8-.3,1.2-2.09-.78-1.93-2.91-2.71-4.48-.62-2.97,1.47-5.03,3.31-6.2,3.62-2.3,1.12-6.53,3.68-9.04,3.78-3.7,9.48-5.56,11.07-11.39.09-.33.18-.66.27-.99-3.12,1.07-8.93,2.18-8.92,3.2.08,6.07-5.71,8.64-7.02,13.63-.39,1.48-1.36,2.81-2.06,4.21.19-1.61.39-3.22.58-4.83,1.25-2.53,2.16-5.33,3.84-7.53,2.28-2.98.75-5.58.05-8.36,2.79,6.17,3.44.6,4.75-.9.99-1.14,1.85-2.4,2.77-3.6-.54,2.34.87,2.9,2.52,2.15,2.57-1.17,4.93-2.81,7.37-4.25-.63,2.26.65,3.75,2.08,5.18Z"/><path class="cls-69" d="M127.01,28.74c.59-1.01,1.17-2.02,1.76-3.04.13,3.13-.93,6.36,1.42,9.26.73.9.53,2.55.76,3.86,2.77-.59,1.31-2.94,1.64-4.41.38-1.67-.16-3.54-.17-5.32-.02-2.37,1.07-5.47-.05-6.96-2.59-3.44-1.66,1.91-3.23,1.8.44-3.54,2.53-5.81,5.64-7.29-1.36,4.57-1.03,9.14.06,13.69,1.39,5.84,1.98,6.46,4.51,5,.34,5.15.71,10.29.96,15.44.03.62-.6,1.27-.93,1.9-.56-.54-1.37-.98-1.61-1.64-.5-1.33-.69-2.78-1.01-4.18-.89-4-1.77-8.01-2.66-12.01-.1-.47-.22-.93-.33-1.4-.09.13-.27.27-.26.38.7,5.61,1.42,11.22,2.14,16.82.11.87.34,1.73.33,2.6-.02.97,1.27,3.02-.42,2.63-1.3-.3-2.19-2.85-3.03-4.51-2.96-5.8-5.42-11.77-5.49-18.44,0-1.4-.02-2.8-.02-4.2Z"/><path class="cls-81" d="M116.81,326.93c-.92,1.21-1.77,2.46-2.77,3.6-1.31,1.5-1.96,7.07-4.75.9-.19-.31-.38-.62-.57-.93-.04-2.92-.73-5.43-3.49-7.12-2.29-1.4-1.32-3.09-.14-4.87,3.94-5.93,12.25-1.68,16.34-7.12-.29.58-.47,1.27-.9,1.7-.52.52-1.27.83-1.91,1.23-3.47,1.01-6.95,2.02-10.42,3.04-.23.07-.43.22-.64.33.11.06.22.16.33.16,5.66-.07.71,2.09.64,3.18-.04.6-.32,1.18-.5,1.77.12-.04.27-.04.35-.12,3.01-2.9,5.55-6.67,10.63-5.7.08.02.18-.05.28-.08-.1-.06-.2-.15-.31-.17-.78-.09-1.57-.17-2.35-.26.88-.15,1.76-.27,2.63-.46.25-.06.46-.31.68-.48-.45-.41-.9-.82-1.35-1.23,3.16,1.07,6.03.1,8.84-1.28.28-.14.51-.38.76-.57-.46,0-.92,0-1.37.01-.73.02-1.46.05-2.19.08.35-.69.58-1.83,1.09-1.97.76-.21,2.22-.01,2.51.5,4.63,8.18-3.61,3.02-5.15,4.89-1.23,1.5-2.57,2.91-3.86,4.35-.26.24-.58.44-.75.73-.17.3-.29.97-.25.99.76.29,3.66-1.19,1.23,1.61-.92,1.06-1.77,2.17-2.66,3.26ZM119.5,318.55c-1.18-.1-2.17-.4-3.07-.23-3.01.58-3.86,3.71-6.02,5.33.26.07.56.27.76.19,3.01-1.16,5.94-2.46,8.32-5.29Z"/><path class="cls-114" d="M134.48,82.42c-1.2,2.12-1.86,4.71-4.6,5.49-.24.07-.7-.61-1.05-.95.46-.16,1.08-.18,1.35-.5,2.05-2.44,2.3-6.13,5.51-7.87.31-.17-.23-1.92-.38-2.93-.55.5-1.11.98-1.65,1.49-.21.19-.38.43-.56.64-.08-.31-.19-.61-.23-.93-.46-3.45,2.93-4.27,4.6-6,2.34-2.43,2.33-9.7,8.93-5.44.3.2,1.97-.77,1.97-1.19-.02-8.54-.19-17.08-.33-25.62-.13-3.29-.27-6.58-.4-9.88,0-.19.01-.38.02-.56.09-5.01.18-10.02.28-15.03,0-.32.1-.64.15-.97.12.12.31.23.34.36.14.74.25,1.49.37,2.24.03-.89.05-1.78.1-2.67.09-1.46.19-2.93.29-4.39.43,16.76.81,33.52,1.33,50.27.15,4.75.71,9.49,1.09,14.23-2.35-1.38,1.72-6.46-3.19-5.9-1.06.12-1.86,2.61-3.78.71-2.99-2.97-3.05.11-3.28,1.84-.23,1.73,2.02,3.85-1.14,5.04-2.82,1.06-1.88,3.21-1.21,5.2,0,0,0,0,0,0-2.13-1.6-2.5,1.36-3.97,1.59-.27.04-.37,1.11-.55,1.7Z"/><path class="cls-41" d="M123.13,88.43c6.82,1.15-1.8,5.58,1.58,7.52.31.18.13,1.2.45,1.4,1.13.72,3.48,1.24,2.65,2.56-.89,1.41-3.2.95-4.86-.05-3.38-2.04-7.92-1.79-10.53-5.4-.78-1.08-1.79-1.99-2.69-2.98,1.38.32,2.76.62,4.13.97,1.09.28,2.06,1.44,3.29.36-.97-.57-2.01-1.06-2.91-1.72-1.38-1.01-2.67-2.14-4-3.22.6-2.51,1.2-5.03,1.79-7.54,2.4,4.48,7.25,5.6,11.1,8.09Z"/><path class="cls-60" d="M140.51,147.83c-.15-.29-.31-.57-.46-.86-.2.2-.49.36-.58.6-.84,2.29-1.4,4.71-2.53,6.84-.8,1.5-.63,2.78-.72,4.29-.07,1.28-2.07,2.46-3.22,3.68-.78-2.08-2.33-4.2-2.21-6.23.37-6.63,4.55-11.79,7.56-17.39.47-.88.66-1.91.99-2.87-.33.03-.88-.06-.96.1-.32.61-.45,1.31-.71,1.95-1.05,2.59-2.28,3.63-3.16,2.7.53-.81,1.71-2.02,1.5-2.37-1.63-2.65,5.34-2.02,1.89-5.13,2.28-.37,4.55-.75,6.83-1.09.15-.02.34.28.51.43-.35.24-.78.42-1.03.74-.58.72-1.07,1.51-1.6,2.28,3.34,1.12-4.26,1.86-.11,3.01-.11.09-.23.19-.34.28,1.39.73-4.62,3.18.7,3-.78,2.01-1.57,4.03-2.35,6.04Z"/><path class="cls-14" d="M152.48,415.16c-5.73-.65-9.63-4.59-13.74-7.95-1.46-1.19-2.04-3.47-3.03-5.24-2.81-2.88.27-6.99-3.05-9.77l1.38-2.08c2.49,1.56,1.8,4.37,2.75,6.52,1.36,3.08,3,6.04,4.52,9.06.02-1.86.04-3.71.06-5.57,0-.19,0-.37,0-.56.98-1.62-1.33-4.81,2.43-5.11-.02.1-.04.2-.07.3-.32.18-.93.42-.91.52.51,2.37,1.09,4.72,1.65,7.07,0,.02.01.04.02.06,1.01,2.2,2.02,4.4,3.04,6.6l-.73-6.76c.03-.82-.13-1.72.15-2.45.17-.45,1.03-1.22,1.26.29.21,1.38.41,2.76.78,4.1,1.01,3.7,2.28,7.33,3.47,10.99Z"/><path class="cls-50" d="M123.13,88.43c-3.85-2.49-8.7-3.61-11.1-8.09-1.7-2.9-3.41-5.8-5.11-8.7.68-4.35,3.98-8.15,2.7-12.9,1,3.07,1.8,6.22,3.04,9.19,2.7,6.41,8.84,10.04,12.86,15.4-6.07-3.26-9.45-9.46-14.76-13.56-.41-.32-.71-.77-1.09-1.13-.04-.04-.45.2-.44.22.15.46.24,1,.55,1.34,4.63,5.19,9.28,10.36,13.93,15.53-3.11.26-.03,1.87-.59,2.69Z"/><path class="cls-111" d="M150.67,324.23c-1.9-1.77-1.73,1-2.71,1.24-5.71-4.04-6.53-10.63-8.55-16.58-.17-.5.41-1.25.64-1.88.15.14.3.27.45.41.35.32.69.64,1.04.96.12-.39.43-.85.31-1.14-.19-.47-.66-.82-1-1.22-.41-.48-.82-.97-1.24-1.46.28-.11.59-.34.85-.3,1.5.23,2.99.49,4.47.81,1.52.32,3.02.72,4.53,1.08-1.54.09-3.07.17-4.61.27-.57.04-1.14.12-1.71.18.12.07.23.17.36.22,2.1.71,4.2,1.4,6.3,2.11.29,5.11.58,10.21.87,15.32ZM146.15,313.22c-1.3-.9-2-3.14-4.2-2.08,1.98,1.33,3.96,2.67,5.94,4,.3-.68.99-1.49.82-2.03-.69-2.2-1.64-.4-2.56.11Z"/><path class="cls-8" d="M147.66,28.17c0,.19-.01.38-.02.56-.62,1.18-1.12,2.23-.49,3.73.89,2.13-1.2,1.82-2.3,2.24-.11.04-.31-.15-.47-.24,1.59-2.53-.27-4.69-.72-7.01-.08-.41.28-.91.18-1.31-.07-.28-.55-.46-.85-.69-.19.9-.41,1.8-.55,2.7-.09.57-.04,1.17-.06,1.75-.51-.59-1.41-1.13-1.48-1.76-.35-3.53-.5-7.07-.71-10.61-.09-1.43-.17-2.86-.25-4.29-.51.86-1.03,1.72-1.54,2.59.4-2.29.8-4.57,1.19-6.86.3-.13.6-.25.9-.38.13,1.57.33,3.13.37,4.7.02,1.11-.19,2.23-.27,3.34-.14,1.84,1.42.97,1.28.55-.89-2.72,1.57-4.35,1.87-6.62.06-.46.47-.87.71-1.31.11.34.23.68.33,1.02.36,1.22.72,2.44,1.07,3.66.28-1.37.54-2.74.84-4.11.03-.13.26-.21.4-.32.19,6.22.38,12.43.57,18.65Z"/><path class="cls-85" d="M125.48,236.29c3.03-1.29,6.47-2.07,8.93-4.06,1.3-1.05.92-4.2,1.3-6.4.78,7.62,1.57,15.24,2.35,22.86.08.59.15,1.19.25,1.78.16.97.35,1.94.52,2.92-.57-.43-1.07-1.03-1.71-1.25-3.8-1.32-3.99-1.3-3.79-.43.8,3.53,3.7,3.06,6.25,3.26.09.41.18.82.27,1.22-1.93.85-3.18-.67-4.68-1.34-.37-.17-.82-.17-1.24-.25.08.34.12.71.27,1.02.11.23.36.4.55.59-.27.08-.55.27-.79.22-.37-.07-.98-.26-1.02-.48-.62-3.53-1.16-7.06-1.72-10.6.26.62.35,1.51.82,1.8,1.2.73,2.54,1.22,3.87,1.71.26.1.69-.26,1.05-.41-.92-.39-1.84-.77-2.75-1.17-.2-.09-.39-.22-.59-.33.31-.16.62-.35.95-.46.59-.2,1.2-.35,1.81-.53-.6-.27-1.37-.4-1.78-.85-1.13-1.23-2.11-2.59-3.14-3.9-.03-.04.08-.25.18-.31,3.11-1.85-1.62-.16-.5-1.1-3.53-1.85-1.08,3.11-3.22,2.84.16-1.01.36-2.01.48-3.02.13-1,.18-2.01.27-3.02-.67.8-1.35,1.59-2,2.4-.41.51-.77,1.05-1.15,1.58-.09-.16-.29-.33-.27-.47.14-.94.03-2.13.57-2.75.76-.88.06-.81-.34-1.06Z"/><path class="cls-52" d="M71.79,231.27c1.02,1.95,4.35-.68,4.8,2.41-1.02,2.7.44,6.75,1.47,6.83,3.25.25.61-2.86,1.39-4.32,1.71-3.2-2.71-.25-2.21-2.22,4.08-1.11,7.24,1.57,10.8,2.63-2.23,1.27-4.67,2.3-5.42,5.13-1.07-.69-2.22-.86-3.09.16-.44.51-.82,1.51-.62,2.06,1.12,3.07,3.22,4.84,6.7,4.43,0,.17,0,.34,0,.52-2.03.52-5.1.32-4.71,3.29.21,1.62,2.22,3.46,3.87,4.3,1.63.83,2.04-1.53,2.17-2.47.26-1.93,1.1-3.77,2.8-2.88,1.58.82-2.06,3.51.46,5.12-.7.32-1.39.64-2.09.97-1.74.84-3.48,1.68-5.21,2.52-3.98-5.69-4-12.66-6.2-18.92-1.17-3.35-3.24-6.39-4.91-9.56Z"/><path class="cls-98" d="M148.02,350.33c-.4-3.61-.79-7.21-1.19-10.81.49.21,1.38.4,1.4.65.49,6.82.89,13.65,1.29,20.48.15,2.63.27,5.27.4,7.9.06-2.57.11-5.14.19-7.71.02-.59.18-1.17.28-1.75.81,17.2-.64,34.51,2.67,51.58-.71-1.08-1.92-2.1-2.05-3.24-1.02-8.62-1.82-17.26-2.69-25.89,0-3-.01-6.01-.02-9.01-.09-7.4-.19-14.79-.28-22.19Z"/><path class="cls-98" d="M141.49,261.42c2.6,7.45,5.22,14.89,7.77,22.36.16.47-.2,1.11-.31,1.67-.83-.17-1.66-.34-2.49-.51.59-.31,1.19-.62,1.78-.93-1.08-.67-2.1-1.48-3.26-1.97-.99-.43-2.02-.58-2.12-1.94-.09-1.33,1.47-.89,1.54-1.2.44-1.84-1.6,0-1.32-.63.35-.8,1.44-1.27,2.21-1.88-.49.04-1,.2-1.46.11-.86-.17-1.69-.49-2.54-.75.77-.12,1.55-.18,2.3-.37.5-.12.95-.41,1.42-.63-.43-.11-.91-.39-1.3-.29-2.45.62-3.35-1.21-4.46-2.73.44-.04.88-.06,1.32-.11,1.1-.13,2.19-.28,3.29-.42-.82-.03-1.67.04-2.46-.12-.96-.19-1.88-.59-2.82-.89.91-.08,1.82-.14,2.72-.25.49-.06.97-.21,1.46-.33-.51-.03-1.09.08-1.51-.13-1.39-.7-3.64.15-4.07-2.26v.02c-.55-2.03-.08-2.47,1.89-1.45.74.39,1.86.05,2.81.05-.8-.19-1.61-.36-2.41-.57-1.16-.31-2.32-.65-3.47-.98-.89-5.32,2.7-1.92,4.38-2.28.39-.08.73-.4,1.09-.61Z"/><path class="cls-41" d="M109.62,58.74c1.28,4.76-2.03,8.55-2.7,12.9-2.04-6.45-1.64-11.79,4.35-16.63,2.59-2.1,1.64-7.5,4.32-10.64.47-.55,1.02-1.03,1.53-1.55-.5,1.51-.99,3.01-1.49,4.52,0,0,0,0,0,0-1.64,2.21-3.74,4.8-2.16,7.36,2.6,4.23,6.01,7.96,9.05,11.92.19.25.14.68.21,1.02-.36-.03-.75.02-1.08-.1-1.42-.51-2.81-1.07-4.22-1.61-2.41-2.19-4.46-4.62-5.35-7.85-.16-.57-.44-1.11-.67-1.66-.52.83-2.27.7-1.78,2.3Z"/><path class="cls-53" d="M139.01,79.12c-.67-1.99-1.61-4.14,1.21-5.2,3.16-1.19.91-3.31,1.14-5.04.23-1.73.29-4.81,3.28-1.84,1.92,1.91,2.72-.59,3.78-.71,4.91-.56.85,4.52,3.19,5.9.03.48.06.96.08,1.43-3.09.91-6.17,1.82-9.26,2.72-.29.08-.6.1-.9.14.56,1.27,1.13,2.55,1.69,3.82,0,.39,0,.79-.01,1.18-2.99,1.97-2.63-1.9-4.2-2.41Z"/><path class="cls-89" d="M82.89,259.75c1.74-.84,3.47-1.68,5.21-2.52.69-.33,1.39-.65,2.09-.97-2.52-1.6,1.11-4.3-.46-5.12-1.7-.88-2.54.95-2.8,2.88-.13.94-.54,3.3-2.17,2.47-1.65-.84-3.66-2.68-3.87-4.3-.39-2.97,2.67-2.78,4.71-3.29,1.91.61,3.81,1.22,5.72,1.83.6.9,1.2,1.8,1.8,2.7-2.25.71-3.93,9.75-2.13,11.43-.08.17-.16.35-.24.52-3.3,1.05-4.93-1.54-6.99-3.2-.28-.81-.57-1.63-.85-2.44Z"/><path class="cls-107" d="M105.41,347.33c-.19,1.61-.39,3.22-.58,4.83.7-1.4,1.67-2.73,2.06-4.21,1.31-4.99,7.11-7.56,7.02-13.63-.01-1.03,5.8-2.13,8.92-3.2-.09.33-.18.66-.27.99-1.59,5.83-7.29,7.69-11.07,11.39-2.55,2.5-.06,6.74-3.68,9.04-1.84,1.17-3.93,3.23-3.31,6.2-1.66-3.96-.71-7.71.9-11.41Z"/><path class="cls-46" d="M8.48,217.1c3.26-10.82,13.75-9.87,21.58-13.25,0,0,.07.12.07.12-2.93.53-1.08,6.99-6.12,4.96-.03-.01-.37.48-.31.57,1.91,3-1.2,1.73-1.98,2.15-1.73.94-3.65,1.52-5.47,2.29-1.44.61-2.83,1.31-4.27,1.92-1.12.48-2.26.88-3.4,1.32,0,0-.11-.08-.11-.08Z"/><path class="cls-1" d="M72.72,178.75c1.16,1.98,3.32.19,4.72,1.25.2-.68.71-1.44.54-2.01-1.34-4.55,3.83-3.2,5.1-5.59.72-1.35,3.56-1.37,3.49-3.91,0-.05-.27-2.83,1.34-.76.55.7.69,1.72,1.01,2.6-.1.2-.2.41-.31.61-.6.1-1.2.2-1.8.31.19.51.38,1.01.57,1.52-1.29-.22-3.17-1.5-2.49,1.56.43,1.95.65,3.95-1.38,5.32,0,.51.02,1.02.03,1.53-.77.18-1.54.5-2.31.5-1.58.01-1.2.08-1.52.97-.74,2.06-2.99,1.48-4.58,2.07-.53.2-1.18.05-1.78.05-.28-1.23.14-2.89-1.87-3.06.41-.99.83-1.97,1.24-2.96Z"/><path class="cls-65" d="M199.93,207.5c5.52,3.48,11.05,6.94,16.53,10.47.5.32.68,1.13,1.01,1.71-.65-.01-1.4.18-1.94-.07-8.22-3.81-16.41-7.68-24.6-11.54.72-1,1.24-2.79,2.78-.64.04.06,2.09,2.08,2.9-.18,1.11.08,2.22.17,3.32.25Z"/><path class="cls-9" d="M96.12,137.62c-2.03-.01-4.05-.03-6.08-.04.51-4.36,1.34-8.58,4.84-11.7,1.53,3.77,4.96,2.65,7.81,3.05.46.06.9.32,1.35.49-.38.39-.74.8-1.14,1.15-2.35,2.08-4.72,4.14-7.05,6.25-.08.07.18.52.27.79Z"/><path class="cls-90" d="M134.49,394.72c.53,2.41-.53,5.15,1.51,7.24-6.69-.92-6.12-7.22-8.41-11.39-1.54-1.77-3.06-3.69-1.4-6.03,1-1.4,1.47-2.62.81-4.21.02-.29.04-.59.06-.88,4.17-2.76.75,1.99,2.05,2.07.01.2.02.4.04.6-.02,1.91-.05,3.82-.07,5.73,1.12-.11,2.23-.22,3.35-.32-.03.42-.15.86-.07,1.26.43,2.17.91,4.33,1.38,6.5.25-.19.51-.37.76-.56Z"/><path class="cls-8" d="M139.34,35.34c-2.53,1.46-3.12.84-4.51-5-1.09-4.55-1.42-9.12-.06-13.69.81-1.58,1.62-3.15,2.43-4.73-.2.7-.31,1.43-.61,2.08-.76,1.59-2.22,3.81-.87,4.82,1.66,1.26,1.83-1.43,2.65-2.4.23,5.31.46,10.61.69,15.92l.28,3Z"/><path class="cls-109" d="M126.99,380.33c.66,1.59.19,2.81-.81,4.21-1.66,2.34-.14,4.26,1.4,6.03-1.01-.39-2.01-.79-3.02-1.18-2.2-4.01-4.4-8.01-6.59-12.02-.09-.01-.17-.03-.25-.06-.12-.17-.23-.35-.35-.52.91-.32,1.83-.64,2.74-.97,4.36,3.84,3.41-1.61,4.34-2.84.71-.95.46-2.78,1.98-3.53.15-.07.62.16.62.2-.3,1.9-.69,3.78-.95,5.68-.29,2.12-.46,4.26-.69,6.4.52-.47,1.05-.94,1.57-1.41Z"/><path class="cls-21" d="M149.79,308.91c-2.1-.7-4.2-1.4-6.3-2.11-.13-.04-.24-.14-.36-.22.57-.06,1.14-.15,1.71-.18,1.54-.1,3.07-.18,4.61-.27-1.51-.36-3.02-.76-4.53-1.08-1.48-.31-2.97-.58-4.47-.81-.26-.04-.56.2-.85.3.41.49.82.98,1.24,1.46.35.4.82.75,1,1.22.12.29-.19.76-.31,1.14-.35-.32-.69-.64-1.04-.96-.15-.14-.3-.27-.45-.41-.23.63-.81,1.38-.64,1.88,2.02,5.94,2.84,12.53,8.55,16.58-.3,1.16,2.37.29,1.3,1.9-.12.17-.82.09-1.18-.06-.9-.37-1.85-.71-2.6-1.3-1.14-.89-2.12-1.98-3.17-2.98.16-3.31-2.12-5.92-2.71-8.91-1.13-5.78-1.57-11.7-2.36-17.55-.08-.6-.54-1.14-.83-1.71.35-.11,1-.34,1.01-.31.4.96,1.3,2.2.99,2.88-1.19,2.6.7,5.05,1.86,5.5,2.81,1.07,6.09.92,9.19,1.23.1,0,.23-.4.35-.62.08,0,.17,0,.25,0,.02,1.4.03,2.8.05,4.2-.11.39-.22.78-.33,1.17Z"/><path class="cls-90" d="M148.31,381.53c.87,8.63,1.68,17.27,2.69,25.89.14,1.15,1.34,2.16,2.05,3.24q1.01,4.78-.29,4.5c-1.01-3.12-2.09-6.22-3.01-9.37-.55-1.87-.94-3.79-1.24-5.72-.23-1.52-1.09-.74-1.26-.29-.28.73-.12,1.62-.15,2.45-.59-4.53-2.2-9.27-1.35-13.51.41-2.06-3.04-6.76,2.56-7.19Z"/><path class="cls-53" d="M141.49,261.42c-.36.21-.7.53-1.09.61-1.68.35-5.27-3.04-4.38,2.28-2.51-5.72-5.03-11.43-7.54-17.15-.09-.6-.18-1.21-.27-1.81.61-.55,1.23-1.1,1.84-1.64.39.55.79,1.1,1.18,1.65.56,3.54,1.1,7.07,1.72,10.6.04.22.65.41,1.02.48.24.05.53-.14.79-.22-.19-.19-.44-.36-.55-.59-.15-.31-.19-.68-.27-1.02.41.08.86.08,1.24.25,1.5.67,2.74,2.19,4.68,1.34.55,1.74,1.1,3.48,1.64,5.23Z"/><path class="cls-16" d="M152.47,94.44c.04.39.07.79.11,1.18-.06,2.98-.06,5.97-.22,8.94-.05.94-.52,1.85-.8,2.78-3.05-2.05-5.76-1.88-8.02,1.22-.2-.11-.39-.23-.59-.34,1.77-1.59,3.55-3.17,5.29-4.78.25-.23.34-.64.51-.97-.33-.02-.74-.18-.97-.04-1.64.99-3.25,2.05-4.86,3.09h0c.33-2.86,2.91-2.96,4.82-3.7.88-.34,1.42,0,.08-.51.39-.58,1.24-1.39,1.09-1.71-.61-1.26-1.29-.09-1.9.2-.85.4-1.64.92-2.49,1.34-.21.1-.52-.03-.79-.05,1.07-.84,2.12-1.71,3.23-2.5,1.09-.77,3.06-.57,3.02-2.57-.01-.71-.36-1.99-.67-2.03-3.34-.37-.53-1.15-.15-1.74,1.71-.19,2.69.71,3.31,2.18Z"/><path class="cls-26" d="M129.14,23.94c1.57.1.65-5.24,3.23-1.8,1.12,1.49.03,4.59.05,6.96.01,1.78.55,3.65.17,5.32-.33,1.47,1.13,3.82-1.64,4.41-.23-1.31-.03-2.96-.76-3.86-2.35-2.9-1.29-6.14-1.42-9.26.12-.59.24-1.18.36-1.76Z"/><path class="cls-56" d="M147.09,9.53c-.14.1-.37.19-.4.32-.3,1.37-.56,2.74-.84,4.11-.36-1.22-.71-2.44-1.07-3.66-.1-.34-.22-.68-.33-1.02-.25.44-.65.85-.71,1.31-.3,2.27-2.76,3.9-1.87,6.62.14.42-1.42,1.29-1.28-.55.09-1.12.3-2.23.27-3.34-.03-1.57-.24-3.13-.37-4.7,3.08-.83,3.09-4.1,4.79-6.03,4.98-1.79,2.72,1.51,2.4,3.43-.19,1.18-.4,2.35-.6,3.52Z"/><path class="cls-91" d="M145.91,183.24c-2.18-.71-4.35-1.41-6.53-2.12,3.43-.2,6.85-.42,10.28-.58.84-.04,1.7.12,2.55.19-1.21-.49-2.42-.98-3.62-1.47-.9-.36-1.81-.73-2.71-1.09.38,0,.76,0,1.14.01.82.04,1.64.09,2.45.14-.82-.34-1.62-.72-2.46-1.01-1.24-.44-2.5-.82-3.75-1.23.18-.02.36-.03.55-.05,3.67,1.15,7.97-.07,11.14,2.97-2.01.63.07,2.5-1.02,3.4.82.88,1.65,1.76,2.47,2.64-1.21.76-2.23.62-3.62.02-2.15-.94-3.9-3.89-6.86-1.83Z"/><path class="cls-18" d="M150.39,359.08c-.1.58-.26,1.17-.28,1.75-.09,2.57-.13,5.14-.19,7.71-.13-2.63-.24-5.27-.4-7.9-.4-6.83-.8-13.66-1.29-20.48-.02-.25-.91-.43-1.4-.65-.12-.32-.24-.64-.36-.96,6.12.03,2.3-5.14,3.91-7.46,0,9.33.01,18.66.02,27.99Z"/><path class="cls-62" d="M143.27,176.08c1.25.41,2.51.79,3.75,1.23.83.3,1.64.67,2.46,1.01-.82-.05-1.64-.1-2.45-.14-.38-.02-.76,0-1.14-.01.9.36,1.81.73,2.71,1.09,1.21.49,2.42.98,3.62,1.47-.85-.07-1.7-.23-2.55-.19-3.43.16-6.85.38-10.28.58-1.14-.21-2.27-.42-3.41-.62.61-2.38,2.79.14,3.73-1.2-1.55-.51-3.1-1.01-4.66-1.52.89-.01,1.78-.04,2.66-.03,1.87.02,3.74.07,5.61.1-1.57-.19-3.13-.36-4.69-.57-.48-.06-.95-.22-1.43-.33.1,0,.21,0,.31,0,1.92-.29,3.84-.57,5.76-.86Z"/><path class="cls-17" d="M150.13,307.75c-.02-1.4-.03-2.8-.05-4.2-.23-1.35-.37-3.83-.72-3.86-3.88-.33-6.59-2.7-9.46-4.86,0,0,0,.02,0,.02.92-.27,1.84-.54,2.77-.81-.12,4.59,5.68-1.36,5.61,3.15.2-.2.51-.36.58-.6.33-1.1.88-2.26.74-3.31-.07-.48-1.57-.75-2.42-1.13-.37-.16-.73-.35-1.1-.52.39-.24.8-.72,1.17-.69,4.01.32,2.61-2.22,2.27-4.21,0-.19-.01-.38-.02-.57,1.99,7.15.83,14.38.63,21.6Z"/><path class="cls-77" d="M157.98,176.6c6.02,2.44,12.49,4.35,13.98,12.04-2.69,1.46-3.27-2.74-5.65-2.11-.01-1.51,1.4-3.43-1.21-4.18-1.36-.75-2.79-1.4-4.07-2.28-1.34-.92-2.52-2.06-3.77-3.1.24-.12.48-.24.72-.36Z"/><path class="cls-55" d="M152.47,94.44c-.61-1.47-1.6-2.38-3.31-2.18-.08-.77-.17-1.55-.25-2.32.54-2.17,1.08-4.34,1.61-6.51.03-.14-.05-.32-.08-.48-.46.18-.93.32-1.37.54-.75.37-1.48.79-2.21,1.18,1.11-1.85,2.06-3.83,3.4-5.5.82-1.02,1.53.01,1.96.86.08,4.8.17,9.6.25,14.4Z"/><path class="cls-51" d="M172.89,190.2c1.85,3.22,4.99,5.02,7.89,7.07-.75.32-2.33.39-.41,1.47,2.13,1.2,4.24,2.44,6.36,3.66-.51.02-1.03.03-1.54.05-6.86-1.67-10.39-8.29-16.49-11.09-.61-.51-1.21-1.01-1.82-1.52,1.43-.69,2.44.13,3.54.88.85.58,1.83.96,2.75,1.44-.09-.65-.19-1.31-.28-1.96Z"/><path class="cls-99" d="M115.62,47.34c.5-1.51.99-3.01,1.49-4.52,3.78-2.64,2.35-7.87,5.44-10.89,1.34-1.31,2.39-2.94,4.47-3.2,0,1.4.02,2.8.02,4.2-1.19,3.2-.99-1.42-1.8-.32-.12-.56-.25-1.12-.37-1.68-.2.08-.5.11-.59.26-1.82,2.96-3.91,5.82-3.91,9.53-.25,1.36-.5,2.73-.75,4.09-.17.91-.33,1.81-.49,2.72-.25-.11-.64-.15-.74-.34-1.05-2.08-1.94-1.82-2.77.15Z"/><path class="cls-29" d="M147.09,9.53c.2-1.17.4-2.35.6-3.52.31-1.92,2.57-5.21-2.4-3.43,1.58-.86,3.17-1.72,4.75-2.58-.28,2.58-.56,5.15-.85,7.73-.1,1.46-.21,2.93-.29,4.39-.05.89-.07,1.78-.1,2.67-.12-.75-.22-1.5-.37-2.24-.03-.14-.22-.24-.34-.36-.05.32-.14.64-.15.97-.1,5.01-.19,10.02-.28,15.03-.19-6.21-.38-12.43-.57-18.65Z"/><path class="cls-91" d="M157.98,176.6c-.24.12-.48.24-.72.36,1.25,1.04,2.44,2.18,3.77,3.1,1.27.88,2.71,1.53,4.07,2.28.8,3.58-1.05,4.06-3.92,3.36,2.14-.2.86-1.95,1.25-2.93.1-.26-.41-.99-.79-1.17-.31-.15-1.08.07-1.26.36-.71,1.13-.79,2.32.2,3.4-1.31.58-1.08-.72-1.5-1.23.36-1.68.11-3.21-1.16-4.47-1.18-1.03-2.24-2.29-3.58-3.03-1.12-.61-2.58-.61-3.89-.87-.44-.09-.88-.15-1.33-.22.44-.05.88-.11,1.32-.16,2.51.41,5.02.81,7.53,1.22Z"/><path class="cls-71" d="M186.73,202.4c-2.12-1.22-4.23-2.46-6.36-3.66-1.93-1.08-.34-1.15.41-1.47,6.39,3.41,12.77,6.82,19.16,10.23-1.11-.08-2.22-.17-3.32-.25-3.29-1.62-6.59-3.23-9.88-4.85Z"/><path class="cls-36" d="M71.48,181.71c2.02.17,1.6,1.82,1.87,3.06-2.86,1.63-5.06,4.51-8.72,4.65-.4.02-.81-.12-1.22-.18,2.69-2.51,5.37-5.02,8.06-7.53Z"/><path class="cls-51" d="M145.95,130.41c1.38-3.08-.76-1.93-2.15-1.85-.51.03-1.05-.37-1.58-.57,1.36-.16,2.73-.25,4.07-.52.56-.11,1.04-.59,1.55-.91-.27-.08-.53-.24-.8-.24-2.14-.02-4.28,0-6.42,0,2.25-.31,4.51-.61,6.76-.94.37-.05.75-.22,1.07-.42.09-.06-.02-.43-.04-.66-.36.09-.72.23-1.08.25-1.69.06-3.38.08-5.06.11.31-.17.61-.43.94-.48,1.55-.23,3.11-.4,4.67-.6.36-.05.73-.1,1.09-.15-.22-.17-.43-.34-.65-.5.81-.79,1.61-1.58,2.42-2.37.06,4.6-2.37,8.36-4.18,12.32-.2-.82-.4-1.65-.61-2.47Z"/><path class="cls-42" d="M186.73,202.4c3.29,1.62,6.59,3.23,9.88,4.85-.81,2.27-2.86.25-2.9.18-1.54-2.15-2.06-.36-2.78.64-4.02-1.68-8.03-3.35-12.05-5.03.2-.09.41-.18.61-.26.56.2,1.13.39,1.69.61,1.66.66,3.3,1.36,4.96,2.01,1.65.64.76-.67-1.84-2.66.3-.1.6-.2.9-.3.51-.02,1.03-.03,1.54-.05Z"/><path class="cls-102" d="M27.11,217.46c-4.4.3-8.8.59-13.2.89-4.1-.3-8.19-.6-12.29-.9,2.29-.12,4.57-.23,6.86-.35,0,0,.11.08.11.08,2.98-.11,5.95-.23,8.93-.34,3.19-.21,6.38-.42,9.57-.63,1.15.15,2.3.3,3.45.45-.74.17-1.47.34-2.21.51-.4.1-.81.2-1.21.3Z"/><path class="cls-17" d="M145.95,130.41c.2.82.4,1.65.61,2.47-1.23,2.97-2.46,5.93-3.7,8.9-5.32.19.69-2.27-.7-3,.11-.09.23-.19.34-.28-4.15-1.15,3.45-1.88.11-3.01.53-.76,1.02-1.55,1.6-2.28.25-.32.68-.5,1.03-.74-.17-.15-.36-.45-.51-.43-2.28.34-4.55.72-6.83,1.09-.13,0-.26,0-.39-.01,1.52-3.29,4.91.18,6.81-1.88.39-.42,1.08-.57,1.63-.84Z"/><path class="cls-12" d="M152.52,113.95c-4.09-1.33-6.87,1.31-9.86,3.27-.67.44-1.24,1.03-1.85,1.55.51-.77,1-1.54,1.53-2.29.14-.19.39-.3.6-.44.1-.08.2-.17.3-.25,1.58-.8,3.13-1.64,4.74-2.37,1.36-.61,2.78-1.08,4.17-1.62-1.27-1.47-2.73.07-4.06-.26-.23-.06-.41-.31-.61-.47.38-.16.75-.39,1.14-.46,1-.2,2.02-.31,3.02-.5.19-.04.33-.31.49-.47-1.86-.04-3.68-1.68-5.59-.18-.41.09-.82.19-1.23.28,1.19-2.82,3.56-2,5.66-1.74,1.91.24,1.73,1.87,1.85,3.24-.1.9-.2,1.81-.29,2.71Z"/><path class="cls-74" d="M179.49,202.79c-.2.09-.41.18-.61.26-4.47-1.55-9.11-1.61-13.77-1.55.83-.2,1.66-.4,2.49-.6-.72-.29-1.43-.64-2.18-.84-1.15-.32-2.33-.53-3.49-.79,1.17-.06,2.34-.07,3.51-.19.5-.05.98-.34,1.47-.52,4.89-.64,8.13,3.59,12.59,4.24Z"/><path class="cls-74" d="M1.62,217.45c4.1.3,8.19.6,12.29.9-.94.36-1.88.72-2.82,1.08.9.93.6,3.23,2.91,2.55-1.55-.05-3.09-.1-4.64-.14.55-.43,1.1-.86,1.64-1.29-1.26.14-2.51.27-3.77.43-.19.02-.35.21-.54.25-.61.12-1.23.21-1.85.31.42-.36.85-.71,1.25-1.09.37-.36.71-.76,1.07-1.14-2.08.73-3.86-.24-5.69-1-.47-.2-.98-.28-1.48-.42.54-.15,1.08-.29,1.62-.44Z"/><path class="cls-88" d="M152.81,111.24c-.12-1.37.07-3-1.85-3.24-2.1-.26-4.47-1.07-5.66,1.74-.72.19-1.44.38-2.16.57.13-.58.26-1.16.39-1.75,2.26-3.11,4.97-3.28,8.02-1.22.28-.92.75-1.84.8-2.78.16-2.98.16-5.96.22-8.94.08,5.21.15,10.41.23,15.62Z"/><path class="cls-91" d="M172.89,190.2c.09.65.19,1.31.28,1.96-.92-.47-1.9-.86-2.75-1.44-1.1-.74-2.11-1.56-3.54-.88-.75-.6-1.51-1.2-2.26-1.8.56-.51,1.12-1.01,1.68-1.52,2.38-.63,2.96,3.57,5.65,2.11.31.52.62,1.04.93,1.56Z"/><path class="cls-76" d="M138.36,16.42c-.83.97-.99,3.66-2.65,2.4-1.34-1.02.11-3.23.87-4.82.31-.64.42-1.38.61-2.08.8-.98,1.6-1.96,2.4-2.94-.4,2.29-.8,4.57-1.19,6.86-.01.19-.03.39-.04.58Z"/><path class="cls-69" d="M44.17,199.37c.05.12.16.35.13.36-2.71,1.73-5.28,3.76-8.19,5.04-1.97.87.41-3.05-2.04-2.6,3.37-.93,6.74-1.86,10.1-2.8Z"/><path class="cls-90" d="M107.21,363.22c.1-.4.2-.8.3-1.2.26-.42.54-.82.78-1.25,1.08-1.93,2.15-3.87,3.23-5.81.09.07.26.21.26.21-1.89,2.7.4,6.55-2.48,8.97-.69-.31-1.39-.62-2.08-.93Z"/><path class="cls-13" d="M150.74,120.56c-.81.79-1.61,1.58-2.42,2.37-1.33-.02-2.66-.04-3.99-.07,1.08-.54,2.21-1,3.21-1.67.42-.28,1.41-1.01.16-1.53-.98-.4-2.07-.53-3.11-.77.17-.09.37-.3.49-.26,1.95.67,4.3-1.88,5.99.75-.11.39-.22.79-.33,1.18Z"/><path class="cls-53" d="M139.58,254.97c-2.55-.2-5.45.27-6.25-3.26-.2-.87-.01-.89,3.79.43.64.22,1.14.82,1.71,1.25-.17-.97-.36-1.94-.52-2.92-.1-.59-.17-1.19-.25-1.78.51,2.09,1.01,4.18,1.52,6.28Z"/><path class="cls-62" d="M150.44,175.38c-.44.05-.88.11-1.32.16.44.07.89.14,1.33.22,1.31.26,2.77.26,3.89.87,1.35.73,2.4,2,3.58,3.03-.99-.22-1.98-.44-2.97-.66-3.17-3.04-7.47-1.83-11.14-2.97,2.21-.22,4.42-.43,6.63-.65Z"/><path class="cls-104" d="M149.5,286.15c0,.19.01.38.02.57,0,0,.01,0,.01,0-2.22.2-4.44.48-6.67.55-.42.01-.89-.74-1.28-1.19-.13-.15-.1-.45-.15-.68.37.21.71.57,1.1.62,1.11.13,2.24.14,3.36.2-.89-.43-1.78-.86-2.67-1.29,1.09-1.78,2.16,1,3.24,0,.83.17,1.66.34,2.49.51.18.23.36.47.55.7Z"/><path class="cls-98" d="M117.97,377.37c2.2,4.01,4.4,8.01,6.59,12.02-4.27-2.07-4.46-6.3-5.43-10.15-.17-.68-.77-1.25-1.17-1.87Z"/><path class="cls-93" d="M149.82,303.54c-.12.21-.26.63-.35.62-3.1-.31-6.38-.16-9.19-1.23-1.17-.45-3.06-2.9-1.86-5.5.31-.68-.59-1.92-.99-2.88-.01-.03-.66.2-1.01.31.29.57.75,1.11.83,1.71.78,5.85,1.23,11.77,2.36,17.55.59,3,2.87,5.6,2.71,8.91-2.02-.15-3.08-.87-1.8-3-1.16-2.55-3.05-5.02-3.35-7.66-.7-6.11-.22-12.36-2.96-18.14,3.37-3.65.14-6.19-1.51-8.99l3.02,1.49c.51,3.16,1.68,5.98,4.18,8.11,0,0,0-.02,0-.02-.63,3.21,2.54,2.9,3.84,4.31,1.66,1.82,6.22-1.3,5.78,3.57-2.15-.05-3.98-.7-5.58-2.29-.68-.68-2.04-.68-3.09-.99.02.23-.04.62.06.66,2.91,1.24,5.2,4.2,8.91,3.18,0,.09,0,.18.01.27Z"/><path class="cls-12" d="M128.79,330.01c-1.44-1.43-2.71-2.92-2.08-5.18.02-.09.03-.18.03-.27.56-.12.88-1.92,1.63-.31.28.61-.11,2.05.07,2.1,1.56.41,3.18.66,4.57-.56.81,1.26,1.51,2.51.55,4.06-.17.28.19.9.31,1.36,2.42-1.24,4.99,1.91,7.38-.24.15-.13.3-.26.45-.38.37,1.53.36,4.09,1.18,4.38,1.88.68,2.05.25,1.16,1.89-3.65.7-5.58-2.54-8.43-3.67-.24-.09-.54-.03-.81-.04.03.35,0,.71.11,1.03.05.16.36.23.55.34,2.19,1.38,4.38,2.75,6.56,4.13,1.72,8.14-3.81-1.9-3.94,1.57-2.77-3.04-5.55-6.08-8.32-9.12-.32-.36-.65-.72-.97-1.08Z"/><path class="cls-15" d="M117.39,299.01l-6.58,4.04c-3-1.66-6.32-1.19-9.56-1.51-2.21-.22-5.08-.98-3.63-4.59l.43-.32c4.98-.43,10,1.95,14.96-.24.12-.05.33.11.49.17-.19.13-.56.28-.55.39.07,1,.12,2.03.41,2.97.08.24,1,.22,1.53.33.07-.52.21-1.04.19-1.55-.03-.8-.47-2.13-.19-2.29,1.12-.64,1.92.17,2.5,1.15,0,.49,0,.97,0,1.46Z"/><path class="cls-70" d="M135.39,278.96l.72-1.09c-1.26-.52-2.73-.8-3.74-1.63-2.32-1.9-5.42-3.27-5.64-6.92-1.53-2.2-3.06-4.4-4.59-6.6-.28-1.54-.6-3.08-.82-4.63-.03-.23.36-.53.56-.79.14.22.35.42.42.66,1.68,6.16,5.63,11.06,9.05,16.26.15.23.74.18,1.13.25-.48-1.55-.74-3.22-1.5-4.63-.89-1.66-2.43-2.98-3.31-4.64-2.68-5.02-5.19-10.13-5.34-16l-.08-.2c-1.09-1.08-3.93.75-3.85-2.29,1.4.68,2.53,2.56,4.43.98.37,1.57.85,3.12,1.08,4.71,1.13,7.49,8.07,12.41,9,19.73.42,3.27,4.72,3.18,4,6.5-.1.45-.11.91-.17,1.37-.38-.14-.77-.28-1.15-.43l-.2-.61Z"/><path class="cls-101" d="M98.82,295.15c.9-4.19-4.3-3.29-5-6.02-.21-.84.43-2.71.64-2.7,1.74.06,3.59.14,5.18.79,2.51,1.02,4.85,2.48,7.26,3.75.82.55,1.63,1.11,2.45,1.66-1.82.44-3.65.87-5.47,1.31-1.68.4-3.36.8-5.05,1.21Z"/><path class="cls-95" d="M104.9,283.71c-.24.1-.48.2-.71.3-3.49-1.84-6.98-3.69-10.48-5.51-.65-.34-1.43-1.3-2.03,0-.41.88-.78,1.68.54,2.49,3.68,2.26,3.62,2.35,1.86,3.59-2.02-1.7-5.85-2.85-4.09-6.21,1.19-2.27,3.96-4.26,7.33-3.03.41.35.78.89,1.25,1.02,3.74,1.07,5.56,3.75,6.34,7.35Z"/><path class="cls-73" d="M119.55,304.97c-3.75,4.03-9.4,2.13-13.74,4.34-.26.13-.79-.3-1.2-.46.44-.63.87-1.26,1.31-1.88-1.25.7-2.51,1.37-3.73,2.12-.86.53-1.66,1.17-2.49,1.75-.33-1.27-1.04-2.59-.88-3.79.21-1.6,1.8-.71,2.77-.78,1.67-.11,3.35-.02,5.03-.02,4.27-.78,8.34-3.67,12.93-1.28Z"/><path class="cls-106" d="M126.73,324.56c0,.09-.01.18-.03.27-2.45,1.44-4.8,3.08-7.37,4.25-1.64.75-3.06.19-2.52-2.15.88-1.09,1.74-2.2,2.66-3.26,2.42-2.81-.48-1.32-1.23-1.61-.05-.02.08-.69.25-.99.17-.29.49-.49.75-.73,2.89-2.86,4.1-1.24,4.77,1.79.6.5,1.2,1.01,1.8,1.51.31.3.62.6.93.91Z"/><path class="cls-51" d="M146.46,284.93c-1.08.99-2.16-1.79-3.24,0-1.61-.4-3.23-.79-4.84-1.19.11-.3.22-.59.32-.89,1.21.05,2.42.12,3.64.14.72.01,1.44-.06,2.17-.1-1.1-.5-2.2-1-3.3-1.5-.4-.18-.79-.36-1.19-.54.39-.14.78-.26,1.16-.42.32-.13.63-.31.94-.46-.68-1.23-1.27-3.46-2.07-3.53-3.92-.37-3.6-3.49-4.44-5.91,1.22.4,2.45.8,3.67,1.2,1.11,1.52,2,3.34,4.46,2.73.38-.1.86.18,1.3.29-.47.22-.93.51-1.42.63-.75.19-1.53.25-2.3.37.84.26,1.68.58,2.54.75.46.09.97-.07,1.46-.11-.77.61-1.86,1.08-2.21,1.88-.28.64,1.76-1.21,1.32.63-.07.31-1.64-.13-1.54,1.2.1,1.36,1.13,1.52,2.12,1.94,1.15.5,2.18,1.3,3.26,1.97-.59.31-1.19.62-1.78.93Z"/><path class="cls-92" d="M134.21,294.23c2.74,5.77,2.26,12.03,2.96,18.14.3,2.65,2.18,5.11,3.35,7.66-.41.12-.81.24-1.22.36-4.82-3.68-4.22-8.85-3.85-13.96.04-.62.09-1.55-.27-1.83-3.04-2.37-.04-5.55-1.21-8.12-.32-.7-.83-1.31-1.25-1.96,0,0-.01.01-.01.01.5-.1,1.01-.19,1.51-.29h-.01Z"/><path class="cls-7" d="M128.21,245.34c.09.6.18,1.21.27,1.81.66,7.68,4.25,14.08,8.74,20.09,0,0-.01-.02-.01-.02-.43.89-1.01,2.03-1.92.62-4.15-6.44-7.75-13.16-9.47-20.72.35-1.09-1.55-3.66,1.82-2.76.19.33.38.65.58.98Z"/><path class="cls-35" d="M114.75,268.71c-.54-.58-1.08-1.15-1.62-1.73-.56-1.63-1.12-3.25-1.68-4.88.08-.61.15-1.22.23-1.82.4.42,1.01.77,1.18,1.27,2.35,7.21,8.95,10.9,13.43,16.33,1.07,1.29,1.95,2.55,3.92,2.43.5-.03,1.05.78,1.56,1.23.02.02-.2.4-.26.39-.59-.11-1.16-.36-1.74-.4-.71-.05-1.43.06-2.15.1,0,0,.02-.01.02-.01-3.5-3.7-7.01-7.4-10.51-11.09-.79-.6-1.58-1.21-2.37-1.81Z"/><path class="cls-78" d="M117.69,297.55c-.57-.98-1.37-1.79-2.5-1.15-.27.16.17,1.49.19,2.29.02.51-.12,1.03-.19,1.55-.53-.1-1.46-.08-1.53-.33-.29-.94-.33-1.97-.41-2.97,0-.12.36-.26.55-.39-.17-.06-.38-.22-.49-.17-4.9,2.18-9.87-.14-14.8.23,4.67-1.83,9.34-3.51,14.31-.94.29.15,1,.07,1.11-.12.7-1.28,1.79-2.72,3.07-1.94.75.46.5,2.57.7,3.94Z"/><path class="cls-42" d="M125.81,247.13c1.73,7.56,5.32,14.27,9.47,20.72.91,1.41,1.49.27,1.92-.62.43,2.41,2.69,1.56,4.07,2.26.42.21,1,.1,1.51.13-.49.11-.97.26-1.46.33-.9.11-1.81.17-2.72.25.94.31,1.86.7,2.82.89.8.16,1.64.09,2.46.12-1.1.14-2.19.29-3.29.42-.44.05-.88.07-1.32.11-1.22-.4-2.45-.8-3.67-1.2-4.48-6.8-8.61-13.76-10.56-21.78-.17-.7-.51-1.56.76-1.61Z"/><path class="cls-82" d="M135.39,278.96c0,.18,0,.36,0,.54-6.21,1.74-7.88-4.34-11.36-6.99-3.17-2.41-5.24-6.26-7.8-9.48.2,0,.41-.01.61-.02,4.47,4.66,9.05,9.22,13.33,14.04,1.56,1.75,3.69.73,5.21,1.9Z"/><path class="cls-97" d="M119.51,260.33c-3.19-3.12-6.39-6.23-9.56-9.38-.23-.23-.2-.71-.29-1.07.32.1.74.11.96.32,1.77,1.72,3.48,3.5,5.27,5.21.67.64,1.48,1.15,2.27,1.64.06.04.71-.54.77-.9.24-1.3-.62-1.5-1.67-1.62-.19-.02-.31-.99-.39-1.54-.15-1.05-.24-2.1-.35-3.15-.25.71-.41,1.48-.8,2.12-.21.35-.81.45-1.23.67.07-.38.01-.88.24-1.11,1.74-1.76-1.47-4.24.88-5.87,0,0-.02-.02-.02-.02,1.44,4.87,6.06,8.88,3.92,14.71,0,0,0,0,0,0Z"/><path class="cls-11" d="M119.55,304.97c-4.59-2.38-8.65.51-12.93,1.28-.22-.21-.43-.42-.65-.64,1.8-.8,3.61-1.61,5.41-2.41,2.1-1.49,4.2-2.99,6.31-4.48,4.03,1.07-.31,4.63,1.86,6.25Z"/><path class="cls-55" d="M128.21,245.34c-.19-.33-.38-.65-.58-.98.09-.58.19-1.15.28-1.73,2.14.27-.31-4.69,3.22-2.84-1.12.95,3.61-.75.5,1.1-.09.06-.21.27-.18.31,1.03,1.32,2.01,2.68,3.14,3.9.41.45,1.18.58,1.78.85-.6.17-1.21.33-1.81.53-.33.11-.63.3-.95.46.2.11.38.24.59.33.91.4,1.83.78,2.75,1.17-.35.15-.78.51-1.05.41-1.32-.49-2.67-.98-3.87-1.71-.47-.28-.56-1.18-.82-1.8-.39-.55-.79-1.1-1.18-1.65-.61.55-1.23,1.1-1.84,1.64Z"/><path class="cls-92" d="M132.7,285.24c1.65,2.8,4.88,5.34,1.51,8.99,0,0,.01.01.01.01-.27-2.1-.09-4.42-.96-6.24-.67-1.39-1.59-4.11-3.7-3.32-1.23.46.61,2.09,1.16,3.11,1.16,2.12,2.81,4.05,1.98,6.74,0,0,.01-.01.01-.01-2.56-3.96-5.3-7.85-5.09-12.91,0,0-.02.01-.02.01.32,3.13,4.81.41,5.08,3.61Z"/><path class="cls-92" d="M138.7,282.85c-.11.3-.22.59-.32.89.19.41.38.81.57,1.22-.17.27-.34.55-.51.82-.8-1.24-1.17-3.81-2.95-2.89-1.31.68.98,1.82,1.48,2.85.66,1.34,1.73,2.48,2.62,3.71-1.78,3.42,1.9,3.16,3.08,4.58-.92.27-1.84.54-2.77.81-2.5-2.13-3.68-4.95-4.18-8.11-.67-1.37-1.35-2.73-2.02-4.1-.4-.82-.04-2.12.61-1.41,1.33,1.44,3.7-.72,4.39,1.64Z"/><path class="cls-80" d="M118.54,238.08c1.32-.18,2.64-.36,3.96-.54-1.12.92,3.88,2.93-.58,3.27-.12,0-.22.28-.33.43.36.21.7.47,1.09.61,2.26.82.71,2.56.92,3.86.03.18-.36.43-.55.64-.19-.83-.13-2.13-.62-2.4-2.39-1.3-2.56-3.94-3.88-5.86Z"/><path class="cls-90" d="M116.56,263.02c-.2,0-.41.01-.61.02-1.58-3.58-4.1-6.14-7.65-7.92-1.09-.55-2.09-2.34-2.11-3.57-.01-.76,1.49,0,2.11.68.3.33.48.77.8,1.07,2.08,1.91,4.11,3.88,6.29,5.65,1.43,1.16,1.94,2.38,1.17,4.07Z"/><path class="cls-3" d="M105.69,239.66c1.11-.23,2.22-.46,3.33-.69,3.17,1.22,1.51,3.52,1.24,5.51-.14,1.01.02,1.67,1.3,1.47.71-.11,1.45-.02,2.17-.02-.61.31-1.44.47-1.78.96-3.13,4.5-1.94-1.48-3.25-1.32,2.13-3.57-.68-4.62-3.01-5.92Z"/><path class="cls-23" d="M111.45,262.1c.56,1.63,1.12,3.25,1.68,4.88-.48,1.52-1.03,3.03-1.42,4.57-.32,1.27-.44,2.6-.65,3.9-.36-.1-1.03-.18-1.04-.29-.09-1.54-.41-3.16-.03-4.6.73-2.79,2.23-5.41,1.46-8.46Z"/><path class="cls-3" d="M100.61,239.34c1.21.1,2.41.2,3.62.3-.27.62-.54,1.24-.81,1.87.54.11,1.1.37,1.6.29,1.38-.22,1.77.19,1.58,1.62-.13,1.04-1.6,2.53.61,3.17-.12.37-.18.76-.37,1.09-.09.17-.56.33-.58.31-.29-.42-.52-.87-.78-1.3-.79-1.27.5-3.37-1.52-4.06-.33-.11-1,.77-1.51,1.19-.39.36.06,2.03-1.32.84-.3-1.76,1.71-3.74-.52-5.3Z"/><path class="cls-67" d="M121.86,262.73c1.53,2.2,3.06,4.4,4.59,6.6-2.52-2.31-5.09-4.57-7.51-6.98-.24-.24.37-1.33.58-2.02,0,0,0,0,0,0,.78.8,1.57,1.59,2.35,2.39Z"/><path class="cls-57" d="M114.75,268.71c.79.6,1.58,1.21,2.37,1.81-2.98.92-1.15,3.96-2.48,5.66-.6.77-.76,1.88-1.12,2.83-.26-.12-.75-.25-.74-.36.06-1.01.12-2.02.33-3,.5-2.32,1.09-4.63,1.64-6.94Z"/><path class="cls-69" d="M108.98,291.28c.05-3.75,1.17-4.67,2.83-5.06.18-.04.47.38.71.59-1.7,1.35,1.65,4.48-1.71,5.07-.97.17-2.13-.72-1.83-.61Z"/><path class="cls-51" d="M98.82,266.63c-.51.83-1.01,1.68-1.58,2.47-.04.05-1.02-.36-1.01-.52.14-2.05-.44-4.34,1.73-5.78,3.1.64,1.08,2.44.86,3.83Z"/><path class="cls-73" d="M114.68,291.49c-.15-.34-.52-.78-.41-.98.9-1.75-1.16-4.38,1.58-5.44.28-.11,1.64,1.42,1.52,1.62-.9,1.53-.04,4.01-2.69,4.81Z"/><path class="cls-95" d="M107.79,275.16c-1.58,1.31.24,3.89-2.22,4.24-1.28.19-1.67-1.26-1.51-2.29.2-1.29.3-2.94,2.18-3.02.43-.02.88.59,1.54,1.07Z"/><path class="cls-22" d="M115.39,280.23c.75-2.27,1.45-4.37,2.14-6.47.29.81.92,1.66.81,2.41-.3,2.15-.89,4.26-1.37,6.39-.5-.74-1.01-1.48-1.59-2.33Z"/><path class="cls-72" d="M103.93,268.17c-1.23.39-2.35.55-2.47-1.25,1.87-1.52,1.32-5.01,4.47-5.5.27-.04.51-.18.77-.28,0,.22.1.56,0,.63-2.24,1.57-2.12,4.15-2.77,6.4Z"/><path class="cls-12" d="M125.81,323.65c-.6-.5-1.2-1.01-1.8-1.51.11-1.5,1.24-2.04,2.41-2.12,1.64-.11,2.32,1.27,3,2.5-1.2.38-2.41.76-3.61,1.14Z"/><path class="cls-28" d="M101.13,244.64c1.37,1.19.93-.48,1.32-.84,1.46,2.86,2.61,5.63-1.83,6.93,0,0,0,0,0,0,.22-2.03,1.92-3.93.52-6.09Z"/><path class="cls-28" d="M100.01,256.12c-2.44-1.06-.57-3.95-2.28-5.32.36-.11.73-.23,1.09-.34.6.09,1.19.18,1.79.27,0,0,0,0,0,0-.38,1.78,1.04,3.76-.61,5.39Z"/><path class="cls-59" d="M128.26,297.03c-.57.86-.87,1.32-1.18,1.78-.91-1.86-1.84-3.71-2.7-5.59-.03-.06.64-.44.99-.67.95,1.48,1.9,2.95,2.89,4.48Z"/><path class="cls-90" d="M114.69,239.6c.22-.38.43-.75.65-1.13,4.19.6,2.72,3.33,1.98,5.61-.2.64-1.14,1.04-1.74,1.55,0,0,.02.02.02.02.83-2.19,2.63-4.52-.91-6.05Z"/><path class="cls-3" d="M103.97,258.48c-.22-.28-.44-.57-.66-.85.19-1.51.38-3.02.58-4.53.31.23.83.41.9.71.43,1.66,1.69,3.52-.82,4.67Z"/><path class="cls-62" d="M111.4,198.2c1.99,1.21,3.99-2.49,5.98.02.1,1.2.48,2.47.24,3.6-.27,1.2-5.51-.46-1.94,3.26-.19.08-.36.19-.56.23-5.44,1-10.88,1.98-16.31,3.02-.44.08-.79.61-1.19.92.46.01.92.08,1.37.03.78-.08,1.64-.5,2.31-.29,1.18.38,2.23,1.14,3.34,1.74-1.72.13-3.44.31-5.16.36-.78.02-1.57-.29-2.36-.33-2.74-.13-4.93,1.18-7.01,2.76-.93.19-1.86.37-2.79.56,1.03,0,2.06,0,3.09.03,2.88.1,5.76.17,8.64.35.47.03,1.81-.73,1.29.9,1.7,2.08,3.93.72,5.92.91.9.68,1.8,1.35,2.7,2.03l-7.74.37c-4.5-.31-8.66.37-11.74,4.11-.8.14-1.59.27-2.39.41-3.57.64-7.38-1.14-10.79,1.08-2.39-.49-4.78-.98-7.16-1.47-5.86,2.06-11.74-1.49-17.48-.08-4.05.99-7.58-.78-11.37-.95-.81-.04-1.58-.78-2.37-1.2.79-.45,1.58-.9,2.37-1.35.53-.28,1.06-.56,1.59-.84,3.01-.36,3.85,3.9,7.55,3.11,2.76-.59,4.44-4.38,7.84-2.51-.13-.4-.13-.94-.4-1.16-.77-.63-1.64-1.12-2.48-1.67.8-.3,1.59-.78,2.42-.86,1.77-.16,2.76.58,2.64,2.59-.05.8.19,1.95.74,2.4,1.14.92,1.32-.95,1.84-1.02,1.42-.18,3.01-.17,4.35.29,2.19.75,4.04.19,6.08-.47,1.22-.39,2.69,0,4.04.04-.85.19-1.71.34-2.55.58-.29.08-.54.34-.81.52,1.78.01,3.57.09,5.35.01,1.15-.05,2.35-.15,3.42-.54,1.07-.4,2-1.19,2.99-1.81-1.15-.76-2.21-1.74-3.45-2.25-6.82-2.8-13.78-1.02-20.7-.5-.37.03-.77-.1-1.11-.25-.11-.05-.18-.52-.09-.61.65-.61,1.29-1.56,2.04-1.67,4.63-.67,9.28-1.25,13.95-1.63,1.48-.12,3.85,1.18,4.37.58,1.19-1.38,5.54,4.07,4.39-2.31-.37-2.05,3.74-1.22,5.94-1.26,1.94-.04,3.88-.45,5.82-.7-.77-2.12,1.34-1.04,1.46-.99,4.55,1.5,8.43-1.59,12.74-1.94,2.7-.22-2.06-3.43.41-5.04.34-.23.51-.73.75-1.11Z"/><path class="cls-64" d="M138.41,191.58c.4-.09.79-.17,1.19-.26,2.1-.1,4.2-.2,6.3-.3,3.52.4,7.05.8,10.57,1.21.11.09.22.19.33.28-.41.39-.82.79-1.23,1.18-.63-.08-1.25-.17-1.88-.25-1.91-.47-2.58,1.66-3.81,1.96-2.34.56-4.72,2.03-7.31.81-.05-.03-.2.15-.31.23.25.11.51.22.76.34,1.56.78,3.12,1.57,4.68,2.36-1.5-.01-3-.02-4.5-.04-1.41-.13-2.83-.42-4.23-.34-1.05.06-2.07.59-3.11.92.9,1.26,2.02.99,3.28.64.41-.12,1.04.52,1.56.81-.33.13-.66.33-1.01.37-1.67.16-3.37.15-5.01.45-1.78.33-3.98.69-1.66,3.23-1.4.5-2.81,1-4.21,1.5-1.49-.54-.3-4.07-3.28-2.94,3.14-2.36-.44-2.38-1.18-3.39-.24-.33-.52-.63-.73-.97-.02-.04.25-.26.38-.4.09.09.17.2.27.26.56.32,1.16.93,1.67.86.59-.08,1.65-.91,1.58-1.14-1.36-4.67,4.87,0,4.31-3.53,1.84.37,3.63.67,5.38-.47.97-.63,2.12-.99,3.18-1.48-.67-.63-1.34-1.26-2.01-1.9Z"/><path class="cls-79" d="M100.61,250.73c-.6-.09-1.19-.18-1.79-.27-.5-.36-1-.71-1.5-1.07,3.47-1.72.03-4.43.89-6.58.21-.52,1.24-2.23-.61-2.24-1.7,0-.85,1.65-.95,2.49-.2,1.64,0,3.33.05,5,.45,2.08.94,4.15,1.3,6.24.08.47-.31,1.02-.48,1.53-2.16-1.38-3.2.9-4.77,1.47.51-.88-.73-2.33.97-2.87.18-.06.14-.81.21-1.24-.27.08-.54.16-.82.24-.6-.9-1.2-1.8-1.8-2.7-1.59-2.22-2.39-4.03,1.46-4.76,1.65-.31,1.86-2.01,1.59-3.57-.05-.27-.1-.53-.15-.8-.71.33-1.52.54-2.1,1.03-1.05.88-1.95,1.93-2.92,2.91-.91-.37-1.83-.74-2.74-1.11,1.49-1.28,3.04-2.51,4.44-3.89.37-.36.25-1.2.36-1.83-.49.03-1.02.21-1.45.07-3.9-1.32-2.64,4.41-5.72,4.17-.5-.41-1-.82-1.5-1.23.75-2.83,3.2-3.86,5.42-5.13,4.19.91,8.38,1.82,12.58,2.74,2.23,1.56.22,3.55.52,5.3,1.4,2.16-.3,4.06-.52,6.09Z"/><path class="cls-87" d="M69.13,222.81c2.39.49,4.78.98,7.16,1.47,3.59-.44,7.41,1.4,10.79-1.08.8-.14,1.59-.27,2.39-.4,3.91-1.37,7.83-2.74,11.74-4.11,2.58-.12,5.16-.25,7.74-.37.34.03.68.05,1.02.08-1.1.23-2.2.44-3.3.7-.57.13-1.26.18-1.65.54-3.44,3.18-8.21,2.39-11.86,4-2.79,1.23-7.22-.68-8.64,3.61-.02.07-.33.16-.38.11-4.09-3.79-9.97-.32-14.19-3.51-.34-.26-.55-.68-.82-1.03Z"/><path class="cls-33" d="M128.83,206.67c1.4-.5,2.81-1,4.21-1.5.3.2.59.39.89.59-4.46,3.01-7.63,7.7-12.82,9.79-.53.21-1.09.76-1.29,1.28-.6,1.55-3.5,2.22-5.72,1.22.22-2.41-3.12.17-2.98-2.12,0,0-.01,0-.01,0,6.4,1.35,13.84-3.37,13.21-8.39.19-.02.37-.03.56-.05,1.32-.28,2.64-.55,3.96-.83Z"/><path class="cls-83" d="M179.49,202.79c-4.45-.65-7.7-4.88-12.59-4.24-.08-.01-.16-.03-.25-.03,1.72-.46,1.95-1.5,1.12-2.93,0-.13.01-.27.02-.4l16.49,7.56c2.6,1.99,3.49,3.3,1.84,2.66-1.66-.65-3.31-1.34-4.96-2.01-.55-.22-1.12-.41-1.69-.61Z"/><path class="cls-74" d="M167.78,195.58c.83,1.44.6,2.47-1.12,2.93-3.56-3.16-7.93-.13-11.73-1.52,1.18-.27,2.37-.55,3.55-.82-.97-.83-1.94-1.66-2.91-2.49.41-.39.82-.79,1.22-1.18.9-.02,2.02.99,2.6-.54,3.82-1.15,4.93,3.93,8.38,3.63Z"/><path class="cls-75" d="M133.93,205.77c-.3-.2-.59-.4-.89-.59-2.32-2.54-.12-2.91,1.66-3.23,1.64-.3,3.34-.29,5.01-.45.34-.03.67-.24,1.01-.37-.53-.29-1.15-.93-1.56-.81-1.26.36-2.38.63-3.28-.64,1.04-.32,2.06-.86,3.11-.92,1.4-.08,2.82.21,4.23.34,2.92,1.88-4.16,2.94-.4,4.88-.97.02-1.96-.06-2.91.07-2.06.29-4.48-.59-5.97,1.71Z"/><path class="cls-108" d="M147.71,199.13c-1.56-.79-3.12-1.58-4.68-2.36-.25-.12-.51-.23-.76-.34.11-.08.25-.25.31-.23,2.58,1.22,4.97-.26,7.31-.81,1.22-.29,1.9-2.43,3.81-1.96-.5,1.1-1,2.21-1.5,3.31-.45-.09-.91-.18-1.36-.26.31.37.62.73.93,1.1.14.18.28.36.41.54-1.49.34-2.98.67-4.47,1.01Z"/><path class="cls-115" d="M41.86,218.39c-.53.28-1.06.56-1.59.84-1.18-.27-2.36-.55-3.53-.82-2.81-.41-5.61-.83-8.42-1.24.74-.17,1.47-.34,2.21-.51-1.15-.15-2.3-.3-3.45-.45,3.52-1.25,7.02-.33,10.54.03.04.11.08.22.12.33-.58.28-1.15.57-1.73.85,1.35.21,2.7.42,4.05.64.6.1,1.21.22,1.81.33Z"/><path class="cls-5" d="M28.32,217.16c2.81.41,5.61.83,8.42,1.24-3.74.71-7.47,1.46-11.22,2.11-.93.16-1.91.01-2.86,0,1.05-.34,2.1-.66,3.14-1.03.91-.33,1.8-.72,2.7-1.09-.46-.32-.92-.63-1.38-.95l1.21-.3Z"/><path class="cls-8" d="M77.23,233.98c-.5,1.97,3.93-.98,2.21,2.22-.78,1.46,1.86,4.58-1.39,4.32-1.03-.08-2.49-4.14-1.47-6.83.22.1.43.19.65.29Z"/><path class="cls-89" d="M152.2,196.74c.5-1.1,1-2.21,1.5-3.31.62.08,1.25.17,1.87.25.97.83,1.94,1.66,2.91,2.49-1.18.27-2.37.55-3.55.82-.91-.08-1.82-.17-2.73-.25Z"/><path class="cls-25" d="M111.12,215.93c-.14,2.3,3.2-.28,2.98,2.12-1.38.11-2.75.22-4.13.33-.34-.03-.68-.05-1.02-.08-.9-.68-1.8-1.35-2.7-2.03,1.62-.12,3.24-.23,4.86-.35Z"/><path class="cls-69" d="M143.54,108.57c-.13.58-.26,1.16-.39,1.75.72-.19,1.44-.38,2.16-.57.41-.09.82-.19,1.23-.28-1.1,2.11-2.21,4.22-3.31,6.33-.1.08-.2.17-.3.25-.45-.59-.9-1.19-1.35-1.78-.44.87-1.24,1.75-1.25,2.62-.04,4.14-4.18,3.32-6.2,4.91-1.7,1.34-3.2,2.37-3.81,4.45-1.7,1.89-3.4,3.78-5.1,5.67-.2-.29-.4-.57-.6-.86,2.28-3.3,4.56-6.59,6.84-9.89,0-.51.02-1.02.02-1.54,1.48-3.29,2.96-6.57,4.44-9.86.86-3.7,3.33-7.99,2.24-10.98-1.87-5.15,1.44-8.49,2.17-12.64.16-.92,1.27-2,2.2-2.39,1.15-.48,1.03.54.58,1.18-.26.38-1.18.6-1.15.83.43,4.43-3.92,7.54-2.33,12.95,1.19,4.06-1.75,9.46-3.28,14.12-.88,2.68-2.62,5.06-3.94,7.6-.16.31-.11.73-.16,1.11.57-.21,1.33-.25,1.69-.65,4.61-5.2,6.31-11.48,6.76-18.26.62-9.21,1.64-18.32,8.9-25.19.32-.3.96-.31,1.45-.34.14,0,.29.43.44.66-.43.21-.87.38-1.28.62-4.24,2.53-4.96,7.15-6.53,11.22-.72,1.88-.98,3.94-1.41,5.92-.17.81-.25,1.64-.37,2.46.28.03.77.15.79.09.3-.83.5-1.7.8-2.53.35-.98.77-1.93,1.16-2.89-.03,1.34.04,2.53,1.94,1.66.25-.11.67.16,1.02.26-.19.31-.32.67-.57.91-1.43,1.33-3.38,2.38-4.22,4-.94,1.82-.88,4.15-1.25,6.26.44-.07.89-.14,1.33-.22,0,0,0,0,0,0-1.11,2.37-2.24,4.73-3.3,7.13-.13.3.1.76.17,1.14.25-.12.63-.17.72-.37.84-1.72,1.64-3.46,2.45-5.2.2.11.39.23.59.34Z"/><path class="cls-78" d="M124.63,131.05c.2.29.4.57.6.86-2.31,3.12-6.34,6.13-6.56,9.4-.39,5.67-3.92,8.17-7.25,11.33-.2,0-.39,0-.59,0,.19-.51.38-1.02.58-1.53,2.04-2.38,4.11-4.74,6.08-7.18.17-.21-.24-1-.55-1.4-.12-.15-.93-.08-1.02.1-1.4,2.74-4.89,4.08-5.11,7.59-.71-.11-1.42-.22-2.14-.32,2.05-2.78,1.34-5.2-.71-7.68-.43-.52-.04-1.91.27-2.8.24-.69.89-.84,1.15.15.1.38.04.83.23,1.16.79,1.36,1.64,2.68,2.47,4.01.58-1.07,1.16-2.14,1.74-3.21,0,0-.02.01-.02.01,3.62-2.67,7.58-4.99,9.29-9.55.17-.44,1.01-.63,1.53-.94Z"/><path class="cls-115" d="M101.21,179.26c-.91.15-1.82.29-2.73.44-.12-.31-.24-.62-.35-.93.13-.11.26-.23.39-.34.79-.83,3.36-.25,1.92-2.94-.53-.98-3.1-2.98-.51-4.04,2.98-1.21,3.44-2.74,2.25-5.35-.34-.7-.68-1.4-1.02-2.1.73-.25,1.46-.66,2.19-.68.26,0,.49.99.81,1.49.24.37.65.97.9.93.44-.07,1.19-.59,1.15-.84-.13-1.04-.19-2.4-.86-3-2.55-2.29,1.5-5.57-1.33-7.68.38-.07.99-.32,1.1-.18.71.88,2.06,2.29,1.81,2.71-1.8,3.03.98,5.08,1.32,7.6.03.19.01.55-.02.56-4.23.63-2.67,5.93-5.93,7.35-.29.13-.62.65-.58.94.14,1.09.03,2.41,1.63,2.61.89,2.15-2.15,1.86-2.14,3.46Z"/><path class="cls-18" d="M101.74,166.11c1.2,2.6.74,4.14-2.25,5.35-2.59,1.05-.02,3.05.51,4.04,1.45,2.7-1.12,2.11-1.92,2.94-1.43-.12-.33-1.51-.75-2.26-2.08-3.66-1.67-3.89-7.08-7.02.21-1.41.42-2.81.63-4.22.62.51,1.24,1.01,1.86,1.52-.56,1.86,1.15,2.26,2.12,2.83.85.5,2.18.53,3.15.26.34-.09.26-1.71.37-2.63,0,0,0-.07,0-.07.77-1.83,1.6-3.37,3.35-.74Z"/><path class="cls-80" d="M101.21,179.26c0-1.6,3.03-1.31,2.14-3.46.35-3.02,4.22-4.34,3.77-7.78-.04-.33.49-.99.86-1.07,2.87-.64,2.82-2.34,1.74-4.48-.35-.69-.82-1.42.51-1.55,2.48.17.26,5.12,3.5,3.76,1.12-.47.43-3.24-1.15-4.5.68-1.74,1.42-.33,2.13-.03.23,2.2,2.91,5.13-1.94,5.79-1.34.18-3.62,1.27-3.66,2.01-.2,4.89-1.68,8.86-6.17,11.32-.58,0-1.16,0-1.75,0Z"/><path class="cls-105" d="M131.49,119.63c0,.51-.02,1.02-.02,1.54-.66-.35-1.31-.69-1.97-1.04,1.38-2.13-2.23-4.23-.04-6.38.11-.11.17-.27.25-.41-.81-.28-1.67-.88-2.43-.77-2.65.38-3.8-1.47-4.71-3.24-.36-.69.55-2.03.88-3.08.78.48,1.92.77,2.27,1.46,1.04,2.09,1.06-.77,1.75-.27,1.21.88,2.47,1.67,3.71,2.51-1.84,1.2,1.48,3.46-.93,4.59-.11.05-.12.75.04.87,1.49,1.12-1.6,3.51,1.19,4.22Z"/><path class="cls-110" d="M111.4,151.12c-.19.51-.38,1.02-.58,1.53-.4,1.1-.81,2.2-1.21,3.3-2.2-3.38-3.3-9.04-5.38-10.3-3.69-2.23.11-4.16-1.27-5.61-.36-.38-.41-1.05-.6-1.59.31-.01.72-.16.93-.01.75.5,1.74.96,2.08,1.69,1.43,3.14.65,7.04,3.31,9.79.71.11,1.42.22,2.14.32.2.3.4.59.59.89Z"/><path class="cls-54" d="M119.78,107.89c-2.13,2.7-5.34,2.3-7.97,2.07-2.45-.22-5.52,2.33-7.34-.69-1.71-2.84,2.44-2.48,2.58-2.47,4.06.09,8.12.49,12.18.85.24.02.46.2.54.24Z"/><path class="cls-18" d="M109.62,155.94c.4-1.1.81-2.2,1.21-3.3.2,0,.39,0,.59,0h0c0,.1,0,.19,0,.29.39,2.41.78,4.83,1.17,7.24,1.58,1.27,2.26,4.04,1.15,4.5-3.24,1.36-1.02-3.59-3.5-3.76-.2-1.66-.41-3.31-.61-4.97Z"/><path class="cls-9" d="M96.7,138.2c.2-.39.41-.77.61-1.16,1.53-.39,4.19,5.83,2.91,6.93-.37.32-1.47.4-1.73.12-.62-.65-1.09-1.56-1.33-2.44-.13-.47.55-1.14.48-1.66-.09-.63-.6-1.2-.93-1.79Z"/><path class="cls-9" d="M100.3,123.68h4.56c-1.5,2.65-4.17,3.17-6.81,3.67-.35.07-.83-.54-1.24-.83,1.27-1.03,2.55-2.07,3.49-2.84Z"/><path class="cls-7" d="M102.17,166.11c-1.75-2.63-2.58-1.09-3.35.74-.48-2.91-6.23.57-5.13-4.23.1-.44.3-1.05.63-1.2.29-.13,1.13.2,1.2.47.87,3.48,3.51,2.1,5.64,2.12.34.7.68,1.4,1.02,2.1Z"/><path class="cls-78" d="M124.53,118.94c.74.5,1.1.68,1.08.75-.27.91-.51,2.53-.9,2.57-2.76.27-1.31,2.4-1.65,3.6-.29,1.01.09,2.21.18,3.33-1.3-.7-.33-3.07-2.38-3.22,1.2-2.3,2.4-4.61,3.67-7.03Z"/><path class="cls-72" d="M100.01,158.04c0-.81,0-1.61,0-2.42.61.07,1.73.05,1.75.22.39,2.36.26,4.67-1.29,6.66-.09.12-.49,0-.74-.01.09-1.48.18-2.96.27-4.44Z"/><path class="cls-78" d="M113.82,141.53c-3.12-1.84-2.15-4.57-1.58-7.21.43.11,1.21.2,1.22.34.17,2.29.24,4.59.34,6.88,0,0,.02-.01.02-.01Z"/><path class="cls-32" d="M117.86,131.44c-2.14,1.55,1.92,4.03-1.21,5.32-.49-1.4-1.22-2.77-1.37-4.2-.07-.71.93-1.54,1.45-2.31.33.35.67.7,1.13,1.19Z"/><path class="cls-10" d="M98.81,166.92c-.11.92-.03,2.54-.37,2.63-.98.27-2.31.24-3.15-.26-.97-.57-2.68-.97-2.12-2.83,1.21.37,3.82-1.27,2.89,2.21-.2.73,1.06.98,1.67.02.38-.58.72-1.18,1.08-1.77Z"/><path class="cls-2" d="M120.79,174.59c-.57,1.09-1.01,2.29-1.77,3.22-.52.64-1.49.91-2.26,1.34,1.25-.54,2.55,1.66,3.96-.15.22-.28,2.29.64,3.31,1.31.41.27.29,1.34.41,2.05-.47-.45-.87-1.08-1.44-1.33-1.06-.47-2.2-.04-1.98,1.14.72,4.01-2.86,4.44-4.85,6.2-.79,3.79-3.71,6.3-6.54,7.97-3.05,1.8-7.1,1.83-10.6,2.97-1.26.41-2.19,1.82-3.27,2.77,1.21,0,2.44-.07,3.64.04,1.19.11,2.36.41,3.53.63-1.01.44-1.98,1.15-3.02,1.26-6.1.66-13.1-.5-18.11,2.14-8.1,4.28-16.35-.48-24.06,2.66-2.45,1,.67,5.48-3.55,5.14-.92-.07-1.2,2.61-2.57,1.17-1.14-1.2-.26-2.83.63-3.94,1.97-2.46,1.86-4.35-1.14-5.75,4.13-.83,8.26,1.74,12.45-.25,5.15-2.45,10.84-1.86,16.31-2.27,4.51-.33,6.5-5.5,11.25-5.11,7.56.61,12.99-5.36,19.94-6.77.72-.15,1.3-1.34,1.76-2.16.08-.14-.69-.96-1.19-1.2-3.07-1.42-2.45-4.94-4.13-7.13.89-2.37,3-1.03,4.52-1.47.23-.43.35-1.09.7-1.24,1.22-.55,2.51-.94,3.78-1.38-.05.24-.02.53-.16.71-.3.4-.68.74-1.02,1.1.69-.17,1.51-.17,2.03-.56,1.23-.93,2.3-2.06,3.44-3.11Z"/><path class="cls-94" d="M112.02,179.07c-1.52.44-3.63-.9-4.52,1.47-1.51-.43-3.03-.85-4.54-1.28,4.49-2.46,5.96-6.43,6.17-11.32.03-.75,2.31-1.83,3.66-2.01,4.84-.67,2.16-3.59,1.94-5.79-.2-1.3-.4-2.6-.6-3.9.09-.74.18-1.48.27-2.23.7.95,1.41,1.9,2.11,2.85-.09.3-.18.59-.27.89,1.77,4.93,2.51,9.37-4.75,10.04-.19.02-.41.49-.51.78-.9,2.8-1.73,5.63-2.73,8.4-.17.46-1.08.65-1.64.97.41.15.98.55,1.2.41,1.26-.8,2.5-1.66,3.58-2.68.32-.3-2.04-1.06-.26-1.63.67-.21,1.8,1.01,2.72,1.58-.66.43-1.33.84-1.96,1.3-.42.31-.79.69-1.18,1.04l1.33,1.1Z"/><path class="cls-18" d="M98.13,178.77c.12.31.24.62.35.93-4.98.49-9.96.98-14.94,1.47,0-.51-.02-1.02-.03-1.53.88.21,1.77.41,2.65.62,2.33.39,4.38-.35,6.34-1.52,1.86,1.6,3.75-.13,5.62.04Z"/><path class="cls-109" d="M128.8,381.6c.69-2.11,1.48-4.19,2.02-6.34.11-.44-.05-1.1-.4-1.39-.88-.73-2.03-.1-3.11.13.61-2.49.25-5.01,2.58-7.28,2.11-2.05,2.88-5.47,4.24-8.29.2-.42.43-.83.65-1.24.14.55.47,1.14.4,1.66-.49,3.52-1.1,7.03-1.58,10.56-.09.68.32,1.66,1.06.51.52-.8.22-2.22.82-2.86,1.97-2.09.18-4.45.77-6.65,1.06-3.94,1.59-8.03,2.79-11.91.24-.76.49.62.63,1.04.19.59.35,1.22.35,1.83.02,4.98,0,9.97,0,14.95,0,.16.08.32.12.48.34-1,.85-1.98.99-3.02.62-4.45,1.13-8.91,1.71-13.37.04-.27.41-.5.62-.75.1.58.42,1.23.25,1.72-.63,1.84-.59,3.57.07,5.41.38,1.06.3,2.28.43,3.43.12-1.63.22-3.26.37-4.89.2-2.17.32-4.36.75-6.49.15-.74,1.12-1.02,1.67.03.25.48.47.98.71,1.47.09,7.4.19,14.79.28,22.19-.24-4.26-.5-8.52-.72-12.78-.06-1.13-.02-2.26-.02-3.4-.21.02-.59,0-.62.08-.31.99-.77,1.99-.78,2.99-.03,2.42.83,5.08.1,7.22-1,2.96-1.59,5.87-1.31,8.88.16,1.74.07,3.91-.83,3.93-.1-.8-.21-1.6-.31-2.4-.11-2.19-.22-4.38-.34-6.57-.25.05-.62.01-.73.16-1.57,2.13-1.65,4.38-.44,6.71-1.34,7.43-2.38,14.87-.59,22.39l-.04.39c-.21.45-.42.9-.62,1.35-.15-.51-.35-1.01-.45-1.53-.52-2.64-1.35-5.27-1.43-7.92-.13-4.41.26-8.84.38-13.26.06-1.95-.03-3.9.01-5.85.03-1.66-1.06.1-1.36-.48.13,1.56-1.78,2.36-1.88,2.97-.91,5.58-3.44,11.03-1.17,16.97l-.67,2.35c-.25.19-.51.37-.76.56-.46-2.17-.95-4.33-1.38-6.5-.08-.4.04-.84.07-1.26.32-2.61,2.76-6.51-2.95-5.47l-.39-.46Z"/><path class="cls-109" d="M118.64,368.1c.17-.52.34-1.04.51-1.55.6-1.77.74-3.8,2.7-4.81.01,1.52.23,3.08,0,4.57-.46,3-1.15,5.96-1.75,8.94-2.64-1.94-.52-4.85-1.46-7.14Z"/><path class="cls-8" d="M127.59,373.99c.83-.17,1.71-.59,2.47-.43.47.1,1.16,1.17,1.05,1.64-.53,2.14-1.31,4.22-2.01,6.32-1.3-.08,2.12-4.83-2.05-2.07.18-1.82.36-3.64.54-5.45Z"/><path class="cls-100" d="M118.64,368.1c.94,2.29-1.18,5.2,1.46,7.14,0,.2,0,.39.01.59-.91.32-1.83.64-2.74.97-2.65-1.65.35-3.22.06-4.84.4-1.28.81-2.57,1.21-3.85Z"/><path class="cls-111" d="M142.02,338.64c-2.19-1.38-4.38-2.75-6.56-4.13-.19-.12-.5-.18-.55-.34-.11-.32-.08-.68-.11-1.03.27,0,.57-.06.81.04,2.85,1.12,4.78,4.37,8.43,3.67-1.02.21,0,2.7-2.02,1.8Z"/><path class="cls-61" d="M125.23,32.62c.82-1.1.62,3.52,1.8.32.07,6.67,2.53,12.64,5.49,18.44.85,1.66,1.74,4.21,3.03,4.51,1.69.39.4-1.66.42-2.63.01-.86-.22-1.73-.33-2.6-.72-5.61-1.44-11.22-2.14-16.82-.01-.11.17-.25.26-.38.11.47.22.93.33,1.4.89,4,1.77,8.01,2.66,12.01.31,1.4.51,2.85,1.01,4.18.24.66,1.06,1.1,1.61,1.64.33-.64.96-1.29.93-1.9-.25-5.15-.62-10.29-.96-15.44-.09-1-.19-2-.28-3,.23.06.65.1.67.2.98,5.4,1.91,10.8,2.88,16.2.21,1.17.53,2.31.82,3.46,0,.02.45-.02.45-.05.05-1.13.05-2.27.1-3.4.03-.6.13-1.19.2-1.79.22.13.59.22.63.39.34,1.82.49,3.68.97,5.45.37,1.4,1.12,2.71,1.7,4.06.15-.98.42-1.96.43-2.94.09-5.1.11-10.2.15-15.31.14,8.54.31,17.08.33,25.62,0,.42-1.67,1.39-1.97,1.19-6.6-4.26-6.59,3.01-8.93,5.44-1.66,1.73-5.06,2.55-4.6,6,.04.31.15.62.23.93.19-.22.36-.45.56-.64.54-.51,1.1-1,1.65-1.49.15,1.02.69,2.76.38,2.93-3.21,1.74-3.45,5.43-5.51,7.87-.27.32-.89.34-1.35.5-.41-.61-.83-1.22-1.24-1.83,0-.3.02-.6.03-.9,0,0-.01,0-.01,0,1.54-1.42,4.14-1.97,3.92-4.82-1.78-5.02-4.09-9.65-7.55-13.85-4.34-5.26-11-9.7-8.36-18.24,0,0,0,0,0,0,.82-1.97,1.71-2.23,2.77-.15.1.19.49.23.74.34.16-.91.32-1.81.49-2.72.25-1.36.5-2.73.75-4.09,1.14,2.08,2.27,4.16,3.41,6.24-4.96.7-2.69,4.14-1.59,5.85,2.35,3.68,5.46,6.88,8.29,10.26.09.1.59.05.62-.04.09-.24.09-.55.04-.81-1.96-9.87-3.92-19.74-5.89-29.61Z"/><path class="cls-88" d="M142.93,105.53c-.44.07-.89.14-1.33.22.37-2.11.32-4.44,1.25-6.26.84-1.62,2.78-2.67,4.22-4,.25-.23.38-.6.57-.91-.34-.1-.77-.37-1.02-.26-1.9.86-1.97-.33-1.94-1.66,1.42-.91,2.83-1.82,4.25-2.73.08.77.17,1.55.25,2.32-.37.59-3.18,1.37.15,1.74.3.03.65,1.32.67,2.03.04,2-1.93,1.8-3.02,2.57-1.11.79-2.16,1.66-3.23,2.5.27.02.58.15.79.05.85-.41,1.64-.93,2.49-1.34.62-.29,1.3-1.46,1.9-.2.15.32-.7,1.13-1.09,1.71,1.35.5.81.17-.08.51-1.91.74-4.49.84-4.82,3.71Z"/><path class="cls-41" d="M127.62,84.24c0,.3-.02.6-.03.9-1.29.2-2.58.4-3.87.59-4.65-5.17-9.31-10.34-13.93-15.53-.3-.34-.39-.88-.55-1.34,0-.03.39-.26.44-.22.38.36.68.82,1.09,1.13,5.3,4.1,8.69,10.29,14.76,13.56.7.3,1.4.61,2.1.91Z"/><path class="cls-53" d="M134.48,82.42c.18-.59.29-1.66.55-1.7,1.47-.23,1.84-3.2,3.97-1.59-.8,1.21.77,1.76.76,2.48-.02,1.59-.55,3.18-.95,4.76-.05.2-.55.29-.85.43.66-1.89-3.56-1-1.96-3.43-.51-.31-1.02-.62-1.53-.94Z"/><path class="cls-96" d="M143.21,81.53c0-.39,0-.79.01-1.18,2.5-1.53,3.57-5.1,7.17-5.03.37,0,.74.25,1.11.38-.1.2-.24.57-.3.56-4.38-.83-4.92,4.15-7.99,5.27Z"/><path class="cls-81" d="M17.52,216.84c-2.98.11-5.95.23-8.93.34,1.13-.44,2.28-.84,3.4-1.32,1.43-.61,2.83-1.31,4.27-1.92,1.82-.77,3.74-1.35,5.47-2.29.78-.42,3.89.85,1.98-2.15-.06-.09.28-.59.31-.57,5.04,2.03,3.19-4.42,6.12-4.96,3.57-1.63,2.24,2.91,4.19,3.32-.58-.1-1.15-.28-1.73-.3-1.73-.06,1.1-3.3-1.78-2.51-2.03.56-2.2,2.55-1.72,3.68.97,2.27,2.85-.08,4.31.26,3.31.71,5.99-1.31,8.96-2.07.83-.21,2.24-.87,1.31.98-3.38,6.7,3.25,1.09,3.99,3.16.29.81,4.02-.61,3.34.93-1.14,2.59-2.18,6.69-6.78,5.71.72-.34,1.45-.69,2.17-1.03-.32-.29-.6-.62-.96-.85-.35-.22-2.07.42-.49-.93.25-.21-.03-1.63-.45-1.91-1.31-.89-2.73-.71-3.96.37-.04.04.1.32.19.47.65,1.06,1.32,2.12,1.98,3.18-.34.03-.68.13-1.01.08-1.18-.15-2.35-.35-3.53-.53-1.13-1.05-1.26-2.13-.27-3.38,1.32-1.67,2.56-3.4,3.83-5.11-1.79.59-3.58,1.19-5.38,1.78-.47.15-.95.25-1.43.38-2.93.6-5.86,1.18-8.78,1.81-.34.07-.64.38-.96.58.4.03.82.15,1.18.06.96-.24,1.89-.57,2.83-.86-.6.65-1.21,1.3-1.81,1.96-3.29,1.11-6.58,2.21-9.86,3.33-.07.02-.1.16-.13.24,0,0,.08.05.12.07Z"/><path class="cls-25" d="M38.16,215.99c1.18.18,2.35.38,3.53.53.33.04.68-.05,1.01-.08-.66-1.06-1.32-2.11-1.98-3.18-.09-.15-.24-.44-.19-.47,1.22-1.08,2.64-1.26,3.96-.37.42.29.7,1.7.45,1.91-1.58,1.36.14.71.49.93.35.23.64.56.96.85-.72.34-1.45.69-2.17,1.03-2.16-.19-4.32-.38-6.48-.57-.04-.11-.08-.22-.12-.33.18-.08.36-.16.55-.25Z"/><path class="cls-66" d="M33.4,208.42c-1.47-.34-3.35,2.01-4.31-.26-.48-1.13-.31-3.12,1.72-3.68,2.88-.79.05,2.45,1.78,2.51.58.02,1.15.19,1.73.3.92,0,1.84-.01,2.76-.02-1.23.38-2.45.77-3.68,1.15Z"/><path class="cls-23" d="M124.87,207.5c-.19.02-.37.03-.56.05-.56-.79-1.51-.1-2.24-.31-2.45-.71-5.27-.17-7.95-.11.93,2.16-1.42,2.46-2.11,3.71-2.1.53-4.2,1.06-6.29,1.6-1.27-.06-2.53-.18-3.8-.17-2.05.01-3.97-.43-6.05,1.06-1.3.93-3.8.19-5.76.19,2.08-1.58,4.27-2.89,7.01-2.76.79.04,1.58.35,2.36.33,1.72-.05,3.44-.23,5.16-.36-1.11-.6-2.16-1.35-3.34-1.74-.67-.22-1.53.21-2.31.29-.45.05-.91-.02-1.37-.03.39-.32.75-.84,1.19-.92,5.43-1.04,10.88-2.02,16.31-3.02.19-.04.37-.15.56-.23-3.57-3.72,1.68-2.06,1.94-3.26.25-1.13-.13-2.39-.24-3.6,2.61-.45,1.09-3.12,1.88-3.87,2.24-2.12,4.24-4.86,7.68-5.34.1,4.27,1.08,2.11,2.16.33.72-1.19,6.69.3,9.3,2.25.67.63,1.34,1.26,2.01,1.9-1.07.48-2.21.85-3.18,1.48-1.75,1.14-3.55.84-5.38.47.55,3.54-5.67-1.13-4.31,3.53.07.24-.99,1.07-1.58,1.14-.51.07-1.11-.54-1.67-.86-.11-.06-.18-.18-.27-.26-.13.14-.4.36-.38.4.21.34.49.64.73.97.74,1.01,4.32,1.04,1.18,3.39-1.98.94-.38,2.53-.67,3.77Z"/><path class="cls-80" d="M112.02,179.07l-1.33-1.1c.39-.35.76-.74,1.18-1.04.63-.46,1.31-.87,1.96-1.3-.92-.57-2.05-1.8-2.72-1.58-1.78.57.58,1.33.26,1.63-1.07,1.02-2.32,1.87-3.58,2.68-.22.14-.79-.26-1.2-.41.57-.32,1.47-.51,1.64-.97,1-2.77,1.82-5.6,2.73-8.4.09-.29.31-.76.51-.78,7.26-.68,6.52-5.11,4.75-10.04,3.48,3.66,6.02,3.61,7.2-1.82h0c-.46,2.31-.45,4.88-1.54,6.82-.76,1.34-.08-1.38-1.13-1.12-.84-.05-1.69-.09-2.53-.14,4.23,5.91-2.1,4.81-4.28,6.48-.61.47-1.14,1.04-1.7,1.57.75.15,1.51.29,2.26.44-.7,1-1.41,2-2.11,3,1.48-.02,2.42-1.83,3.11-1.87,2.21-.12,2.95-3.66,5.54-2.19.79.45-1.03,3.37,1.59,1.96,1.63-.87.27-2.52-.05-3.81,2.54.41,2.52.4-.71,5.23-.46.69-.71,1.53-1.06,2.3-1.14,1.05-2.22,2.18-3.44,3.11-.52.4-1.34.39-2.03.56.35-.36.72-.7,1.02-1.1.13-.18.11-.47.16-.71-1.26.45-2.56.83-3.78,1.38-.35.16-.48.82-.7,1.24ZM119.91,171.64c.03-.45.09-.79.07-1.13-.06-.88-.03-1.68-1.32-.76-1.95,1.4.83,5.29-3.03,5.57.38.15.92.53,1.13.4,1.55-1,4.08-1.3,3.15-4.07Z"/><path class="cls-38" d="M159.4,191.96c-.59,1.54-1.7.52-2.6.54-.11-.09-.22-.19-.33-.28.23-1.45-.77-1.25-1.64-1.22-.77-1.01-1.54-2.02-2.3-3.02-1.48-1.19-2.96-2.37-4.45-3.56-.72-.39-1.45-.79-2.17-1.18,2.96-2.05,4.71.9,6.86,1.83,1.38.6,2.41.74,3.62-.02.9-.31,1.79-.61,2.69-.92.42.5.2,1.81,1.5,1.23.2.11.4.23.6.34,2.87.7,4.73.23,3.92-3.36,2.61.76,1.2,2.68,1.21,4.18-.56.51-1.12,1.01-1.68,1.52.75.6,1.51,1.2,2.26,1.8.61.51,1.21,1.01,1.82,1.52.49.9.99,1.79,1.48,2.69-.72-.19-1.44-.39-2.16-.58-1.44-.94-2.79-2.11-4.35-2.76-1.64-.68-3.48-.87-5.24-1.23-.28-.06-.62.15-.93.23.63.75,1.26,1.5,1.9,2.25Z"/><path class="cls-91" d="M148.08,184.42c1.48,1.19,2.96,2.37,4.45,3.56-.73-.1-1.47-.28-2.2-.27-.96.03-1.91.21-2.86.33.09.1.16.25.27.29,2.36.9,4.73,1.78,7.09,2.67.87-.03,1.87-.23,1.64,1.22-3.52-.4-7.05-.8-10.57-1.21.39-.17.77-.34,1.16-.5-.45-.15-.89-.4-1.35-.42-2.44-.14-4.89-.22-7.34-.32-.73-.21-1.47-.38-2.18-.65-.1-.04-.05-.8,0-.81.76-.11,1.7-.46,2.28-.15,2.22,1.17,4.33.49,6.48-.03-2-.62-4.01-1.25-6.01-1.87,1.14-.33,2.27-.67,3.4-1-1.23-.46-2.45-.92-3.68-1.38-1.45-.7-2.9-1.4-4.36-2.1,2.02-1.23,3.69.52,5.56.64,1.29.08,2.57.3,3.86.46-1.35.05-2.71.1-4.06.16-.17,0-.32.13-.49.2.19.12.37.34.57.36,2.78.29,5.56.55,8.34.81Z"/><path class="cls-80" d="M125.2,149.63c-1.99-5.34.96-9.49,3.37-13.75.11-.19.52-.2.79-.29,0,.68.16,1.41-.04,2.03-.89,2.8-5.07,4.19-3.45,8.08.54-.44,1.26-.77,1.58-1.33,2.04-3.62,4.02-7.29,5.97-10.96.63-1.19.17-2.99,1.99-3.5-.31,1.29-.43,2.67-.98,3.85-2.4,5.22-4.91,10.38-7.39,15.56-1.97,1.79-3.55,3.8-3.65,6.62,0,0,0,0,0,0-1.03.29-2.07.57-3.1.86.12-.37.15-.79.37-1.09,1.48-2.04,3-4.05,4.51-6.07Z"/><path class="cls-4" d="M128.21,149.38c1.7-2.82,3.4-5.64,5.1-8.47,1.38,3.7-2.13,4.95-3.61,7.22-.79,3.78-2.47,7.65-2.1,11.31.34,3.39-.41,7.39,2.37,10.35-.38.4-.73,1.05-1.15,1.11-.33.05-1.03-.59-1.13-1.02-1.51-6.87-2.36-13.74.53-20.51Z"/><path class="cls-60" d="M129.96,169.8c-2.78-2.96-2.03-6.96-2.37-10.35-.37-3.66,1.31-7.53,2.1-11.31,3.17.89.7,2.98.41,3.89-1.77,5.55.27,10.97.13,16.43-.01.45-.18.89-.27,1.34Z"/><path class="cls-70" d="M137.2,176.95c.48.11.95.27,1.43.33,1.56.21,3.13.38,4.69.57-1.87-.04-3.74-.08-5.61-.1-.89-.01-1.78.02-2.66.03-1.88-.24-4.4-1.41-3.53,2.4-2.46-1.49-4.15-5.04-8-2.96-.34.18-1.13-.47-1.71-.74.47-.17.92-.45,1.4-.5,2.95-.31,5.91-.57,8.87-.84.14-.01.28.06.42.1-.75.16-1.5.39-2.26.48-.94.11-1.89.09-2.83.13.16.38.34,1.1.46,1.09.96-.08,1.91-.3,2.87-.48,2.19-.4,4.38-.7,6.45.5Z"/><path class="cls-31" d="M122.56,167.06c.32,1.29,1.67,2.94.05,3.81-2.62,1.4-.8-1.52-1.59-1.96-2.6-1.46-3.33,2.07-5.54,2.19-.69.04-1.63,1.85-3.11,1.87.7-1,1.41-2,2.11-3,2.07-1.18,4.15-2.35,6.23-3.53.62.21,1.24.41,1.86.62Z"/><path class="cls-45" d="M120.7,166.45c-2.08,1.18-4.15,2.35-6.23,3.53-.75-.15-1.51-.29-2.26-.44.57-.53,1.09-1.1,1.7-1.57,2.18-1.67,8.51-.57,4.28-6.48.84.05,1.69.09,2.53.14-.81,1.6,2.51,3.23-.03,4.82Z"/><path class="cls-23" d="M138.67,183.88c1.23.46,2.45.92,3.68,1.38-1.13.33-2.27.67-3.4,1-2.46,2.22-5.1-1.05-7.64.22-.2.1-.82-.67-1.25-1.04.82-.12,1.7-.5,2.46-.33,2.28.51,4.36.46,6.15-1.24Z"/><path class="cls-39" d="M131.52,180.17c-.87-3.81,1.65-2.63,3.53-2.4,1.55.51,3.1,1.01,4.66,1.52-.94,1.34-3.12-1.19-3.73,1.2-1.48-.11-2.97-.21-4.45-.32Z"/><path class="cls-23" d="M138.37,189.77c2.45.1,4.89.18,7.34.32.46.03.9.28,1.35.42-.39.17-.77.34-1.16.5-2.1.1-4.2.2-6.3.3,1.03-1.65-.5-1.28-1.22-1.55Z"/><path class="cls-22" d="M137.52,133.14c.13,0,.26,0,.39.01,3.46,3.11-3.52,2.48-1.88,5.13.22.35-.96,1.56-1.5,2.37.1-.9.2-1.81.3-2.72.9-1.6,1.8-3.2,2.7-4.81Z"/><path class="cls-36" d="M98.13,178.77c-1.87-.18-3.76,1.56-5.62-.04.28-.3.57-.59.85-.89.73.13,1.46.26,2.19.4.09-.68.42-1.43.23-2.02-1.1-3.45-4.26-4.21-7.16-5.28.1-.2.2-.41.31-.61.59-.39,1.18-.78,1.77-1.17,5.4,3.13,5,3.36,7.08,7.02.42.75-.68,2.13.75,2.26-.13.11-.26.23-.39.34Z"/><path class="cls-44" d="M91.62,265.96c1.7,2.32,6.03,2.96,5.33,6.64-.7,3.74-4.38,1.15-6.51,2.1.78-1.31-.69-1.29-1.14-1.77-1.42-1.5-4.99-2.86,0-4.31-.74-2.19,3.19-.34,2.31-2.66Z"/><path class="cls-44" d="M94.07,284.57c1.76-1.24,1.82-1.33-1.86-3.59-1.32-.81-.95-1.61-.54-2.49.6-1.29,1.38-.33,2.03,0,3.5,1.82,6.99,3.67,10.48,5.51-3.37.19-6.74.38-10.11.57Z"/><path class="cls-51" d="M91.62,265.96c.89,2.32-3.05.47-2.31,2.66-5,1.45-1.42,2.81,0,4.31.45.48,1.92.46,1.14,1.77-5.3-3.27-7.03-6.43.29-9.31.08-.17.16-.35.24-.52.21.36.43.73.64,1.09Z"/><path class="cls-27" d="M96.7,248.06c-.04-1.67-.24-3.36-.05-5,.1-.83-.75-2.5.95-2.49,1.85.01.81,1.72.61,2.24-.86,2.15,2.58,4.87-.89,6.58-.21-.44-.41-.89-.62-1.33Z"/><path class="cls-51" d="M93.04,264.11c-.64-2.94-.99-5.14,1.93-5.77.3-.06,1.05.58,1.03.62-.89,1.83-1.84,3.63-2.78,5.43-.21-.34-.43-.68-.18-.28Z"/><path class="cls-94" d="M111.41,152.64c3.32-3.16,6.86-5.67,7.25-11.33.23-3.27,4.25-6.27,6.56-9.4,1.7-1.89,3.4-3.78,5.1-5.67.42-.2.84-.4,1.26-.61.18.2.35.41.53.61-.3.39-.6.79-.9,1.18-.96,3.31-5.32,4.14-5.71,7.86,0,.08,0,.15,0,.23-1.24,3.16-6.58,3.93-5.07,8.69-.21.81-.42,1.61-.63,2.42-3.85.54-2.83,7.87-8.39,6.02h0Z"/><path class="cls-68" d="M125.2,149.63c-1.51,2.02-3.03,4.03-4.51,6.07-.22.3-.25.72-.37,1.09,1.03-.29,2.07-.57,3.1-.86-1.18,5.43-3.72,5.48-7.2,1.82.09-.3.18-.59.27-.89,0-.11.02-.21.02-.32.74.3,1.47.59,2.21.89,0-.23-.06-.47.01-.67.97-2.76.87-5.98,3.42-8.08.65,1.49,1.72,1.64,3.05.95Z"/><path class="cls-110" d="M116.51,156.54c0,.11-.02.21-.02.32-.7-.95-1.41-1.9-2.11-2.85-.09.74-.18,1.48-.27,2.23-1.91-.27.46-4.06-2.7-3.31,0-.1,0-.19,0-.29,5.56,1.85,4.54-5.47,8.39-6.02.8.31,1.6.62,2.4.93-4.69,1.22-3.53,6.15-5.69,8.98Z"/><path class="cls-80" d="M116.51,156.54c2.16-2.83,1-7.76,5.69-8.98-.02.37-.03.75-.05,1.12-2.55,2.09-2.45,5.31-3.42,8.08-.07.2-.01.45-.01.67-.74-.3-1.47-.59-2.21-.89Z"/><path class="cls-69" d="M132.11,126.24c-.18-.2-.36-.41-.53-.61,2.68-4.08,8.16-3.4,11.35-6.63.04-.04.31.15.47.23-1.96,1.82,3.66.6.88,1.57-4.25,1.49-8.52,2.69-12.17,5.45Z"/><path class="cls-69" d="M125.5,135.29c.38-3.72,4.75-4.56,5.71-7.86.61-.09,1.21-.18,1.82-.27-.36.69-.74,1.37-1.08,2.06-.09.18,0,.48-.13.59-2.09,1.84-4.21,3.66-6.32,5.48Z"/><path class="cls-13" d="M147.72,117.91c-1.24-.26-2.27-.47-3.31-.68.28-.43.52-1.2.84-1.23,1.91-.19,3.8-1.75,5.77-.22-4.32,1.21,1.73,1.18.23,1.75-1.14.42-2.48.29-3.53.39Z"/><path class="cls-71" d="M145.1,121.68c-3.43,1.91-5.07,2.83-6.72,3.74-.34.19-.83.24-1.05.51-.78.94-1.48,1.95-2.2,2.94-.1-.42-.42-.94-.28-1.25.92-2.03,2.35-3.54,4.58-4.17,1.26-.35,2.5-.77,5.68-1.76Z"/><path class="cls-86" d="M120.44,144.21c-1.51-4.77,3.83-5.53,5.07-8.69,1.2,1.08,1.18,1.06-1.67,3.56-1.57,1.38-3.49,2.61-2.76,5.23.02.09-.16.23-.25.35-.13-.15-.26-.3-.39-.45Z"/><path class="cls-79" d="M118.6,314.33c.45.41.9.82,1.35,1.23-.23.17-.43.42-.68.48-.87.19-1.75.31-2.63.46.78.08,1.57.16,2.35.26.11.01.2.11.31.17-.09.03-.19.09-.28.08-5.08-.96-7.63,2.8-10.63,5.7-.08.08-.23.08-.35.12.17-.59.46-1.17.5-1.77.07-1.1,5.02-3.25-.64-3.18-.11,0-.22-.11-.33-.16.21-.11.41-.26.64-.33,3.47-1.02,6.94-2.03,10.42-3.04,0,0-.02-.01-.02-.01Z"/><path class="cls-8" d="M119.5,318.55c-2.39,2.84-5.32,4.13-8.32,5.29-.2.08-.5-.12-.76-.19,2.16-1.62,3.01-4.75,6.02-5.33.9-.17,1.89.12,3.07.23Z"/><path class="cls-69" d="M148.04,38.61c-.04,5.1-.07,10.2-.15,15.31-.02.98-.28,1.96-.43,2.94-.58-1.35-1.33-2.65-1.7-4.06-.47-1.78-.63-3.64-.97-5.45-.03-.16-.41-.26-.63-.39-.07.6-.17,1.19-.2,1.79-.05,1.13-.05,2.27-.1,3.4,0,.02-.44.07-.45.05-.29-1.15-.61-2.3-.82-3.46-.97-5.4-1.9-10.8-2.88-16.2-.02-.1-.44-.13-.67-.2-.23-5.31-.46-10.61-.69-15.92.01-.19.03-.39.04-.58.51-.86,1.03-1.72,1.54-2.59.08,1.43.16,2.86.25,4.29.21,3.54.36,7.08.71,10.61.06.63.96,1.18,1.48,1.76.02-.58-.03-1.18.06-1.75.14-.91.36-1.8.55-2.7.3.23.79.41.85.69.09.4-.26.9-.18,1.31.46,2.32,2.31,4.48.72,7.01.16.09.36.28.47.24,1.1-.42,3.19-.1,2.3-2.24-.62-1.5-.13-2.55.49-3.73.13,3.29.27,6.58.4,9.88Z"/><path class="cls-37" d="M144.12,379.43c.9-.02.99-2.19.83-3.93-.28-3.01.31-5.91,1.31-8.88.72-2.15-.13-4.8-.1-7.22.01-1,.48-2,.78-2.99.03-.08.4-.06.62-.08,0,1.13-.04,2.27.02,3.4.22,4.26.48,8.52.72,12.78,0,3,0,6.01.01,9.01-5.59.43-2.14,5.13-2.56,7.19-.85,4.24.75,8.97,1.35,13.51.24,2.25.49,4.51.73,6.76-1.01-2.2-2.03-4.4-3.04-6.6-.06-.13-.07-.29-.11-.43.15-2.44.81-4.92-.65-7.21.02-.1.04-.2.07-.3,0-5.01,0-10.01.01-15.02Z"/><path class="cls-90" d="M134.53,390.24c-1.07-5.13.99-9.93,1.79-14.84.1-.61,2.01-1.41,1.88-2.97.3.58,1.39-1.18,1.36.48-.04,1.95.04,3.9-.01,5.85-.13,4.42-.51,8.85-.38,13.26.08,2.65.91,5.29,1.43,7.92.1.52.3,1.02.45,1.53.21-.45.42-.9.62-1.35-.02,1.86-.04,3.71-.07,5.57-1.52-3.01-3.16-5.97-4.52-9.06-.92-2.09-.3-4.81-2.55-6.39Z"/><path class="cls-90" d="M144.12,379.43c0,5.01,0,10.01-.01,15.02-3.76.3-1.46,3.48-2.43,5.11-1.73-7.46-.71-14.85.63-22.22.5-.1,1.01-.2,1.51-.3.1.8.21,1.6.31,2.4Z"/><path class="cls-90" d="M144.04,394.75c1.46,2.29.8,4.77.65,7.21-.54-2.23-1.08-4.45-1.56-6.69-.02-.1.59-.34.91-.52Z"/><path class="cls-111" d="M127.62,84.24c-.7-.3-1.4-.61-2.1-.91-4.02-5.37-10.16-8.99-12.86-15.4-1.25-2.96-2.04-6.12-3.04-9.19-.49-1.6,1.26-1.48,1.78-2.3.23.55.51,1.09.67,1.66.89,3.23,2.93,5.66,5.35,7.85.07.27.15.54.22.81-.49-.15-.99-.29-1.47-.45-.49-.16-.97-.35-1.46-.53.21.46.41.91.62,1.37,1.19,1.61,2.44,3.18,3.56,4.83,2.83,4.15,8.95,5.97,8.73,12.28h.01Z"/><path class="cls-112" d="M146.15,313.22c.92-.51,1.87-2.32,2.56-.11.17.54-.52,1.35-.82,2.03-1.98-1.33-3.96-2.67-5.94-4,2.2-1.06,2.9,1.18,4.2,2.08Z"/><path class="cls-89" d="M82.61,241.74c.5.41,1,.82,1.5,1.23.79.49,1.58.98,2.37,1.48.91.37,1.83.74,2.74,1.11,0,1.22.02,2.44.03,3.67-1.22-.28-2.44-.55-3.65-.83-3.48.41-5.58-1.36-6.7-4.43-.2-.55.18-1.55.62-2.06.88-1.02,2.02-.85,3.09-.16Z"/><path class="cls-72" d="M85.59,248.39c1.22.28,2.44.55,3.65.83,0-1.22-.02-2.44-.03-3.67.97-.98,1.87-2.03,2.92-2.92.58-.49,1.39-.69,2.1-1.03.05.27.1.53.15.8.27,1.56.05,3.26-1.59,3.57-3.86.72-3.05,2.54-1.46,4.76-1.91-.61-3.81-1.22-5.72-1.83,0-.17,0-.34,0-.52Z"/><path class="cls-42" d="M137.22,267.25c-4.49-6.01-8.08-12.42-8.74-20.09,2.51,5.72,5.03,11.43,7.54,17.15,1.16.33,2.31.67,3.47.98.8.21,1.6.38,2.41.57-.95,0-2.06.34-2.81-.05-1.97-1.03-2.44-.59-1.88,1.45Z"/><path class="cls-99" d="M115.32,67.14c-.21-.46-.41-.91-.62-1.37.49.18.97.37,1.46.53.49.16.98.3,1.47.45-.07-.27-.15-.54-.22-.81,1.4.54,2.8,1.1,4.22,1.61.33.12.72.07,1.08.1-.06-.35-.02-.78-.21-1.02-3.04-3.96-6.46-7.69-9.05-11.92-1.58-2.57.52-5.15,2.16-7.36-2.64,8.54,4.02,12.98,8.36,18.24,3.46,4.2,5.77,8.83,7.55,13.85-4.2-5.69-8.92-10.68-16.21-12.29Z"/><path class="cls-84" d="M88.61,170.94c2.9,1.07,6.07,1.83,7.16,5.28.19.59-.14,1.34-.23,2.02-.73-.13-1.46-.26-2.19-.4-.04-3.7-2.42-4.67-5.56-4.75-.14-.11-.27-.22-.41-.33-.19-.51-.38-1.01-.57-1.52.6-.1,1.2-.2,1.8-.31Z"/><path class="cls-10" d="M87.39,172.76c.14.11.27.22.41.33.08.18.16.35.25.53-1.54.11-2.48.39-1.71,2.41.39,1.04,1.56,2.38.22,3.67-.13.18-.26.37-.38.55-.88-.21-1.77-.41-2.65-.62,2.03-1.36,1.81-3.37,1.38-5.32-.67-3.06,1.21-1.77,2.49-1.56Z"/><path class="cls-8" d="M129.14,382.12c6.13-1.25,3.61,2.74,3.28,5.41-1.12.11-2.23.22-3.35.32.02-1.91.05-3.82.07-5.73Z"/><path class="cls-92" d="M149.52,302.7c.45-4.87-4.11-1.75-5.78-3.57-1.3-1.42-4.47-1.1-3.84-4.31,2.86,2.15,5.58,4.53,9.46,4.86.35.03.48,2.52.72,3.86-.08,0-.17,0-.25,0-.01-.09-.02-.18-.01-.27-.1-.19-.2-.38-.29-.56Z"/><path class="cls-88" d="M142.95,108.23c-.81,1.74-1.6,3.48-2.45,5.2-.1.19-.47.25-.72.37-.06-.38-.3-.84-.17-1.14,1.06-2.39,2.19-4.75,3.3-7.13,1.62-1.04,3.22-2.09,4.86-3.09.23-.14.64.02.97.04-.16.33-.25.74-.51.97-1.75,1.61-3.53,3.19-5.29,4.78Z"/><path class="cls-48" d="M159.08,184.13c-.9.31-1.79.61-2.69.92-.82-.88-1.65-1.76-2.47-2.64,1.1-.91-.98-2.77,1.02-3.4.99.22,1.98.44,2.97.66,1.27,1.26,1.51,2.79,1.16,4.47Z"/><path class="cls-49" d="M142.66,294.03c-1.19-1.42-4.86-1.16-3.08-4.58,2.03,1.55,4.03,3.15,6.14,4.58.38.25,1.25-.23,1.89-.37-.14-.2-.24-.49-.44-.58-3.57-1.65-6.54-4.02-8.74-7.3.17-.27.34-.55.51-.82,1.79,3.49,5.1,3.56,8.32,3.49.76-.02,1.5-1.12,2.26-1.73,0,0-.01,0-.01,0,.34,1.98,1.74,4.52-2.27,4.21-.37-.03-.78.45-1.17.69.37.17.73.36,1.1.52.85.37,2.35.65,2.42,1.13.15,1.05-.41,2.21-.74,3.31-.07.24-.38.4-.58.6.07-4.51-5.73,1.44-5.61-3.15Z"/><path class="cls-74" d="M168.03,193.47c.72.19,1.44.39,2.16.58-.49-.9-.99-1.79-1.48-2.69,6.1,2.8,9.63,9.42,16.49,11.09-.3.1-.6.2-.9.3-5.5-2.52-11-5.04-16.49-7.56-.76-.17-1.52-.33-2.27-.5.83-.4,1.66-.81,2.5-1.21Z"/><path class="cls-17" d="M125.23,32.62c1.97,9.87,3.93,19.74,5.89,29.61.05.26.05.57-.04.81-.03.09-.54.14-.62.04-2.82-3.38-5.94-6.57-8.29-10.26-1.09-1.71-3.37-5.15,1.59-5.85-1.14-2.08-2.27-4.16-3.41-6.24,0-3.71,2.09-6.57,3.91-9.53.09-.15.39-.18.59-.26.12.56.25,1.12.37,1.68Z"/><path class="cls-113" d="M161.18,185.7c-.2-.11-.4-.23-.6-.34-.99-1.08-.91-2.27-.2-3.4.18-.29.95-.51,1.26-.36.39.18.9.9.79,1.17-.39.98.89,2.73-1.25,2.93Z"/><path class="cls-30" d="M38.16,215.99c-.18.08-.36.16-.55.25-3.51-.36-7.02-1.28-10.54-.03-3.19.21-6.38.42-9.57.63-.04-.02-.13-.06-.12-.07.04-.09.07-.22.13-.24,3.29-1.12,6.58-2.22,9.86-3.33,2.51-1.18,5.02-2.36,7.54-3.54.48-.12.96-.23,1.43-.38,1.79-.58,3.58-1.18,5.38-1.78-1.27,1.71-2.52,3.44-3.83,5.11-.99,1.25-.86,2.34.27,3.38Z"/><path class="cls-60" d="M143.23,115.79c1.1-2.11,2.21-4.22,3.31-6.33,1.91-1.49,3.73.15,5.59.18-.16.16-.3.43-.49.47-1,.19-2.02.3-3.02.5-.4.08-.76.3-1.14.46.2.16.38.42.61.47,1.33.33,2.79-1.21,4.06.26-1.39.53-2.82,1-4.17,1.62-1.61.73-3.16,1.57-4.74,2.37Z"/><path class="cls-79" d="M149.52,286.72c-.75.61-1.49,1.71-2.26,1.73-3.22.07-6.54,0-8.32-3.49-.19-.41-.38-.81-.57-1.22,1.61.4,3.23.79,4.84,1.19.89.43,1.78.86,2.67,1.29-1.12-.06-2.25-.06-3.36-.2-.39-.05-.73-.4-1.1-.62.04.23.01.53.15.68.39.45.86,1.2,1.28,1.19,2.23-.07,4.45-.35,6.67-.55Z"/><path class="cls-58" d="M149.52,302.7c.1.19.2.38.29.56-3.71,1.02-6.01-1.94-8.91-3.18-.1-.04-.04-.43-.06-.66,1.05.31,2.41.31,3.09.99,1.61,1.59,3.43,2.24,5.58,2.29Z"/><path class="cls-46" d="M132.71,294.54c.82-2.69-.83-4.62-1.98-6.74-.56-1.02-2.4-2.65-1.16-3.11,2.11-.79,3.03,1.93,3.7,3.32.87,1.81.69,4.13.96,6.24-.5.1-1.01.19-1.51.29Z"/><path class="cls-34" d="M138.43,285.78c2.2,3.28,5.17,5.65,8.74,7.3.19.09.29.38.44.58-.64.14-1.52.62-1.89.37-2.11-1.43-4.1-3.03-6.14-4.58-.89-1.23-1.96-2.37-2.62-3.71-.5-1.03-2.8-2.17-1.48-2.85,1.78-.92,2.15,1.65,2.95,2.89Z"/><path class="cls-33" d="M105.72,212.44c2.1-.53,4.2-1.06,6.29-1.6.8.4,1.6.8,2.4,1.2-.28.6-.56,1.2-.84,1.8-.82.7-1.65,1.4-2.47,2.1,0,0,.01,0,.01,0-1.62.12-3.24.23-4.86.35-1.99-.19-4.22,1.16-5.92-.91,1.79-.98,3.59-1.95,5.38-2.93Z"/><path class="cls-6" d="M105.72,212.44c-1.79.98-3.59,1.95-5.38,2.93.52-1.62-.82-.87-1.29-.9-2.87-.18-5.76-.26-8.64-.35-1.03-.03-2.06-.02-3.09-.03.93-.19,1.86-.37,2.79-.56,1.96,0,4.47.74,5.76-.19,2.07-1.49,4-1.05,6.05-1.06,1.27,0,2.53.11,3.8.17Z"/><path class="cls-28" d="M101.22,218.68c-3.91,1.37-7.83,2.74-11.74,4.11,3.08-3.75,7.24-4.42,11.74-4.11Z"/><path class="cls-97" d="M87.08,223.19c-3.38,2.48-7.2.64-10.79,1.08,3.41-2.22,7.22-.45,10.79-1.08Z"/><path class="cls-25" d="M124.87,207.5c.3-1.24-1.31-2.83.67-3.77,2.98-1.12,1.8,2.4,3.28,2.94-1.32.28-2.64.55-3.96.83Z"/><path class="cls-109" d="M86.47,244.44c-.79-.49-1.58-.98-2.37-1.48,3.08.24,1.82-5.48,5.72-4.17.43.14.96-.04,1.45-.07-.11.62,0,1.47-.36,1.83-1.4,1.38-2.95,2.6-4.44,3.89Z"/><path class="cls-25" d="M111.11,215.94c.82-.7,1.65-1.4,2.47-2.1,1.12.14,2.27.51,3.35.36,1.31-.18,2.62-.65,3.81-1.25,1.27-.64.26-1.33-.34-1.39-2-.2-4.21-2.22-5.97.48-.8-.4-1.6-.8-2.4-1.2.68-1.25,3.03-1.55,2.11-3.71,2.68-.06,5.49-.6,7.95.11.74.21,1.69-.48,2.24.31.63,5.02-6.81,9.74-13.21,8.39Z"/><path class="cls-101" d="M168.03,193.47c-.83.4-1.66.81-2.5,1.21.76.17,1.52.33,2.27.5,0,.13-.01.27-.02.4-3.45.31-4.56-4.78-8.38-3.62-.63-.75-1.26-1.5-1.9-2.25.31-.08.65-.29.93-.23,1.76.36,3.6.55,5.24,1.23,1.56.65,2.91,1.82,4.35,2.76Z"/><path class="cls-43" d="M111.4,151.12c-.2-.3-.4-.59-.59-.89.22-3.52,3.7-4.86,5.11-7.59.09-.18.9-.26,1.02-.1.31.4.72,1.2.55,1.4-1.97,2.44-4.04,4.8-6.08,7.18Z"/><path class="cls-78" d="M111.41,152.93c3.17-.75.79,3.03,2.7,3.31.2,1.3.4,2.6.6,3.9-.72-.29-1.45-1.7-2.13.03-.39-2.41-.78-4.83-1.17-7.24Z"/><path class="cls-63" d="M88.04,173.62c-.08-.18-.16-.36-.25-.53,3.14.08,5.52,1.04,5.56,4.75-.28.3-.57.59-.85.89-1.95,1.17-4.01,1.91-6.34,1.52.13-.18.26-.37.38-.55,1.94.42,4.21-.2,4.59-1.71.45-1.79-1.14-3.54-3.1-4.37Z"/><path class="cls-37" d="M143.81,377.03c-.5.1-1.01.2-1.51.3-1.2-2.33-1.12-4.58.44-6.71.11-.15.48-.11.73-.16.11,2.19.22,4.38.34,6.57Z"/><path class="cls-41" d="M115.32,67.14c7.29,1.61,12.01,6.61,16.21,12.29.22,2.85-2.38,3.4-3.92,4.82.22-6.31-5.89-8.13-8.73-12.28-1.13-1.65-2.37-3.22-3.56-4.83Z"/><path class="cls-89" d="M34.93,209.66c-2.51,1.18-5.02,2.36-7.54,3.54.6-.65,1.21-1.3,1.81-1.96-.94.29-1.88.63-2.83.86-.37.09-.79-.03-1.18-.06.32-.2.61-.5.96-.58,2.92-.63,5.85-1.21,8.78-1.81Z"/><path class="cls-31" d="M119.91,171.64c.93,2.77-1.61,3.07-3.15,4.07-.2.13-.74-.25-1.13-.4,3.86-.27,1.08-4.17,3.03-5.57,1.29-.92,1.26-.12,1.32.76.02.34-.04.69-.07,1.13Z"/><path class="cls-103" d="M154.83,191c-2.36-.89-4.73-1.77-7.09-2.67-.11-.04-.18-.19-.27-.29.95-.12,1.91-.31,2.86-.33.73-.02,1.46.17,2.2.27.77,1.01,1.54,2.02,2.3,3.02Z"/><path class="cls-1" d="M88.04,173.62c1.96.83,3.56,2.58,3.1,4.37-.39,1.51-2.66,2.13-4.59,1.71,1.34-1.28.17-2.63-.22-3.67-.77-2.02.17-2.3,1.71-2.41Z"/><path class="cls-51" d="M114.42,212.04c1.77-2.7,3.97-.68,5.97-.48.6.06,1.61.75.34,1.39-1.18.6-2.5,1.07-3.81,1.25-1.08.15-2.23-.22-3.35-.36.28-.6.56-1.2.84-1.8Z"/></svg>